<?xml version="1.0" encoding="UTF-8" standalone="no"?>
<!-- Created with Inkscape (http://www.inkscape.org/) -->

<svg
   width="4.5869932mm"
   height="4.587029mm"
   viewBox="0 0 4.5869932 4.587029"
   version="1.1"
   id="svg495"
   inkscape:version="1.2.2 (b0a8486541, 2022-12-01)"
   sodipodi:docname="browser.svg"
   xmlns:inkscape="http://www.inkscape.org/namespaces/inkscape"
   xmlns:sodipodi="http://sodipodi.sourceforge.net/DTD/sodipodi-0.dtd"
   xmlns="http://www.w3.org/2000/svg"
   xmlns:svg="http://www.w3.org/2000/svg">
  <sodipodi:namedview
     id="namedview497"
     pagecolor="#ffffff"
     bordercolor="#000000"
     borderopacity="0.25"
     inkscape:showpageshadow="2"
     inkscape:pageopacity="0.0"
     inkscape:pagecheckerboard="0"
     inkscape:deskcolor="#d1d1d1"
     inkscape:document-units="mm"
     showgrid="false"
     inkscape:zoom="44.58541"
     inkscape:cx="16.103923"
     inkscape:cy="11.506006"
     inkscape:window-width="1920"
     inkscape:window-height="1011"
     inkscape:window-x="0"
     inkscape:window-y="0"
     inkscape:window-maximized="1"
     inkscape:current-layer="layer1" />
  <defs
     id="defs492" />
  <g
     inkscape:label="Layer 1"
     inkscape:groupmode="layer"
     id="layer1"
     transform="translate(-75.535075,-85.059424)">
    <path
       d="m 77.828589,85.059424 c 1.266401,0 2.293479,1.027113 2.293479,2.293515 0,1.266401 -1.027078,2.293514 -2.293479,2.293514 -1.266402,0 -2.293514,-1.027113 -2.293514,-2.293514 0,-1.266402 1.027112,-2.293515 2.293514,-2.293515"
       style="fill:#f57c3f;fill-opacity:1;fill-rule:evenodd;stroke:none;stroke-width:0.352778"
       id="path58" />
    <path
       d="m 76.701464,86.829028 h 0.462103 l 0.0212,-0.09518 c 0.0035,-0.0071 0.0423,-0.137619 0.04583,-0.155293 0.01767,-0.05292 0.03877,-0.09871 0.05648,-0.144603 0.03881,-0.102306 0.09172,-0.176425 0.148096,-0.257528 -0.141076,0.03171 -0.349179,0.165805 -0.437374,0.254 -0.134126,0.127 -0.211702,0.222214 -0.296333,0.398603 z m 0.64202,0 v 0 c 0.0036,-0.07048 0.03881,-0.179881 0.06001,-0.239889 0.02819,-0.07408 0.05637,-0.148096 0.09169,-0.211596 0.05651,-0.109396 0.172896,-0.268111 0.338702,-0.268111 h 0.01411 c 0.07059,0 0.158679,0.0635 0.19759,0.102306 0.04928,0.04932 0.0846,0.10929 0.11991,0.17279 0.03528,0.06001 0.06699,0.137619 0.08819,0.20821 0.0176,0.04932 0.06001,0.183409 0.0635,0.23629 z m 1.203008,0.497417 v 0 c 0,0.05648 -0.0071,0.148202 -0.01062,0.201083 0,0.03182 0,0.0635 -0.007,0.09532 0,0.0211 -0.01062,0.07758 -0.01062,0.09518 h 0.490326 c 0.0247,0 0.0635,-0.250472 0.0635,-0.29979 v -0.130599 c 0,-0.04579 -0.0388,-0.29979 -0.0635,-0.29979 H 78.52178 Z m -0.860813,-1.538111 v 0 l 0.0423,-0.0035 h 0.204715 l 0.03877,0.0035 0.05641,0.0036 0.02822,0.0035 0.0212,0.0035 h 0.02117 l 0.02113,0.0035 0.01408,0.0036 0.01771,0.0035 0.0176,0.0035 0.01411,0.0035 0.01408,0.0036 0.01422,0.0035 0.01408,0.0035 0.01051,0.0036 0.01422,0.0035 0.01048,0.0035 0.01062,0.0035 0.01408,0.0036 0.01062,0.0035 0.01058,0.0035 0.01062,0.0036 0.007,0.0035 0.01062,0.0035 0.01058,0.0035 0.01062,0.0036 0.01058,0.0035 0.01062,0.0035 0.007,0.0035 0.01062,0.0036 0.0071,0.0035 0.007,0.0035 0.01062,0.0036 0.0035,0.0035 h 0.0071 l 0.01062,0.0035 0.007,0.0035 0.0071,0.0036 0.01062,0.0035 0.007,0.0035 0.0071,0.0036 0.007,0.0035 0.01058,0.0035 0.0071,0.0035 0.01048,0.0036 0.0036,0.0035 0.007,0.0035 0.0071,0.0035 0.007,0.0036 0.0071,0.0035 0.007,0.0035 0.0071,0.0036 0.0071,0.0035 0.0035,0.0035 0.007,0.0035 0.0071,0.0036 0.0071,0.0035 0.007,0.0035 0.0071,0.0036 0.0035,0.0035 0.0071,0.0035 0.0035,0.0035 0.0035,0.0036 h 0.0071 l 0.007,0.0035 0.0071,0.0035 0.0035,0.0035 0.0071,0.0036 0.0035,0.0035 0.007,0.0035 0.0036,0.0036 0.007,0.0035 0.0036,0.0035 0.0035,0.0035 0.007,0.0036 0.0036,0.0035 0.007,0.0035 0.0035,0.0036 0.0071,0.0035 v 0.0035 l 0.0071,0.0035 0.0035,0.0036 0.007,0.0035 0.0036,0.0035 0.007,0.0035 0.0035,0.0036 0.0071,0.0035 0.0071,0.0035 0.0035,0.0036 0.0035,0.0035 h 0.0071 l 0.0035,0.0035 0.0071,0.0035 0.0035,0.0036 0.0035,0.0035 0.0035,0.0035 0.0071,0.0036 0.0035,0.0035 0.0036,0.0035 0.0035,0.0035 0.0035,0.0036 0.0035,0.0035 0.0036,0.0035 0.0035,0.0035 0.0035,0.0036 0.0035,0.0035 0.0036,0.0035 0.0035,0.0036 0.0071,0.0035 0.0035,0.0035 0.0035,0.0035 0.0035,0.0036 0.0036,0.0035 0.0035,0.0035 0.0071,0.0036 0.0035,0.0035 0.0035,0.0035 0.0035,0.0035 0.0036,0.0036 h 0.0035 l 0.0035,0.0035 0.0035,0.0035 0.0036,0.0035 0.0035,0.0036 0.0035,0.0035 0.0036,0.0035 0.0035,0.0036 0.0035,0.0035 0.0035,0.0035 0.0036,0.0035 0.0035,0.0036 0.0071,0.0035 0.0035,0.0035 0.0035,0.0036 0.0035,0.0035 0.0036,0.0035 0.0035,0.0035 0.0035,0.0036 0.0035,0.0035 0.0036,0.007 0.0035,0.0036 0.0035,0.0035 0.0036,0.0035 0.0035,0.0036 0.0035,0.007 0.0035,0.0035 h 0.0036 l 0.0035,0.0036 0.0035,0.0035 0.0035,0.0035 0.0036,0.0036 0.0035,0.0035 v 0.0035 l 0.0035,0.0035 0.0036,0.0071 0.0035,0.0035 0.0035,0.0035 0.0035,0.0036 0.0036,0.0035 0.0035,0.0035 0.0035,0.0071 0.0036,0.0035 0.0035,0.0035 0.0035,0.0036 0.0035,0.0035 0.0036,0.0035 0.0035,0.0036 0.0035,0.0035 0.0036,0.007 0.0035,0.0036 0.0035,0.0035 0.0035,0.0035 0.0036,0.0035 0.0035,0.0036 0.0035,0.0035 0.0035,0.0035 0.0036,0.0071 0.0035,0.0035 0.0035,0.0071 0.0036,0.0035 0.0035,0.0035 v 0.0071 l 0.0035,0.0035 0.0035,0.0071 0.0036,0.007 0.0035,0.0035 0.0035,0.0071 0.0036,0.0035 0.0035,0.0071 0.0035,0.0035 0.0035,0.0071 0.0036,0.0035 0.0035,0.0035 0.0035,0.0036 0.0035,0.007 0.0036,0.0035 0.0035,0.0036 0.0035,0.007 0.0036,0.0035 0.0035,0.0071 0.0035,0.0035 0.0035,0.0071 0.0036,0.0035 0.0035,0.0071 0.0035,0.007 0.0036,0.0071 0.0035,0.0035 0.0035,0.0071 0.0035,0.007 v 0.0035 l 0.0036,0.0036 0.0035,0.007 0.0035,0.0071 0.0035,0.007 0.0036,0.0071 0.0035,0.0035 0.0035,0.0071 0.0036,0.007 0.0035,0.0071 0.0035,0.007 0.0035,0.0071 0.0036,0.0071 0.0035,0.007 0.0035,0.0071 0.0036,0.007 0.0035,0.0071 0.0035,0.01062 0.0035,0.007 0.0036,0.0071 0.0035,0.007 0.0035,0.01062 0.0035,0.0071 0.0036,0.007 0.0035,0.01062 0.0035,0.0071 0.0036,0.007 0.0035,0.01062 v 0.0035 l 0.0035,0.01062 0.0035,0.0071 0.0036,0.01058 0.0035,0.007 0.0035,0.01058 0.0036,0.01062 0.0035,0.01058 0.0035,0.01051 0.0035,0.01058 0.0036,0.0071 0.0035,0.01062 0.0035,0.01051 0.0035,0.01418 0.0036,0.01051 0.0035,0.01418 0.0035,0.01051 0.0036,0.01411 0.0035,0.01058 0.0035,0.01411 0.0035,0.01418 0.0036,0.01411 0.0035,0.0176 0.0035,0.0176 0.0036,0.01767 0.0035,0.0176 0.0035,0.01771 0.0035,0.02469 0.0036,0.02462 v 0.03178 l 0.0035,0.06699 v 0.208209 l -0.0035,0.06699 v 0.03531 l -0.0036,0.0211 -0.0035,0.02469 -0.0035,0.01771 -0.0035,0.0211 -0.0036,0.01411 -0.0035,0.01767 -0.0035,0.0176 -0.0036,0.01411 -0.0035,0.01411 -0.0035,0.01767 -0.0035,0.01062 -0.0036,0.01058 -0.0035,0.01051 -0.0035,0.01411 -0.0036,0.01058 -0.0035,0.01411 -0.0035,0.01058 -0.0035,0.01062 -0.0036,0.01058 -0.0035,0.01062 -0.0035,0.007 -0.0035,0.01062 -0.0036,0.01058 -0.0035,0.01058 -0.0035,0.007 -0.0036,0.01058 -0.0035,0.0071 -0.0035,0.01058 v 0.007 l -0.0035,0.01058 -0.0036,0.0035 -0.0035,0.0071 -0.0035,0.01062 -0.0036,0.007 -0.0035,0.0071 -0.0035,0.01058 -0.0035,0.007 -0.0036,0.0071 -0.0035,0.007 -0.0035,0.01062 -0.0035,0.0071 -0.0036,0.01051 -0.0035,0.0036 -0.0035,0.007 -0.0036,0.0071 -0.0035,0.007 -0.0035,0.0071 -0.0035,0.0071 -0.0036,0.007 -0.0035,0.0071 -0.0035,0.0035 -0.0036,0.007 -0.0035,0.0071 -0.0035,0.0071 -0.0035,0.007 -0.0036,0.0071 v 0.0035 l -0.0035,0.0071 -0.0035,0.0035 -0.0035,0.0035 -0.0036,0.0071 -0.0035,0.007 -0.0035,0.0071 -0.0036,0.0035 -0.0035,0.0071 -0.0035,0.0035 -0.0035,0.007 -0.0036,0.0036 -0.0035,0.007 -0.0035,0.0036 -0.0036,0.0035 -0.0035,0.007 -0.0035,0.0036 -0.0035,0.007 -0.0036,0.0035 -0.0035,0.0071 -0.0035,0.0035 -0.0035,0.0036 -0.0036,0.0035 -0.0035,0.007 -0.0035,0.0036 -0.0036,0.007 -0.0035,0.0071 -0.0035,0.0035 v 0.0071 l -0.0035,0.0035 -0.0036,0.0035 -0.0035,0.0071 -0.0035,0.0035 -0.0036,0.0071 -0.0035,0.0035 -0.0035,0.0035 -0.0035,0.0035 -0.0036,0.0071 -0.0035,0.0035 -0.0035,0.0036 h -0.0035 l -0.0036,0.007 -0.0035,0.0035 -0.0035,0.0036 -0.0036,0.0035 -0.0035,0.0035 -0.0035,0.0035 -0.0035,0.0036 -0.0036,0.0035 -0.0035,0.0071 -0.0035,0.0035 -0.0036,0.0035 -0.0035,0.0035 -0.0035,0.0036 -0.0035,0.0035 -0.0036,0.0071 -0.0035,0.0035 v 0.0035 l -0.0035,0.0035 -0.0036,0.0036 -0.0035,0.0035 -0.0035,0.0035 -0.0035,0.0035 -0.0036,0.0036 -0.0035,0.0035 -0.0035,0.0035 -0.0035,0.0036 -0.0036,0.0035 -0.0035,0.0035 -0.0035,0.0035 -0.0036,0.0071 -0.0035,0.0035 -0.0035,0.0036 -0.0035,0.0035 -0.0036,0.0035 -0.0035,0.0035 -0.0035,0.0036 -0.0035,0.0035 -0.0071,0.0035 -0.0035,0.0035 -0.0036,0.0036 -0.0035,0.0035 -0.0035,0.0035 -0.0035,0.0036 -0.0036,0.0035 -0.0035,0.0035 -0.0035,0.0035 -0.0036,0.0036 -0.0035,0.0035 -0.0035,0.0035 -0.0035,0.0036 -0.0036,0.0035 -0.0035,0.0035 h -0.0035 l -0.0035,0.0035 -0.0071,0.0036 -0.0035,0.0035 -0.0036,0.0035 -0.0035,0.0035 -0.0035,0.0036 -0.0035,0.0035 -0.0071,0.0035 -0.0035,0.0036 -0.0036,0.0035 -0.0035,0.0035 -0.0035,0.0035 -0.0035,0.0036 -0.0036,0.0035 -0.0035,0.0035 -0.0035,0.0036 -0.0035,0.0035 -0.0036,0.0035 -0.0035,0.0035 -0.0071,0.0036 -0.0035,0.0035 -0.0035,0.0035 -0.0035,0.0035 -0.0071,0.0036 -0.0035,0.0035 -0.0071,0.0035 -0.0035,0.0036 -0.0035,0.0035 h -0.0071 l -0.0071,0.0035 -0.0035,0.0035 -0.007,0.0036 -0.0036,0.0035 -0.007,0.0035 -0.0035,0.0036 -0.0071,0.0035 v 0.0035 l -0.0071,0.0035 -0.0035,0.0036 -0.007,0.0035 -0.0036,0.0035 -0.007,0.0035 -0.0035,0.0036 -0.0036,0.0035 -0.007,0.0035 -0.0036,0.0036 -0.007,0.0035 -0.0035,0.0035 -0.0071,0.0035 -0.0035,0.0036 -0.0071,0.0035 -0.007,0.0035 -0.0071,0.0036 -0.0035,0.0035 -0.0035,0.0035 -0.0071,0.0035 h -0.0071 l -0.0035,0.0036 -0.007,0.0035 -0.0071,0.0035 -0.0071,0.0035 -0.007,0.0036 -0.0035,0.0035 -0.0071,0.0035 -0.0071,0.0036 -0.007,0.0035 -0.0071,0.0035 -0.007,0.0035 -0.0071,0.0036 -0.007,0.0035 -0.0036,0.0035 -0.01048,0.0036 -0.0071,0.0035 -0.01058,0.0035 -0.007,0.0035 -0.0071,0.0036 -0.007,0.0035 -0.01062,0.0035 -0.0071,0.0035 -0.007,0.0036 -0.01062,0.0035 -0.0071,0.0035 -0.0035,0.0036 -0.01062,0.0035 -0.007,0.0035 h -0.0071 l -0.01062,0.0035 -0.007,0.0036 -0.01062,0.0035 -0.01058,0.0035 -0.01062,0.0036 -0.01058,0.0035 -0.01062,0.0035 -0.007,0.0035 -0.01062,0.0036 -0.01058,0.0035 -0.01062,0.0035 -0.01408,0.0035 -0.01062,0.0036 -0.01048,0.0035 -0.01422,0.0035 -0.01051,0.0036 -0.01408,0.0035 -0.01422,0.0035 -0.01408,0.0035 -0.01411,0.0036 -0.0176,0.0035 -0.01771,0.0035 -0.01408,0.0036 -0.02113,0.0035 -0.01767,0.0035 -0.02469,0.0035 -0.02822,0.0036 -0.05641,0.0035 h -0.03877 -0.204717 -0.0423 l -0.05288,-0.0035 -0.03171,-0.0036 -0.0212,-0.0035 -0.0212,-0.0035 -0.0176,-0.0035 -0.01771,-0.0036 -0.01757,-0.0035 -0.0176,-0.0035 -0.01422,-0.0036 -0.01411,-0.0035 -0.01408,-0.0035 -0.01411,-0.0035 -0.01058,-0.0036 -0.01062,-0.0035 -0.01411,-0.0035 -0.01048,-0.0036 -0.01422,-0.0035 -0.01048,-0.0035 -0.01062,-0.0035 -0.0071,-0.0036 -0.01062,-0.0035 -0.01048,-0.0035 -0.01062,-0.0035 -0.01058,-0.0036 -0.01062,-0.0035 -0.007,-0.0035 -0.01062,-0.0036 -0.0071,-0.0035 h -0.01058 l -0.0035,-0.0035 -0.01062,-0.0035 -0.007,-0.0036 -0.0071,-0.0035 -0.01058,-0.0035 -0.007,-0.0036 -0.0071,-0.0035 -0.01058,-0.0035 -0.007,-0.0035 -0.0071,-0.0036 -0.007,-0.0035 -0.01062,-0.0035 -0.0071,-0.0035 -0.007,-0.0036 -0.0071,-0.0035 -0.007,-0.0035 -0.0071,-0.0036 -0.0071,-0.0035 -0.007,-0.0035 -0.0071,-0.0035 -0.007,-0.0036 -0.0071,-0.0035 -0.0035,-0.0035 -0.0071,-0.0036 -0.007,-0.0035 -0.0071,-0.0035 -0.007,-0.0035 -0.0036,-0.0036 h -0.0035 l -0.007,-0.0035 -0.0071,-0.0035 -0.0035,-0.0035 -0.0071,-0.0036 -0.007,-0.0035 -0.0036,-0.0035 -0.007,-0.0036 -0.0071,-0.0035 -0.0035,-0.0035 -0.0071,-0.0035 -0.0035,-0.0036 -0.007,-0.0035 -0.0036,-0.0035 -0.0035,-0.0036 -0.0071,-0.0035 -0.0035,-0.0035 -0.0035,-0.0035 -0.0035,-0.0036 -0.0071,-0.0035 -0.0035,-0.0035 -0.0071,-0.0035 -0.0035,-0.0036 -0.0071,-0.0035 -0.0035,-0.0035 -0.007,-0.0036 -0.0036,-0.0035 -0.007,-0.0035 h -0.0071 l -0.0035,-0.0035 -0.0035,-0.0036 -0.0071,-0.0035 -0.0035,-0.0035 -0.0035,-0.0036 -0.0071,-0.0035 -0.0035,-0.0035 v -0.0035 l -0.0071,-0.0036 -0.0035,-0.0035 -0.0035,-0.0035 -0.0036,-0.0035 -0.0035,-0.0036 -0.0035,-0.0035 -0.0035,-0.0035 -0.0071,-0.0036 -0.0035,-0.0035 -0.0036,-0.0035 -0.0035,-0.0035 -0.0035,-0.0036 -0.0071,-0.0035 -0.0035,-0.0035 -0.0035,-0.0036 -0.0036,-0.0035 -0.0035,-0.0035 -0.0035,-0.0035 -0.0071,-0.0036 -0.0035,-0.0035 h -0.0035 l -0.0035,-0.0035 -0.0036,-0.0035 -0.0035,-0.0036 -0.0035,-0.0035 v -0.0035 l -0.0036,-0.0036 -0.0035,-0.0035 -0.007,-0.0035 -0.0036,-0.0035 -0.0035,-0.0036 -0.0035,-0.0035 -0.0036,-0.0035 -0.0035,-0.0036 -0.0035,-0.0035 -0.0071,-0.0035 -0.0035,-0.0035 -0.0035,-0.0036 -0.0036,-0.0035 -0.0035,-0.0035 -0.0035,-0.0071 -0.0035,-0.0035 -0.0036,-0.0035 -0.0035,-0.0036 -0.0035,-0.0035 -0.0035,-0.0035 -0.0036,-0.0035 -0.0035,-0.0036 -0.0035,-0.0035 -0.0036,-0.0035 -0.0035,-0.0036 -0.0035,-0.0035 v -0.0035 l -0.0035,-0.0035 -0.0036,-0.0036 -0.0035,-0.0035 -0.0035,-0.0035 -0.0036,-0.0035 -0.0035,-0.0071 -0.0035,-0.0035 -0.0035,-0.0036 -0.0036,-0.0035 -0.0035,-0.0035 -0.0035,-0.0035 -0.0035,-0.0071 -0.0036,-0.0035 -0.0035,-0.0036 -0.0035,-0.0035 -0.0036,-0.0035 -0.0035,-0.0035 -0.0035,-0.0036 -0.0035,-0.0035 -0.0036,-0.007 h -0.0035 l -0.0035,-0.0036 -0.0035,-0.0035 -0.0036,-0.0071 -0.0035,-0.0035 -0.0035,-0.0035 -0.0036,-0.0071 -0.0035,-0.0035 v -0.0035 l -0.0035,-0.0071 -0.0035,-0.0035 -0.0036,-0.0071 -0.0035,-0.007 -0.0035,-0.0035 -0.0036,-0.0036 -0.0035,-0.007 -0.0035,-0.0036 -0.0035,-0.007 -0.0036,-0.0035 -0.0035,-0.0036 -0.0035,-0.0035 -0.0035,-0.0071 -0.0036,-0.0035 -0.0035,-0.007 -0.0035,-0.0036 -0.0036,-0.007 -0.0035,-0.0035 -0.0035,-0.0036 -0.0035,-0.007 -0.0036,-0.0036 -0.0035,-0.007 -0.0035,-0.0035 -0.0036,-0.0071 -0.0035,-0.0071 v -0.0035 l -0.0035,-0.007 -0.0035,-0.0071 -0.0036,-0.0035 -0.0035,-0.0035 -0.0035,-0.0071 -0.0035,-0.0035 -0.0036,-0.0071 -0.0035,-0.007 -0.0035,-0.0071 -0.0036,-0.0071 -0.0035,-0.007 -0.0035,-0.0035 -0.0035,-0.0071 -0.0036,-0.007 -0.0035,-0.0071 -0.0035,-0.0071 -0.0036,-0.007 -0.0035,-0.0071 -0.0035,-0.007 -0.0035,-0.0071 -0.0036,-0.007 -0.0035,-0.0071 -0.0035,-0.01062 -0.0036,-0.007 -0.0035,-0.0071 -0.0035,-0.007 -0.0035,-0.01058 -0.0036,-0.0071 -0.0035,-0.007 v -0.01062 l -0.0035,-0.0071 -0.0035,-0.0035 -0.0036,-0.01058 -0.0035,-0.007 -0.0035,-0.01058 -0.0036,-0.0071 -0.0035,-0.01058 -0.0035,-0.007 -0.0035,-0.01058 -0.0036,-0.01058 -0.0035,-0.01062 -0.0035,-0.007 -0.0035,-0.01062 -0.0036,-0.01058 -0.0035,-0.01062 -0.0035,-0.01058 -0.0036,-0.01411 -0.0035,-0.01058 -0.0035,-0.01411 -0.0035,-0.01051 -0.0036,-0.01058 -0.0035,-0.01411 -0.0035,-0.01418 -0.0036,-0.01411 -0.0035,-0.01411 -0.0035,-0.0176 -0.0035,-0.01767 -0.0036,-0.01411 v -0.0211 l -0.0035,-0.0212 -0.0035,-0.02822 -0.0035,-0.03877 -0.0036,-0.03531 -0.0035,-0.0423 v -0.208209 l 0.0035,-0.0423 0.0036,-0.03528 0.0035,-0.0388 0.0035,-0.02822 0.0035,-0.0212 v -0.0176 l 0.0036,-0.01767 0.0035,-0.0176 0.0035,-0.0176 0.0035,-0.01411 0.0036,-0.01418 0.0035,-0.01411 0.0035,-0.01058 0.0036,-0.01411 0.0035,-0.01051 0.0035,-0.01418 0.0035,-0.01051 0.0036,-0.01418 0.0035,-0.01051 0.0035,-0.01062 0.0036,-0.0071 0.0035,-0.01058 0.0035,-0.01051 0.0035,-0.01058 0.0036,-0.01062 0.0035,-0.01058 0.0035,-0.007 0.0035,-0.01058 0.0036,-0.0071 0.0035,-0.01062 0.0035,-0.0035 0.0036,-0.01062 0.0035,-0.007 0.0035,-0.0071 v -0.01062 l 0.0035,-0.007 0.0036,-0.0071 0.0035,-0.01062 0.0035,-0.007 0.0035,-0.0071 0.0036,-0.007 0.0035,-0.01062 0.0035,-0.0071 0.0036,-0.0035 0.0035,-0.0071 0.0035,-0.01051 0.0035,-0.0071 0.0036,-0.0071 0.0035,-0.007 0.0035,-0.0071 0.0036,-0.007 0.0035,-0.0071 0.0035,-0.0035 0.0035,-0.0071 0.0036,-0.007 0.0035,-0.0071 0.0035,-0.007 0.0036,-0.0036 0.0035,-0.0035 0.0035,-0.007 0.0035,-0.0071 0.0036,-0.0035 0.0035,-0.0071 0.0035,-0.007 v -0.0036 l 0.0035,-0.007 0.0036,-0.0071 0.0035,-0.0035 0.0035,-0.0071 0.0036,-0.0035 0.0035,-0.007 0.0035,-0.0036 0.0035,-0.0035 0.0036,-0.007 0.0035,-0.0036 0.0035,-0.0035 0.0036,-0.0035 0.0035,-0.0071 0.0035,-0.0035 0.0035,-0.0071 0.0036,-0.0035 0.0035,-0.0071 0.0035,-0.0035 0.0035,-0.007 0.0036,-0.0036 0.0035,-0.0035 0.0035,-0.007 0.0036,-0.0071 0.0035,-0.0035 0.0035,-0.0071 v -0.0035 l 0.0035,-0.0035 0.0036,-0.0071 0.0035,-0.0035 0.0035,-0.0036 0.0036,-0.0035 0.0035,-0.0035 0.0035,-0.0035 0.0035,-0.0036 0.0036,-0.007 0.0035,-0.0035 0.0035,-0.0036 0.0035,-0.0035 0.0036,-0.0035 0.0035,-0.0036 0.0035,-0.0035 0.0036,-0.0035 0.0035,-0.0071 0.0035,-0.0035 0.0035,-0.0035 0.0036,-0.0036 0.0035,-0.0035 0.0035,-0.0035 0.0035,-0.0071 0.0036,-0.0035 0.0035,-0.0035 0.0035,-0.0035 0.0036,-0.0036 0.0035,-0.0035 v -0.0035 l 0.0035,-0.0036 h 0.0035 l 0.0036,-0.0035 0.0035,-0.007 0.0035,-0.0036 0.0036,-0.0035 0.0035,-0.0035 0.0035,-0.0036 0.0035,-0.0035 0.0036,-0.0035 0.0035,-0.0035 0.0035,-0.0071 0.0035,-0.0035 0.0036,-0.0035 0.0035,-0.0036 0.0035,-0.0035 0.0071,-0.0035 0.0035,-0.0036 0.0035,-0.0035 0.0036,-0.0035 0.0035,-0.0035 0.0035,-0.0036 0.0036,-0.0035 0.007,-0.0035 0.0035,-0.0036 0.0036,-0.0035 v -0.0035 l 0.0035,-0.0035 h 0.0035 l 0.0036,-0.0036 0.0035,-0.0035 0.0035,-0.0035 0.0035,-0.0035 0.0071,-0.0036 0.0035,-0.0035 0.0035,-0.0035 0.0036,-0.0036 0.0035,-0.0035 0.0035,-0.0035 0.0071,-0.0035 0.0035,-0.0036 0.0035,-0.0035 0.0036,-0.0035 0.0035,-0.0036 0.0071,-0.0035 0.0035,-0.0035 0.0035,-0.0035 0.0035,-0.0036 0.0036,-0.0035 0.0035,-0.0035 0.0035,-0.0035 0.0071,-0.0036 v -0.0035 l 0.0035,-0.0035 0.0071,-0.0036 0.0035,-0.0035 0.0035,-0.0035 h 0.0071 l 0.0035,-0.0035 0.0035,-0.0036 0.0071,-0.0035 0.007,-0.0035 0.0036,-0.0036 0.007,-0.0035 0.0035,-0.0035 0.0071,-0.0035 0.0035,-0.0036 0.0071,-0.0035 0.0035,-0.0035 0.0071,-0.0035 0.0035,-0.0036 0.0035,-0.0035 0.0035,-0.0035 0.0071,-0.0036 0.0035,-0.0035 0.0036,-0.0035 0.007,-0.0035 0.0035,-0.0036 0.0071,-0.0035 0.0035,-0.0035 0.0071,-0.0036 0.007,-0.0035 0.0036,-0.0035 0.007,-0.0035 h 0.0071 l 0.0035,-0.0036 0.0071,-0.0035 0.007,-0.0035 0.0035,-0.0035 0.0036,-0.0036 0.007,-0.0035 0.0071,-0.0035 0.007,-0.0036 0.0071,-0.0035 0.0035,-0.0035 0.0071,-0.0035 0.007,-0.0036 0.0071,-0.0035 0.007,-0.0035 0.0071,-0.0036 0.0071,-0.0035 0.007,-0.0035 0.0071,-0.0035 0.007,-0.0036 0.0071,-0.0035 0.01062,-0.0035 0.007,-0.0035 0.0071,-0.0036 0.007,-0.0035 0.01058,-0.0035 0.0071,-0.0036 0.007,-0.0035 0.01058,-0.0035 h 0.0071 l 0.007,-0.0035 0.01062,-0.0036 0.0035,-0.0035 0.01058,-0.0035 0.0071,-0.0036 0.01062,-0.0035 0.007,-0.0035 0.01062,-0.0035 0.01058,-0.0036 0.01062,-0.0035 0.01048,-0.0035 0.01062,-0.0035 0.0071,-0.0036 0.01062,-0.0035 0.01048,-0.0035 0.01422,-0.0036 0.01048,-0.0035 0.01411,-0.0035 0.01062,-0.0035 0.01058,-0.0036 0.01411,-0.0035 0.01408,-0.0035 0.01411,-0.0036 0.01422,-0.0035 0.0176,-0.0035 0.01757,-0.0035 0.01771,-0.0036 0.0176,-0.0035 h 0.0212 l 0.0212,-0.0035 0.03171,-0.0035 0.05288,-0.0036 z m -1.27,1.591098 v 0 -0.03528 c 0,-0.772618 0.638492,-1.404126 1.414709,-1.404126 h 0.007 c 0.426896,0 0.769091,0.194028 0.984321,0.409223 0.127,0.127 0.200977,0.236396 0.285679,0.405694 0.06699,0.130598 0.134091,0.363396 0.134091,0.560987 v 0.07401 c 0,0.194098 -0.0635,0.430389 -0.130599,0.557389 -0.0846,0.169404 -0.158679,0.278694 -0.282186,0.405694 -0.127,0.123508 -0.236291,0.197626 -0.405695,0.282223 -0.130492,0.0671 -0.36329,0.130598 -0.560917,0.130598 h -0.06699 c -0.345687,0 -0.666785,-0.158821 -0.857285,-0.314008 -0.05641,-0.04939 -0.09871,-0.09169 -0.148096,-0.141111 -0.05302,-0.05288 -0.08823,-0.109396 -0.130599,-0.165805 -0.03881,-0.0459 -0.07761,-0.127 -0.105798,-0.186973 -0.0176,-0.03171 -0.03172,-0.0635 -0.04593,-0.102305 -0.007,-0.01411 -0.03168,-0.102306 -0.03517,-0.105798 0,-0.03531 -0.03531,-0.123508 -0.03881,-0.176424 -0.0071,-0.0635 -0.01771,-0.11998 -0.01771,-0.193993 z m 0.719702,-0.391583 v 0 h -0.497417 c -0.02117,0.09169 -0.05288,0.208104 -0.05288,0.3175 v 0.09518 c 0,0.109397 0.03171,0.225813 0.05288,0.3175 h 0.500909 l -0.02819,-0.387985 z m 1.2065,0.730179 v 0 c 0,-0.02819 0.01058,-0.05637 0.01058,-0.0846 0,-0.01767 0.0035,-0.07059 0.007,-0.08819 0.0071,-0.0459 0.0071,-0.130599 0.0071,-0.18348 v -0.07412 l -0.0212,-0.29979 h -1.033604 l -0.02469,0.3175 0.0035,0.09518 c 0,0.05652 0.0071,0.112924 0.0071,0.162313 0,0.05292 0.0176,0.109397 0.0176,0.155187 h 1.026584 z m -0.0247,0.158821 v 0 c -0.0035,0.102305 -0.109396,0.373909 -0.151694,0.4445 -0.03531,0.0635 -0.07063,0.123402 -0.11991,0.17279 -0.03891,0.03881 -0.127,0.102306 -0.19759,0.102306 h -0.01411 c -0.165806,0 -0.282187,-0.158715 -0.338702,-0.264513 -0.05641,-0.112889 -0.133985,-0.306987 -0.151695,-0.455083 z m -1.615722,0 v 0 c 0.08463,0.176389 0.162207,0.271603 0.296333,0.398603 0.08819,0.08819 0.296298,0.222286 0.437374,0.254 -0.07048,-0.09881 -0.116381,-0.172896 -0.165805,-0.296298 -0.04579,-0.116416 -0.07398,-0.225813 -0.105799,-0.356305 z m 1.524,0.652603 v 0 c 0.03172,-0.01411 0.09172,-0.03531 0.127,-0.04942 0.03521,-0.01408 0.0811,-0.03877 0.112924,-0.05997 0.0811,-0.04932 0.123402,-0.08812 0.197485,-0.144604 0.05652,-0.0423 0.120015,-0.123507 0.165806,-0.183409 0.02819,-0.03531 0.116416,-0.169404 0.127,-0.215194 H 78.50059 c -0.0176,0 -0.02113,0.07048 -0.02822,0.09169 -0.01058,0.02469 -0.01408,0.06001 -0.02469,0.08819 -0.0176,0.06001 -0.03531,0.116417 -0.06001,0.172826 -0.0211,0.05648 -0.04579,0.105869 -0.07398,0.158785 -0.01062,0.0247 -0.0847,0.137584 -0.08823,0.141111 z m 0.275131,-1.700424 v 0 h 0.455084 c -0.01058,-0.0423 -0.09881,-0.179881 -0.127,-0.215194 -0.04579,-0.0599 -0.109291,-0.141076 -0.165806,-0.183409 -0.07408,-0.05648 -0.116381,-0.09529 -0.197485,-0.144674 -0.03182,-0.0211 -0.07772,-0.04583 -0.112924,-0.0599 -0.03528,-0.01411 -0.09528,-0.03531 -0.127,-0.04942 0.0035,0.0035 0.07761,0.119909 0.08823,0.141111 0.02819,0.05292 0.05288,0.102305 0.07398,0.158715 0.0247,0.05648 0.0424,0.112888 0.06001,0.172896 0.01062,0.03178 0.01411,0.06001 0.02469,0.09169 0.0035,0.01411 0.01411,0.08819 0.02822,0.08819"
       style="fill:#ffffff;fill-opacity:1;fill-rule:evenodd;stroke:none;stroke-width:0.352778"
       id="path60" />
  </g>
</svg>
