<?xml version="1.0" encoding="UTF-8" standalone="no"?>
<!-- Created with Inkscape (http://www.inkscape.org/) -->

<svg
   width="32.275291mm"
   height="32.752865mm"
   viewBox="0 0 32.275291 32.752865"
   version="1.1"
   id="svg545"
   inkscape:version="1.2.2 (b0a8486541, 2022-12-01)"
   sodipodi:docname="main_icon.svg"
   xmlns:inkscape="http://www.inkscape.org/namespaces/inkscape"
   xmlns:sodipodi="http://sodipodi.sourceforge.net/DTD/sodipodi-0.dtd"
   xmlns="http://www.w3.org/2000/svg"
   xmlns:svg="http://www.w3.org/2000/svg">
  <sodipodi:namedview
     id="namedview547"
     pagecolor="#ffffff"
     bordercolor="#000000"
     borderopacity="0.25"
     inkscape:showpageshadow="2"
     inkscape:pageopacity="0.0"
     inkscape:pagecheckerboard="0"
     inkscape:deskcolor="#d1d1d1"
     inkscape:document-units="mm"
     showgrid="false"
     inkscape:zoom="3.9408307"
     inkscape:cx="76.126082"
     inkscape:cy="85.261212"
     inkscape:window-width="1920"
     inkscape:window-height="1011"
     inkscape:window-x="0"
     inkscape:window-y="0"
     inkscape:window-maximized="1"
     inkscape:current-layer="layer1" />
  <defs
     id="defs542" />
  <g
     inkscape:label="Layer 1"
     inkscape:groupmode="layer"
     id="layer1"
     transform="translate(-76.15288,-105.53841)">
    <path
       d="m 101.63883,123.2334 c -0.56208,0.065 -0.635,0.3392 -0.61337,0.55041 0.17949,1.75517 5.15387,-0.21971 4.4861,-2.1409 -0.12922,-0.36809 -0.53323,-0.45491 -0.76003,-0.2661 -0.25347,0.21099 -0.31178,0.61789 -0.47907,0.802 -0.65631,0.72228 -1.5755,0.932 -2.63363,1.05459"
       style="fill:#9f531b;fill-opacity:1;fill-rule:evenodd;stroke:none;stroke-width:0.352778"
       id="path20" />
    <path
       d="m 101.69274,123.2213 c -0.39201,0.0454 -0.5334,0.0969 -0.51569,0.24399 0.13871,1.1479 4.2454,-0.4305 3.9268,-1.93898 -0.0902,-0.25682 -0.23749,-0.20662 -0.39571,-0.0749 -0.17681,0.14722 -0.27418,0.63292 -0.85259,1.05834 -0.57831,0.42538 -1.42459,0.62607 -2.16281,0.71158"
       style="fill:#f57c3f;fill-opacity:1;fill-rule:evenodd;stroke:none;stroke-width:0.352778"
       id="path22" />
    <path
       d="m 89.293835,131.6008 c -0.691374,0.3478 -0.01048,2.95501 -2.559297,2.29478 0,0 -0.164183,0.42542 -0.217699,0.56293 0.01591,1.52548 0.938001,1.18248 2.590694,0.8479 1.652729,-0.3345 2.917825,-3.6692 2.917825,-3.6692 z"
       style="fill:#502713;fill-opacity:1;fill-rule:evenodd;stroke:none;stroke-width:0.352778"
       id="path24" />
    <path
       d="m 87.472232,134.04618 -0.830298,0.004 c -0.260879,0.4269 -0.380683,0.31832 0.0109,1.2753 0.05733,0.1403 0.202706,0.3683 0.369217,0.39183 0.166511,0.0235 0.999102,-0.32992 0.999102,-0.32992 l -0.03309,0.2541 c 0,0 -0.61602,0.44249 -0.701922,0.5207 -0.81608,0.74271 -1.04341,1.69418 -1.583196,1.98 -1.165683,0.61708 -3.345003,-0.79099 -2.778301,-2.21399 0.983015,-2.46811 4.085202,-3.23371 4.547588,-1.88183"
       style="fill:#502713;fill-opacity:1;fill-rule:evenodd;stroke:none;stroke-width:0.352778"
       id="path26" />
    <path
       d="m 87.230861,133.96261 c -0.04932,0.0415 -0.308222,0.022 -0.350414,0.0727 -0.440514,0.53012 -0.362691,1.34433 0.377508,1.53642 0.135008,0.035 0.498192,-0.002 0.498192,-0.002 l 0.08541,0.0684 c 0,0 -0.510822,0.367 -0.582119,0.43191 -0.676804,0.61588 -0.958497,1.52347 -1.406172,1.76046 -0.966823,0.51192 -2.681111,-0.77448 -2.210999,-1.9546 0.497275,-1.24858 2.253191,-2.75226 3.588596,-1.91357"
       style="fill:#f57c3f;fill-opacity:1;fill-rule:evenodd;stroke:none;stroke-width:0.352778"
       id="path28" />
    <path
       d="m 86.298046,137.3593 c -0.144215,0.21399 -0.28381,0.38618 -0.444782,0.47148 -0.966823,0.51192 -2.681111,-0.77448 -2.210999,-1.9546 0.0629,-0.15786 0.131586,-0.30469 0.205775,-0.44157 0.469723,-0.054 1.01159,0.0811 1.491297,0.41208 0.572418,0.3949 0.915423,0.97169 0.958709,1.51261"
       style="fill:#fbc434;fill-opacity:1;fill-rule:evenodd;stroke:none;stroke-width:0.352778"
       id="path30" />
    <path
       d="m 85.559365,135.19419 c 0.09737,0.0672 0.121885,0.2008 0.05468,0.29831 -0.06731,0.0975 -0.200907,0.12199 -0.298309,0.0547 -0.09747,-0.0672 -0.12199,-0.20076 -0.05479,-0.29827 0.06731,-0.0975 0.200907,-0.12203 0.298415,-0.0547"
       style="fill:#502713;fill-opacity:1;fill-rule:evenodd;stroke:none;stroke-width:0.352778"
       id="path32" />
    <path
       d="m 86.712948,136.4207 c 0.0707,0.0487 0.07341,0.16728 0.0062,0.26479 -0.06731,0.0975 -0.179105,0.13702 -0.249802,0.0882 -0.0707,-0.0487 -0.07341,-0.16729 -0.0062,-0.2648 0.06731,-0.0975 0.179105,-0.13698 0.249802,-0.0882"
       style="fill:#502713;fill-opacity:1;fill-rule:evenodd;stroke:none;stroke-width:0.352778"
       id="path34" />
    <path
       d="m 86.031452,134.9065 c 0.078,0.0539 0.09768,0.16091 0.04378,0.23901 -0.05387,0.078 -0.160867,0.0977 -0.238901,0.0438 -0.07807,-0.0539 -0.09768,-0.1609 -0.04389,-0.2389 0.05391,-0.0781 0.160902,-0.0977 0.239007,-0.0439"
       style="fill:#502713;fill-opacity:1;fill-rule:evenodd;stroke:none;stroke-width:0.352778"
       id="path36" />
    <path
       d="m 87.046147,135.98502 c 0.0781,0.0539 0.09768,0.1609 0.04381,0.2389 -0.05391,0.0781 -0.160902,0.0977 -0.238901,0.0439 -0.07811,-0.0539 -0.09772,-0.1609 -0.04381,-0.239 0.0538,-0.078 0.160796,-0.0977 0.238901,-0.0438"
       style="fill:#502713;fill-opacity:1;fill-rule:evenodd;stroke:none;stroke-width:0.352778"
       id="path38" />
    <path
       d="m 86.596461,135.46601 -0.87182,0.71589 0.143299,0.1511 0.886107,-0.67998 z"
       style="fill:#502713;fill-opacity:1;fill-rule:evenodd;stroke:none;stroke-width:0.352778"
       id="path40" />
    <path
       d="m 86.173833,135.69958 2.12e-4,1.1e-4 9.88e-4,0.001 c 0.200624,0.18249 0.336303,0.39981 0.393417,0.6035 0.0309,0.11038 0.03909,0.2172 0.0224,0.31348 l -0.105622,-0.0676 c 0.0045,-0.067 -0.0042,-0.13992 -0.02547,-0.21552 -0.05133,-0.18298 -0.174414,-0.3798 -0.357223,-0.54719 h -1.06e-4 l -0.0024,-0.002 -1.76e-4,-1e-4 1.05e-4,-1.1e-4 -0.0011,-8.8e-4 c -0.18468,-0.16799 -0.393595,-0.27312 -0.582084,-0.3072 l -0.01291,-0.002 -0.01559,-0.11649 c 0.01619,0.002 0.03242,0.005 0.04879,0.008 0.207327,0.0375 0.43561,0.15149 0.635811,0.33299 z"
       style="fill:#502713;fill-opacity:1;fill-rule:nonzero;stroke:none;stroke-width:0.352778"
       id="path42" />
    <path
       d="m 86.542063,135.3927 7e-5,1.1e-4 10e-4,9.9e-4 c 0.20059,0.18249 0.336303,0.3998 0.393383,0.60349 0.0309,0.11042 0.03912,0.21721 0.0224,0.31352 l -0.10548,-0.0676 c 0.0045,-0.067 -0.0043,-0.13991 -0.02551,-0.21551 -0.0514,-0.18298 -0.174519,-0.3798 -0.357294,-0.54719 v 0 l -0.0025,-0.002 -1.06e-4,-1.8e-4 v 0 l -0.0011,-9.2e-4 c -0.184608,-0.16799 -0.393594,-0.27308 -0.582118,-0.3072 l -0.01281,-0.002 -0.0157,-0.11653 c 0.01623,0.002 0.03242,0.005 0.04893,0.008 0.207293,0.0375 0.435469,0.15152 0.635671,0.33298 z"
       style="fill:#502713;fill-opacity:1;fill-rule:nonzero;stroke:none;stroke-width:0.352778"
       id="path44" />
    <path
       d="m 93.787342,131.80411 c 1.881505,0.52158 4.276689,1.53218 4.494106,3.5295 0,0 0.396205,0.0829 0.543208,0.0953 0.511175,0.0429 0.963189,-0.479 0.897078,-1.0099 -0.06198,-0.49742 -0.479389,-0.96852 -1.011872,-1.67852 -0.36442,-0.48567 -1.056005,-1.55317 -1.056005,-1.55317 z"
       style="fill:#502713;fill-opacity:1;fill-rule:evenodd;stroke:none;stroke-width:0.352778"
       id="path46" />
    <path
       d="m 98.29623,134.9706 c 0.187713,-1.27511 1.469108,-2.98139 2.7813,-2.6241 0.7385,0.20108 1.1793,0.49678 1.32031,0.90929 0.3387,0.9907 -0.2557,1.2925 -0.61571,1.93692 -0.64008,1.14558 -0.85517,2.59511 -2.087665,2.68499 -1.2325,0.0899 -1.585913,-1.63202 -1.398235,-2.9071"
       style="fill:#502713;fill-opacity:1;fill-rule:evenodd;stroke:none;stroke-width:0.352778"
       id="path48" />
    <path
       d="m 98.948234,134.6114 c 0.433317,-1.33999 1.940026,-2.433 3.025426,-1.80699 1.08528,0.6259 0.99088,2.08428 0.1083,2.96728 -0.88272,0.88311 -1.455,2.1542 -2.606606,1.91742 -1.217013,-0.2503 -0.960402,-1.73761 -0.52712,-3.07771"
       style="fill:#fbc434;fill-opacity:1;fill-rule:evenodd;stroke:none;stroke-width:0.352778"
       id="path50" />
    <path
       d="m 100.27436,117.7814 -10.903725,1.32729 0.457905,13.55432 10.95689,-1.50442 c 0.69691,-0.0907 1.05011,-0.13388 1.02831,-0.84359 l -0.37239,-12.0801 c -0.0108,-0.3477 -0.13099,-0.47689 -0.32921,-0.5376 -0.25051,-0.0768 -0.6005,0.0612 -0.83778,0.0841"
       style="fill:#f57c3f;fill-opacity:1;fill-rule:evenodd;stroke:none;stroke-width:0.352778"
       id="path52" />
    <path
       d="m 85.604661,117.4088 1.351598,0.6894 9.320494,-1.65489 -0.05309,-0.57192 -0.268499,-0.29379 z"
       style="fill:#e2db9f;fill-opacity:1;fill-rule:evenodd;stroke:none;stroke-width:0.352778"
       id="path54" />
    <path
       d="m 96.109537,115.2051 -0.697301,-0.4348 -9.925473,1.53169 0.384493,1.0558 z"
       style="fill:#fbc434;fill-opacity:1;fill-rule:evenodd;stroke:none;stroke-width:0.352778"
       id="path56" />
    <path
       d="m 86.512641,116.8102 -0.516996,-0.58398 0.960014,-0.156 0.378284,0.56818 z"
       style="fill:#f8a118;fill-opacity:1;fill-rule:evenodd;stroke:none;stroke-width:0.352778"
       id="path58" />
    <path
       d="m 85.426156,116.97432 0.220274,0.42097 10.34923,-1.73789 0.223591,0.21671 c 0.0093,-0.4143 0.115781,-0.8055 -0.514209,-0.71392 z"
       style="fill:#f57c3f;fill-opacity:1;fill-rule:evenodd;stroke:none;stroke-width:0.352778"
       id="path60" />
    <path
       d="m 86.62486,117.2408 -0.129611,-0.4536 0.776993,-0.1404 0.286209,0.44891 z"
       style="fill:#cd5f14;fill-opacity:1;fill-rule:evenodd;stroke:none;stroke-width:0.352778"
       id="path62" />
    <path
       d="m 86.652059,117.88289 c 0.04879,0.35299 1.596178,0.8683 1.9933,0.68542 l 10.715272,-1.0661 -0.165982,-0.09 c -0.09451,0.007 0.338102,0.0113 -0.287196,0.0113 -0.625193,0 -2.163198,-0.52419 -2.65042,-1.3032 z"
       style="fill:#ddd399;fill-opacity:1;fill-rule:evenodd;stroke:none;stroke-width:0.352778"
       id="path64" />
    <path
       d="m 86.284958,130.49999 c 0.0039,1.30531 2.023498,2.4553 2.682487,2.28452 L 88.240546,119.1015 c -1.325209,-0.1427 -2.900009,-1.07009 -3.580482,-2.29391 z"
       style="fill:#6a3516;fill-opacity:1;fill-rule:evenodd;stroke:none;stroke-width:0.352778"
       id="path66" />
    <path
       d="m 101.12145,117.69949 -0.95709,-0.42249 -11.587017,1.25278 0.760095,0.58163 c 0,0 11.775192,-1.41192 11.784012,-1.41192"
       style="fill:#fbc43b;fill-opacity:1;fill-rule:evenodd;stroke:none;stroke-width:0.352778"
       id="path68" />
    <path
       d="m 86.374035,117.7511 0.20902,0.13959 9.697297,-1.71838 -0.06181,-0.3011 z"
       style="fill:#c8c28d;fill-opacity:1;fill-rule:evenodd;stroke:none;stroke-width:0.352778"
       id="path70" />
    <path
       d="m 87.158154,118.14829 0.184996,0.0878 9.595803,-1.48552 -0.306,-0.21339 z"
       style="fill:#c3bf8d;fill-opacity:1;fill-rule:evenodd;stroke:none;stroke-width:0.352778"
       id="path72" />
    <path
       d="m 84.680631,116.70931 c -0.05228,0.19928 -0.01058,0.24779 0.11811,0.436 0.158891,0.23248 0.369217,0.46478 0.54811,0.62819 0.70919,0.64809 1.942607,1.2754 2.839791,1.48001 l 1.201914,-0.14221 -0.741715,-0.59831 c -0.147708,0 -0.496676,-0.004 -0.80959,-0.0963 -0.392818,-0.11582 -2.139915,-0.95441 -2.310695,-1.4285 l 0.559294,-0.11903 -0.601909,-0.5696 c -0.161678,0.0333 -0.814388,0.29291 -0.80331,0.40972"
       style="fill:#b16f40;fill-opacity:1;fill-rule:evenodd;stroke:none;stroke-width:0.352778"
       id="path74" />
    <path
       d="m 88.182232,119.2509 1.202831,-0.14418 0.632672,13.53167 -1.050396,0.14623 z"
       style="fill:#9f531b;fill-opacity:1;fill-rule:evenodd;stroke:none;stroke-width:0.352778"
       id="path76" />
    <path
       d="m 87.891543,119.44461 c -1.193588,-0.2643 -2.147781,-0.9362 -2.674196,-1.48132 0.944209,1.82912 2.232695,5.9484 3.157396,9.09662 z"
       style="fill:#502713;fill-opacity:1;fill-rule:evenodd;stroke:none;stroke-width:0.352778"
       id="path78" />
    <path
       d="m 89.354654,132.59849 0.492195,-0.0936 -0.382199,-4.16581 c -0.01069,-0.11698 -0.0014,0.86462 -0.004,1.06292 -0.01401,1.06969 -0.04452,2.1288 -0.10601,3.19648"
       style="fill:#b16f40;fill-opacity:1;fill-rule:evenodd;stroke:none;stroke-width:0.352778"
       id="path80" />
    <path
       d="m 87.030942,117.81061 -0.0087,-0.18172 -0.415925,-0.39691 1.173515,-0.19769 0.801405,0.4493 z"
       style="fill:#b8a662;fill-opacity:1;fill-rule:evenodd;stroke:none;stroke-width:0.352778"
       id="path82" />
    <path
       d="m 86.253949,115.05849 c 0,0.16732 0.706014,0.79872 0.842998,1.0687 0.277495,0.54691 0.328506,0.7965 0.328506,1.61311 l 1.425999,-0.24451 c 0.218581,-0.984 0.105092,-2.62541 -0.891399,-3.12377 -0.03482,-3.2e-4 -1.0172,0.77529 -1.706104,0.68647"
       style="fill:#f57c3f;fill-opacity:1;fill-rule:evenodd;stroke:none;stroke-width:0.352778"
       id="path84" />
    <path
       d="m 84.225159,114.2581 c -0.03002,0.0228 -0.125306,0.2164 -0.154622,0.29351 -0.175789,0.4614 -0.07038,1.4024 0.489514,1.53289 0.744397,0 1.021892,-0.22352 1.5252,-0.6677 -1.415592,0.49181 -0.986014,-1.18639 -0.966506,-1.32351 -0.182386,0.19229 -0.320287,0.4808 -0.389995,0.7803 -0.183692,-0.0428 -0.425486,-0.4591 -0.503591,-0.61549"
       style="fill:#f57c3f;fill-opacity:1;fill-rule:evenodd;stroke:none;stroke-width:0.352778"
       id="path86" />
    <path
       d="m 84.938441,116.3233 c 0.54931,-0.002 1.387016,-0.51319 1.751718,-0.72979 -0.0272,-0.10203 -0.310127,-0.2897 -0.429895,-0.29972 -0.173426,0.65003 -0.983509,0.8951 -1.321823,1.02951"
       style="fill:#502713;fill-opacity:1;fill-rule:evenodd;stroke:none;stroke-width:0.352778"
       id="path88" />
    <path
       d="m 84.055262,114.4105 c -0.06551,0.1723 -0.204506,0.62879 -0.171027,1.0075 0.05401,0.61048 0.441325,1.16628 1.341014,0.85058 0.215582,-0.0756 0.846384,-0.38618 1.106699,-0.86719 0.405483,0.18623 0.805215,0.9756 0.79061,2.39112 l 0.306494,-0.0522 c 0,-1.186 -0.234809,-1.97009 -1.17729,-2.6834 -0.520912,0.80091 -1.989032,1.60369 -2.19643,0.34159 -0.0199,-0.12068 -0.02339,-0.23449 -0.01108,-0.35637 0.02808,-0.27873 0.115887,-0.69353 0.181187,-0.7844 z"
       style="fill:#6a3516;fill-opacity:1;fill-rule:evenodd;stroke:none;stroke-width:0.352778"
       id="path90" />
    <path
       d="m 88.545064,116.60139 0.189689,-0.0934 c 0.0309,-0.4313 -0.08999,-0.76499 -0.254494,-1.1515 -0.07363,-0.17282 -0.407529,-0.7615 -0.57591,-0.7615 -0.01019,0 -0.260315,0.17529 -0.334186,0.19498 0.431376,0.4439 0.883885,1.42053 0.974901,1.8114"
       style="fill:#f79667;fill-opacity:1;fill-rule:evenodd;stroke:none;stroke-width:0.352778"
       id="path92" />
    <path
       d="m 105.48746,115.07041 -1.25402,-0.69229 c -0.16379,-0.0908 -0.17,-0.078 -0.18288,-0.26402 l -0.18122,-2.6072 -0.98598,1.78868 c -0.144,0.25983 -0.16813,0.23831 -0.42393,0.0946 l -0.91877,-0.5043 c -0.22112,-0.12252 -0.2141,-0.15381 -0.092,-0.37419 l 2.27041,-4.0864 c 0.11328,-0.20369 0.15628,-0.2497 0.35899,-0.13751 l 0.96251,0.5255 c 0.2328,0.1283 0.23647,0.147 0.1112,0.37941 l -0.9337,1.6855 2.21107,-1.11802 c 0.16133,-0.0815 0.1542,-0.0874 0.312,-7e-5 l 1.18583,0.65588 c 0.0606,0.0261 0.2535,0.1838 -0.0197,0.30572 l -2.54459,1.17327 0.35779,2.89062 c 0.012,0.0728 0.077,0.45138 -0.23298,0.2848 z m -25.635616,-3.93301 -0.613904,0.4869 2.187716,2.80522 c 0.181398,0.2322 0.252095,0.25929 0.01908,0.44086 l -0.789693,0.61564 c -0.2286,0.17847 -0.294393,0.22158 -0.472404,-0.006 l -2.224194,-2.85602 -0.711306,0.55394 c -0.159984,0.12417 -0.2141,0.0962 -0.340289,-0.0661 l -0.530401,-0.67521 c -0.09299,-0.10919 -0.07772,-0.21819 0.03108,-0.29358 0.906216,-0.7106 1.743216,-1.36882 2.649326,-2.07942 0.196003,-0.1537 0.247086,-0.18168 0.400085,0.014 l 0.50472,0.64742 c 0.176071,0.19748 0.10869,0.24218 -0.10982,0.41268 z m 7.010894,-2.01288 c 0.318417,0.71589 0.348615,1.41548 0.0895,2.09888 -0.273085,0.7251 -0.82169,1.27131 -1.644473,1.63739 -0.822713,0.36611 -1.596708,0.40911 -2.320714,0.12781 -0.681002,-0.2649 -1.181911,-0.75541 -1.500293,-1.4701 -0.318523,-0.71469 -0.347521,-1.41428 -0.08841,-2.09881 0.275484,-0.7263 0.825112,-1.27247 1.647896,-1.63859 0.822783,-0.36611 1.594485,-0.40791 2.316197,-0.12671 0.682096,0.265 1.181806,0.7554 1.500294,1.47013 z m -1.542204,0.68678 v 0 c -0.153388,-0.34628 -0.393876,-0.58219 -0.721677,-0.71 -0.316019,-0.12319 -0.633307,-0.11271 -0.951724,0.029 -0.319581,0.14178 -0.540385,0.37201 -0.662481,0.68919 -0.124319,0.32882 -0.10922,0.6659 0.0442,1.01222 0.154587,0.34629 0.395075,0.58339 0.722877,0.71007 0.317217,0.12203 0.635705,0.11152 0.955216,-0.0303 0.319617,-0.14171 0.538092,-0.37183 0.658989,-0.68792 0.124319,-0.32889 0.10922,-0.6659 -0.0454,-1.0123 z m 9.083816,1.08092 -0.916199,0.0697 c -0.231704,0.0185 -0.282998,0.0396 -0.327695,-0.1868 l -0.478826,-2.4385 -0.755579,2.5413 c -0.0756,0.23492 -0.06759,0.19943 -0.319193,0.21731 l -0.392924,0.0279 c -0.225884,0.0157 -0.221686,0.0474 -0.311397,-0.16002 l -1.086803,-2.42658 -0.133103,2.49699 c -0.01997,0.2382 -0.11377,0.2086 -0.350872,0.2261 l -0.870726,0.0633 c -0.326179,0.0225 -0.429578,0.043 -0.392677,-0.28487 l 0.367488,-4.73774 c 0.0181,-0.23428 0.03242,-0.24588 0.268217,-0.26239 l 1.257477,-0.0917 c 0.242005,-0.0174 0.255305,0.001 0.345792,0.22648 l 0.948302,2.36612 0.621101,-2.4347 c 0.05412,-0.21219 0.06763,-0.2945 0.28582,-0.30981 l 1.22428,-0.0863 c 0.335316,-0.0203 0.311327,-0.0241 0.370805,0.25799 l 0.991517,4.64291 c 0.0593,0.27869 -0.06361,0.263 -0.344805,0.28332 z m 5.82161,1.29808 c -0.354295,-0.0821 -0.700829,-0.162 -1.055018,-0.2443 -0.202812,-0.0501 -0.211278,-0.12189 -0.181892,-0.28261 l 0.616197,-2.64898 -2.407285,2.28459 c -0.166229,0.15759 -0.171803,0.14542 -0.394899,0.0938 l -1.039813,-0.23143 c -0.243487,-0.0446 -0.192687,-0.16647 -0.172896,-0.29947 l 1.068281,-4.61662 c 0.0332,-0.17558 0.07631,-0.27168 0.292806,-0.21199 l 1.055617,0.24402 c 0.268287,0.0624 0.283104,0.0758 0.214277,0.33408 l -0.611293,2.65719 c 0.829416,-0.79149 1.654316,-1.57737 2.483588,-2.36897 0.13582,-0.12961 0.13011,-0.10471 0.32692,-0.0593 l 0.98859,0.22539 c 0.23089,0.053 0.2933,0.0846 0.23601,0.3146 l -1.05791,4.59038 c -0.0395,0.2353 -0.13459,0.2721 -0.36128,0.21961"
       style="fill:#6a3516;fill-opacity:1;fill-rule:nonzero;stroke:none;stroke-width:0.352778"
       id="path94" />
    <path
       d="m 89.079946,118.10899 8.346792,-1.0874 -0.169403,-0.0886 z"
       style="fill:#c3bf8d;fill-opacity:1;fill-rule:evenodd;stroke:none;stroke-width:0.352778"
       id="path96" />
    <path
       d="m 91.747863,120.9431 c 0.755297,-0.0408 1.407689,0.66259 1.456902,1.57088 0.04918,0.90834 -0.523523,1.67813 -1.27882,1.71902 -0.755297,0.0408 -1.407795,-0.66259 -1.456901,-1.57088 -0.04921,-0.90834 0.523487,-1.67813 1.278819,-1.71902"
       style="fill:#ddd399;fill-opacity:1;fill-rule:evenodd;stroke:none;stroke-width:0.352778"
       id="path98" />
    <path
       d="m 91.831436,124.17701 c 1.264497,-0.052 0.838906,-2.44231 -0.387597,-2.39179 -1.37668,0.0567 -0.822889,2.44168 0.387597,2.39179"
       style="fill:#502713;fill-opacity:1;fill-rule:evenodd;stroke:none;stroke-width:0.352778"
       id="path100" />
    <path
       d="m 91.178162,121.898 c 0.259292,-0.014 0.47879,0.14661 0.490291,0.3587 0.0115,0.21209 -0.189407,0.3954 -0.448698,0.40951 -0.259292,0.014 -0.47879,-0.14662 -0.490291,-0.35871 -0.0115,-0.21209 0.189371,-0.39539 0.448698,-0.4095"
       style="fill:#c8c28d;fill-opacity:1;fill-rule:evenodd;stroke:none;stroke-width:0.352778"
       id="path102" />
    <path
       d="m 91.739044,120.78079 c 0.427813,-0.0232 0.824794,0.16259 1.12081,0.48172 0.288678,0.31129 0.480589,0.75011 0.507294,1.24269 0.0266,0.49251 -0.116804,0.94961 -0.370205,1.29021 -0.259785,0.34918 -0.6344,0.5768 -1.062178,0.5999 -0.42792,0.0232 -0.824901,-0.16263 -1.120811,-0.48171 -0.288713,-0.3113 -0.480624,-0.75019 -0.507294,-1.2427 -0.0267,-0.49258 0.116805,-0.94961 0.370205,-1.29021 0.259786,-0.34918 0.634365,-0.5768 1.062179,-0.5999 z m 0.88339,0.70192 c -0.231387,-0.24941 -0.538303,-0.3949 -0.865787,-0.37723 -0.327483,0.0177 -0.616902,0.19551 -0.819996,0.46853 -0.209409,0.28148 -0.327802,0.66357 -0.305294,1.07929 0.02251,0.41571 0.181398,0.78281 0.419982,1.04009 0.231422,0.24942 0.538303,0.3949 0.865822,0.37723 0.327484,-0.0177 0.616903,-0.19551 0.819997,-0.46853 0.209373,-0.28148 0.327695,-0.66357 0.305188,-1.07929 -0.02251,-0.41581 -0.181293,-0.78281 -0.419912,-1.04009"
       style="fill:#9f531b;fill-opacity:1;fill-rule:nonzero;stroke:none;stroke-width:0.352778"
       id="path104" />
    <path
       d="m 94.791242,125.5592 0.968516,-1.31459 1.314591,0.94209 c -0.808884,-0.0831 -1.527316,-0.14231 -2.283107,0.3725"
       style="fill:#502713;fill-opacity:1;fill-rule:evenodd;stroke:none;stroke-width:0.352778"
       id="path106" />
    <path
       d="m 98.831253,120.2252 c 0.749688,0.10061 1.259487,0.91341 1.138378,1.8149 -0.120967,0.90159 -0.827193,1.55109 -1.576881,1.45041 -0.749688,-0.10072 -1.259487,-0.91352 -1.138414,-1.81501 0.121003,-0.90159 0.827229,-1.55098 1.576917,-1.4503"
       style="fill:#ddd399;fill-opacity:1;fill-rule:evenodd;stroke:none;stroke-width:0.352778"
       id="path108" />
    <path
       d="m 98.310341,123.41791 c 1.252008,0.18468 1.279595,-2.243 0.06519,-2.4221 -1.363098,-0.20112 -1.263685,2.24529 -0.06519,2.4221"
       style="fill:#502713;fill-opacity:1;fill-rule:evenodd;stroke:none;stroke-width:0.352778"
       id="path110" />
    <path
       d="m 98.093453,121.05708 c 0.257387,0.0345 0.443089,0.23333 0.414902,0.44383 -0.02829,0.21051 -0.259891,0.3531 -0.517207,0.3186 -0.257387,-0.0346 -0.443089,-0.2333 -0.414902,-0.4438 0.02829,-0.2105 0.259891,-0.3532 0.517207,-0.31863"
       style="fill:#c8c28d;fill-opacity:1;fill-rule:evenodd;stroke:none;stroke-width:0.352778"
       id="path112" />
    <path
       d="m 98.852843,120.06401 c 0.424709,0.057 0.780097,0.31359 1.011308,0.68228 0.225599,0.35962 0.332389,0.82662 0.266699,1.3155 -0.0657,0.48881 -0.291817,0.91112 -0.604308,1.1985 -0.320287,0.2946 -0.730779,0.44841 -1.155488,0.3913 -0.424603,-0.057 -0.779992,-0.31359 -1.011202,-0.68227 -0.225602,-0.35963 -0.332317,-0.82663 -0.2667,-1.31551 0.06569,-0.48892 0.291782,-0.91112 0.604308,-1.19849 0.320287,-0.29461 0.730779,-0.44831 1.155383,-0.39131 z m 0.736988,0.8544 c -0.180799,-0.28829 -0.45519,-0.48842 -0.780168,-0.5321 -0.32512,-0.0436 -0.64262,0.077 -0.893022,0.30738 -0.258304,0.23752 -0.445805,0.59079 -0.501191,1.0034 -0.05539,0.41272 0.03231,0.80292 0.218687,1.10021 0.180798,0.28818 0.455224,0.48839 0.780203,0.53199 0.32512,0.0437 0.64262,-0.077 0.893021,-0.30731 0.258269,-0.23759 0.44577,-0.59086 0.501192,-1.00347 0.05539,-0.41272 -0.03221,-0.80292 -0.218722,-1.1001"
       style="fill:#9f531b;fill-opacity:1;fill-rule:nonzero;stroke:none;stroke-width:0.352778"
       id="path114" />
    <path
       d="m 93.848549,127.3801 c 0.320393,1.2126 1.423388,1.32471 2.001414,1.91699 0.351472,0.36022 0.39437,0.62851 0.391689,1.2277 0.747783,-0.22168 0.832485,-0.90149 0.876088,-1.4496 0.08721,-1.09689 0.71942,-1.37798 1.092518,-2.02568 -1.250703,0.83598 -2.838803,0.8939 -4.361709,0.33059"
       style="fill:#e2e2e2;fill-opacity:1;fill-rule:evenodd;stroke:none;stroke-width:0.352778"
       id="path116" />
    <path
       d="m 93.955758,127.49309 c 0.229588,0.6828 0.741398,0.97582 1.220188,1.24972 0.266594,0.1525 0.523416,0.2994 0.724288,0.50528 0.184326,0.18881 0.288008,0.35482 0.345828,0.55372 0.05038,0.1736 0.06417,0.36879 0.06569,0.6254 0.294605,-0.11162 0.46549,-0.30681 0.567902,-0.53371 0.115393,-0.2557 0.146579,-0.5557 0.167887,-0.82381 0.06152,-0.7735 0.38421,-1.1509 0.704109,-1.52509 0.07479,-0.0875 0.149295,-0.17481 0.219816,-0.2667 -0.550828,0.30829 -1.156018,0.48059 -1.785832,0.52832 -0.725876,0.055 -1.484489,-0.0554 -2.229873,-0.31313 z m 1.150302,1.37181 c -0.5328,-0.3049 -1.1049,-0.63221 -1.325421,-1.46688 l -0.03461,-0.13081 0.126717,0.0469 c 0.768915,0.28441 1.553986,0.40862 2.302404,0.3519 0.714199,-0.0542 1.395095,-0.27309 1.995982,-0.6748 l 0.249625,-0.16679 -0.149719,0.2601 c -0.121285,0.21061 -0.2667,0.38069 -0.412679,0.55139 -0.305012,0.3568 -0.612599,0.7166 -0.670525,1.44481 -0.02229,0.28 -0.05517,0.594 -0.179987,0.87062 -0.127811,0.28328 -0.349109,0.5231 -0.746407,0.64089 l -0.09038,0.0268 4.94e-4,-0.0944 c 0.0013,-0.29323 -0.0083,-0.50472 -0.06032,-0.68372 -0.05087,-0.17509 -0.144392,-0.32339 -0.311573,-0.49481 -0.186514,-0.1911 -0.435293,-0.33348 -0.693597,-0.48119"
       style="fill:#9f531b;fill-opacity:1;fill-rule:nonzero;stroke:none;stroke-width:0.352778"
       id="path118" />
    <path
       d="m 96.518053,130.4801 c -0.183021,0.1096 -0.398815,0.16912 -0.627591,0.16019 -0.314008,-0.0122 -0.593408,-0.1506 -0.791104,-0.36449 -0.197803,-0.21371 -0.314114,-0.50288 -0.301908,-0.8165 l 0.1403,0.005 c -0.01069,0.27538 0.09109,0.52899 0.264407,0.71638 0.173285,0.18733 0.418077,0.30861 0.693173,0.3193 0.202318,0.008 0.392924,-0.045 0.554002,-0.14227 0.01782,0.0426 0.04092,0.0836 0.06872,0.12238"
       style="fill:#9f531b;fill-opacity:1;fill-rule:nonzero;stroke:none;stroke-width:0.352778"
       id="path120" />
    <path
       d="m 93.324039,127.80099 c 0.0489,-0.1471 0.128693,-0.28659 0.239995,-0.40819 0.212125,-0.23189 0.498228,-0.35571 0.789199,-0.36869 0.017,-7.1e-4 0.03401,-10e-4 0.05101,-10e-4 -0.01069,0.0276 -0.0187,0.0564 -0.02381,0.0862 -0.0031,0.0181 -0.005,0.0363 -0.0059,0.0543 l -0.0151,6e-4 c -0.254988,0.0113 -0.505707,0.12001 -0.691586,0.32311 -0.112712,0.12308 -0.188595,0.26691 -0.228494,0.41779 z"
       style="fill:#9f531b;fill-opacity:1;fill-rule:nonzero;stroke:none;stroke-width:0.352778"
       id="path122" />
    <path
       d="m 91.759646,119.25841 c 0.863,0.1469 0.765492,0.8757 0.0714,0.86829 -0.777416,-0.008 -1.497506,0.32502 -1.734608,1.04119 -0.158609,-0.91828 0.691303,-2.07479 1.663206,-1.90948"
       style="fill:#502713;fill-opacity:1;fill-rule:evenodd;stroke:none;stroke-width:0.352778"
       id="path124" />
    <path
       d="m 98.631933,118.53331 c -0.863,0.1469 -0.765492,0.8757 -0.0714,0.86829 0.777416,-0.008 1.497507,0.32502 1.734607,1.04119 0.15861,-0.91828 -0.691302,-2.07479 -1.663205,-1.90948"
       style="fill:#502713;fill-opacity:1;fill-rule:evenodd;stroke:none;stroke-width:0.352778"
       id="path126" />
    <path
       d="m 86.108746,128.07119 c 0.758719,0.80211 1.434712,1.4339 2.547408,1.6317 l 0.0151,0.51082 c -1.090189,-0.2426 -1.775319,-0.8951 -2.523808,-1.69351 -0.0055,-0.0742 -0.01118,-0.14859 -0.0176,-0.22352 -0.0065,-0.0746 -0.01379,-0.15007 -0.0211,-0.22549 z m 0.126506,1.00111 c 0.738081,0.7947 1.385182,1.39488 2.4511,1.6916 0,0.17982 0.0369,0.358 0.0369,0.53231 -1.065706,-0.35101 -1.635689,-0.98929 -2.450112,-1.7211 -0.0011,-0.15811 -0.03281,-0.34491 -0.03789,-0.50281"
       style="fill:#9f531b;fill-opacity:1;fill-rule:evenodd;stroke:none;stroke-width:0.352778"
       id="path128" />
    <path
       d="m 85.153141,119.10499 c 0.510999,0.54021 1.015894,1.00563 1.513911,1.31223 0.500909,0.30829 0.962589,0.46048 1.462899,0.54938 0,0.18848 0.03298,0.37701 0.03298,0.5655 -0.493077,-0.10972 -0.98178,-0.28021 -1.474505,-0.59718 -0.491772,-0.31641 -0.987778,-0.78081 -1.491086,-1.31763 -0.0063,-0.0847 -0.0127,-0.16958 -0.02011,-0.25499 -0.0074,-0.0851 -0.0157,-0.17131 -0.02409,-0.25731 z m 0.06682,1.056 c 0.497488,0.5357 0.995574,1.05202 1.483501,1.38212 0.486375,0.3291 0.971586,0.52408 1.459477,0.6599 0,0.20511 0.0157,0.40838 0.0157,0.60727 -0.486692,-0.16026 -0.987072,-0.42008 -1.471295,-0.76147 -0.486974,-0.34343 -0.941493,-0.7662 -1.437005,-1.30231 -0.0013,-0.18048 -0.04449,-0.40531 -0.05038,-0.58551"
       style="fill:#9f531b;fill-opacity:1;fill-rule:evenodd;stroke:none;stroke-width:0.352778"
       id="path130" />
    <path
       d="m 86.086556,119.99469 c 0.08428,0.22321 0.169474,0.4547 0.255305,0.69289 0.112289,0.0864 0.224296,0.16613 0.336092,0.23802 0.449086,0.28889 0.891892,0.462 1.34059,0.57238 l -0.03309,-0.57287 c -0.443512,-0.0926 -0.883814,-0.24321 -1.328914,-0.51721 -0.188983,-0.11641 -0.378989,-0.25569 -0.569983,-0.41321 z m 0.535693,1.48992 c 0.07408,0.2152 0.148414,0.44577 0.222603,0.6675 0.411409,0.2716 0.843809,0.48489 1.254689,0.62928 l -0.03521,-0.61288 c -0.458188,-0.13462 -0.914188,-0.3254 -1.371388,-0.63472 -0.0236,-0.0159 -0.0471,-0.0324 -0.0707,-0.0492"
       style="fill:#9f4218;fill-opacity:1;fill-rule:evenodd;stroke:none;stroke-width:0.352778"
       id="path132" />
    <path
       d="m 105.40936,115.21261 -1.25413,-0.69232 -0.0376,-0.0206 1.8e-4,-1.8e-4 c -0.20151,-0.10993 -0.21128,-0.1155 -0.22931,-0.37462 l -0.14287,-2.05718 -0.72002,1.30598 -7.1e-4,6e-4 c -0.21988,0.39663 -0.2601,0.37401 -0.62798,0.16711 l -0.017,-0.009 v -1.1e-4 l -0.9175,-0.50369 -6e-4,-6e-4 c -0.1548,-0.0857 -0.23139,-0.1475 -0.25482,-0.25901 -0.0222,-0.10559 0.0197,-0.19089 0.0999,-0.3356 l 2.27041,-4.08629 c 0.0729,-0.1312 0.12657,-0.21312 0.22031,-0.25591 0.10558,-0.0482 0.20778,-0.0283 0.35909,0.0555 h -1.1e-4 l 0.96129,0.5249 h 7e-4 c 0.15561,0.0856 0.23591,0.139 0.26741,0.24843 0.0313,0.10848 -0.008,0.19558 -0.0914,0.35009 l -0.001,0.002 -0.67818,1.2241 1.74078,-0.88018 0.024,-0.0121 -2.1e-4,-3.2e-4 c 0.21241,-0.10798 0.21498,-0.10929 0.43939,0.0148 l 1.18103,0.65331 c 0.0375,0.0182 0.0943,0.0574 0.13617,0.10738 0.0354,0.0424 0.0641,0.0949 0.0729,0.156 0.01,0.0697 -0.005,0.14231 -0.0622,0.2116 -0.0368,0.0447 -0.0921,0.0869 -0.17201,0.1228 l 1e-4,2.1e-4 -2.4367,1.1236 0.34321,2.77319 h -2.1e-4 c 0.0102,0.0627 0.0382,0.24412 -0.0293,0.3696 -0.0732,0.1361 -0.20539,0.20472 -0.44158,0.0778 l -0.001,-6.7e-4 z m -1.09781,-0.9768 1.25409,0.69229 -1.8e-4,2.1e-4 c 0.016,0.0122 -0.0111,0.0759 0.001,0.0535 0.0167,-0.0311 -1e-4,-0.13409 -0.006,-0.16739 l -1e-4,1e-4 -3.6e-4,-0.002 -0.001,-0.007 -0.35778,-2.89059 -0.0145,-0.1173 0.10788,-0.0497 2.54451,-1.17341 0.002,-7e-4 c 0.007,-0.003 0.0139,-0.006 0.0197,-0.009 l -0.004,-0.002 -0.008,-0.004 -1.18579,-0.65592 c -0.0742,-0.0411 -0.075,-0.0407 -0.13582,-0.01 h -7.1e-4 l -0.0244,0.0124 -2.21121,1.11799 -0.28261,0.14291 0.0229,0.3302 0.18122,2.6072 c 0.006,0.0818 0.008,0.0832 0.0607,0.1119 h 7e-4 l 0.0376,0.0206 z m -0.58441,-2.80702 0.26599,-0.4826 2.1e-4,0.003 0.083,-0.14989 0.93271,-1.68349 -2.1e-4,-1.1e-4 c 0.042,-0.0778 0.0686,-0.0984 0.066,-0.10738 -0.003,-0.01 -0.0352,-0.0103 -0.11239,-0.0528 l 7e-5,-2.2e-4 -0.96199,-0.52528 -0.001,-7.1e-4 c -0.0514,-0.0285 -0.0617,-0.0464 -0.0669,-0.0441 -0.007,0.003 -0.0313,0.0461 -0.0716,0.11867 l -2.27048,4.08633 c -0.0419,0.0757 -0.0664,0.10777 -0.0655,0.11208 0.002,0.01 0.0281,0.005 0.0939,0.0413 l 1.8e-4,-2.1e-4 0.9187,0.50429 0.001,7.1e-4 0.017,0.009 c 0.11169,0.0629 0.12421,0.0699 0.18549,-0.0405 l -1.8e-4,-1.8e-4 0.98598,-1.78862 z m -23.774296,-0.16429 -0.488209,0.3871 2.088727,2.67812 c 0.0133,0.0171 0.03559,0.0447 0.05598,0.0699 0.219993,0.27221 0.27171,0.3362 -0.06491,0.59849 l -0.789693,0.61553 c -0.138783,0.10837 -0.229588,0.17579 -0.344099,0.18358 -0.130387,0.009 -0.229306,-0.0559 -0.355706,-0.2178 l -2.124781,-2.72839 -0.583318,0.45421 -5.99e-4,6.7e-4 c -0.121885,0.0945 -0.213995,0.12872 -0.319299,0.10361 l -1.06e-4,6e-4 c -0.09567,-0.0228 -0.162596,-0.0888 -0.248285,-0.1989 h 1.06e-4 l -0.529802,-0.67458 h 1.06e-4 c -0.0092,-0.0112 -0.0181,-0.0229 -0.02653,-0.0349 -0.05528,-0.0799 -0.07708,-0.16319 -0.06727,-0.24458 0.01,-0.0837 0.05179,-0.1585 0.123508,-0.2196 0.0099,-0.008 0.02078,-0.0168 0.0326,-0.0251 l 1.3474,-1.05809 c 0.190888,-0.14989 0.381705,-0.29972 1.298504,-1.01871 0.123896,-0.0972 0.204682,-0.1548 0.310797,-0.15829 v 0 c 0.118675,-0.004 0.204788,0.0572 0.316583,0.2002 l 0.498405,0.6393 v -1e-4 c 0.224296,0.2516 0.205387,0.36011 0.005,0.53879 -0.02953,0.0263 -0.07183,0.0593 -0.121814,0.0982 l -0.01351,0.0105 z m -0.815904,0.23269 0.613904,-0.48679 0.0013,-6e-4 0.01461,-0.0114 c 0.04018,-0.0314 0.07429,-0.0579 0.105304,-0.0856 0.01669,-0.0149 0.01298,-0.0299 -0.03171,-0.0801 l -0.0064,-0.008 -0.504719,-0.64742 c -0.0411,-0.0526 -0.04519,-0.0759 -0.05119,-0.0757 h -6e-4 c -0.0063,1e-4 -0.04911,0.0334 -0.120897,0.0896 l -1.297199,1.01872 c -0.226025,0.17748 -0.369006,0.28988 -1.352091,1.0608 l -0.0076,0.006 c -0.0033,0.002 -0.0067,0.005 -0.0102,0.008 -0.0076,0.007 -0.01161,0.0103 -0.01171,0.0112 -3.88e-4,0.003 0.0034,0.0106 0.0115,0.0223 0.0026,0.004 0.0061,0.008 0.01051,0.0134 l 0.0044,0.005 0.530296,0.67532 7.05e-4,6e-4 c 0.0405,0.0521 0.06378,0.0813 0.0666,0.082 v 7e-4 c 0.0067,0.002 0.0082,-0.0157 0.04628,-0.0452 l 1.06e-4,1.1e-4 0.7106,-0.55341 0.127988,-0.0996 0.09941,0.1276 2.224087,2.85602 c 0.05151,0.0659 0.07472,0.0935 0.07881,0.0932 0.02,-0.001 0.07648,-0.0448 0.166193,-0.1149 l 0.789799,-0.61553 c 0.07641,-0.0596 0.0641,-0.0749 0.0115,-0.13987 -0.0145,-0.018 -0.03069,-0.038 -0.0586,-0.0737 l -2.187716,-2.80522 -0.09899,-0.127 z m 7.873823,-2.43868 c 0.16757,0.3768 0.259398,0.75068 0.275273,1.12131 0.01591,0.37168 -0.0448,0.73868 -0.181998,1.1007 -0.14478,0.38438 -0.362691,0.72157 -0.653592,1.01116 -0.288113,0.28692 -0.646994,0.52603 -1.076607,0.71713 -0.430001,0.19128 -0.848395,0.29827 -1.254901,0.32068 -0.409787,0.0225 -0.806697,-0.0406 -1.190378,-0.18969 -0.361527,-0.14069 -0.675499,-0.34139 -0.941529,-0.60209 -0.264477,-0.25922 -0.480801,-0.577 -0.648299,-0.9531 -0.167676,-0.37631 -0.259186,-0.7499 -0.274779,-1.12053 -0.01552,-0.37168 0.0454,-0.73899 0.182598,-1.10158 0.145979,-0.38499 0.364807,-0.72238 0.65599,-1.01201 0.288713,-0.28699 0.648017,-0.52621 1.077701,-0.71738 0.429789,-0.1912 0.847795,-0.29792 1.253807,-0.32 0.408693,-0.0223 0.804298,0.0411 1.186815,0.19018 0.361986,0.14062 0.675887,0.34131 0.941776,0.60191 0.264513,0.25919 0.480518,0.57711 0.648123,0.95331 z m -0.04872,1.13401 c -0.01401,-0.32893 -0.09649,-0.66291 -0.247298,-1.00193 -0.150812,-0.33849 -0.343887,-0.62329 -0.579508,-0.85418 -0.234103,-0.22941 -0.511175,-0.4065 -0.831285,-0.53082 -0.339196,-0.13219 -0.690316,-0.18839 -1.053395,-0.1686 -0.366007,0.02 -0.745313,0.1173 -1.138202,0.2921 -0.393312,0.17502 -0.720513,0.39212 -0.98111,0.65141 -0.257987,0.2564 -0.451697,0.55531 -0.581096,0.89641 -0.121814,0.3218 -0.176001,0.64678 -0.162207,0.97447 0.01379,0.329 0.09599,0.66273 0.246698,1.00112 0.150812,0.33831 0.344205,0.62311 0.57979,0.854 0.234315,0.22959 0.511422,0.40661 0.831003,0.531 0.340113,0.13201 0.692115,0.188 1.055723,0.168 0.367277,-0.0202 0.747607,-0.1178 1.140601,-0.2927 0.393206,-0.17491 0.719878,-0.39201 0.979981,-0.65099 0.257422,-0.25632 0.450392,-0.55491 0.578697,-0.89559 0.121814,-0.32131 0.175613,-0.6459 0.161608,-0.9737 z m -1.790101,-0.31581 c -0.0683,-0.15431 -0.155187,-0.28321 -0.260491,-0.38672 -0.10421,-0.10237 -0.228212,-0.18161 -0.371616,-0.23749 l 1.06e-4,-2.1e-4 c -0.137407,-0.0535 -0.274496,-0.0781 -0.41088,-0.0739 -0.137231,0.004 -0.275908,0.0376 -0.415925,0.0999 h -6e-4 c -0.139594,0.062 -0.257598,0.14312 -0.353695,0.2431 -0.0955,0.0993 -0.169792,0.21781 -0.222709,0.35511 l 3.18e-4,2.1e-4 c -0.0544,0.14379 -0.07832,0.28899 -0.07179,0.4354 0.0064,0.1476 0.0441,0.29908 0.112783,0.4542 l -2.83e-4,10e-5 c 0.0689,0.15399 0.156175,0.28307 0.261903,0.38711 0.104492,0.1028 0.228176,0.18189 0.371087,0.23706 l -1.06e-4,2.2e-4 c 0.137795,0.0529 0.275519,0.0772 0.412891,0.0728 0.137618,-0.004 0.277213,-0.038 0.418606,-0.10072 0.140194,-0.0621 0.257422,-0.1428 0.351896,-0.24169 0.09451,-0.0989 0.167922,-0.21748 0.220697,-0.35539 l 2.12e-4,8e-5 c 0.05419,-0.14369 0.0781,-0.28868 0.07151,-0.43487 -0.0066,-0.14814 -0.04442,-0.29934 -0.113312,-0.45361 z m -0.03309,-0.61793 c 0.135184,0.13293 0.245392,0.29521 0.330376,0.48712 l -2.82e-4,10e-5 c 0.08541,0.1917 0.132397,0.3821 0.140899,0.57101 0.0085,0.19078 -0.02219,0.37871 -0.09211,0.56378 v 7e-4 c -0.06809,0.17812 -0.164394,0.33271 -0.289278,0.46341 -0.124813,0.13049 -0.276719,0.2358 -0.456106,0.31542 -0.1784,0.0791 -0.358105,0.12167 -0.539221,0.12739 -0.180481,0.006 -0.360292,-0.0258 -0.539185,-0.0947 h -7.06e-4 c -0.184785,-0.0714 -0.345299,-0.1742 -0.481577,-0.30822 -0.134902,-0.13261 -0.24511,-0.29499 -0.3308,-0.48691 l -5.99e-4,-7e-4 c -0.0847,-0.1911 -0.131304,-0.38149 -0.13963,-0.57108 -0.0084,-0.19092 0.0223,-0.37881 0.09222,-0.5637 l 7.06e-4,-7.1e-4 c 0.06907,-0.1797 0.166299,-0.33489 0.291606,-0.4652 0.124389,-0.12951 0.276472,-0.23421 0.456,-0.31391 l -1.05e-4,-2.8e-4 c 0.178893,-0.0796 0.358598,-0.12241 0.539079,-0.12781 0.180093,-0.005 0.359199,0.0263 0.53721,0.0956 h 6e-4 c 0.184185,0.0719 0.344593,0.1747 0.480907,0.30868 z m 9.277596,1.79543 -0.914893,0.0696 v 0 l -0.04463,0.004 c -0.310091,0.0264 -0.385868,0.0328 -0.455965,-0.32128 l -0.35172,-1.79161 -0.567584,1.90891 -0.0013,0.004 c -0.09991,0.31069 -0.104422,0.31091 -0.379201,0.32459 -0.01901,9.2e-4 -0.04032,0.002 -0.0829,0.005 l -0.392888,0.028 h -6e-4 c -0.0436,0.003 -0.05962,0.004 -0.0732,0.006 -0.260315,0.0236 -0.272909,0.0247 -0.396805,-0.26169 l -2.11e-4,1.1e-4 -0.812483,-1.8143 -0.0974,1.82679 v 0.005 c -0.02942,0.34911 -0.144921,0.35521 -0.421005,0.36978 -0.02032,0.001 -0.04262,0.002 -0.0805,0.005 l -0.87069,0.0632 h -6e-4 l -0.03732,0.003 c -0.102694,0.007 -0.183092,0.013 -0.253506,0.005 -0.236397,-0.0266 -0.311397,-0.13141 -0.274602,-0.46658 h -7.1e-5 l 0.367594,-4.7377 c 0.01221,-0.15812 0.02589,-0.24391 0.101283,-0.31701 0.07472,-0.0725 0.160408,-0.0842 0.317324,-0.0953 v 0 l 1.257582,-0.0917 c 0.158997,-0.0114 0.246909,-0.008 0.332599,0.0503 0.08371,0.0572 0.117792,0.13529 0.175119,0.27778 l 0.76327,1.9044 0.498122,-1.95259 0.0053,-0.021 2.12e-4,1e-4 c 0.07049,-0.2782 0.0986,-0.3878 0.426403,-0.41081 v -1e-4 l 1.224174,-0.0863 h 0.002 l 0.01771,-0.001 c 0.191311,-0.0116 0.283598,-0.0173 0.371687,0.0441 0.092,0.0639 0.108091,0.14238 0.139206,0.29379 l 0.0103,0.0495 h 2.12e-4 l 0.991481,4.6429 c 0.0654,0.30731 -0.01499,0.407 -0.23368,0.4535 -0.0568,0.0121 -0.120508,0.0163 -0.197202,0.0212 -0.01379,8.8e-4 -0.0266,0.002 -0.06061,0.004 v 1.1e-4 z m -0.940399,-0.25432 0.916199,-0.0697 h 7.05e-4 l 0.06378,-0.004 c 0.06322,-0.004 0.115817,-0.008 0.150212,-0.0149 0.0013,-2.1e-4 -0.0049,-0.0137 -0.01662,-0.0685 l -0.991482,-4.64298 v -10e-4 l -0.01051,-0.0508 c -0.01369,-0.0668 0.0066,-0.0824 -0.0071,-0.0919 -0.0039,-0.003 -0.05172,0.006 -0.167111,0.0132 l -0.01587,7e-4 v 1.1e-4 l -1.224315,0.0864 h -6e-4 c -0.0932,0.007 -0.104704,0.0516 -0.133808,0.1662 v 7e-4 l -0.0053,0.0209 -0.621101,2.4347 -0.122907,0.48211 -0.185103,-0.46172 -0.948302,-2.36619 c -0.0332,-0.0824 -0.05108,-0.1264 -0.05708,-0.13049 -0.004,-0.003 -0.04392,-3.2e-4 -0.126824,0.006 l -1.257476,0.0917 h -6e-4 c -0.07842,0.005 -0.109326,-2.1e-4 -0.113524,0.004 -0.0047,0.005 0.0024,0.0325 -0.0035,0.10869 l -0.367489,4.7377 -7.05e-4,0.006 c -0.01,0.0888 -0.01309,0.11402 -0.01298,0.11402 0.04117,0.005 0.109291,-2.1e-4 0.196286,-0.006 l 0.03669,-0.003 v 0 l 0.870726,-0.0633 c 0.02229,-0.002 0.05588,-0.003 0.08689,-0.005 0.07599,-0.004 0.10788,-0.006 0.113383,-0.0725 l 3.17e-4,1.1e-4 0.132786,-2.49192 0.03581,-0.67017 0.274214,0.61228 1.086802,2.42662 6e-4,0.002 c 0.03147,0.0728 0.0333,0.0727 0.07119,0.0692 0.03041,-0.003 0.0648,-0.006 0.08008,-0.007 v -7e-5 l 0.392924,-0.0279 c 0.02378,-0.002 0.0598,-0.003 0.09059,-0.005 0.05288,-0.003 0.0545,-0.003 0.08449,-0.0959 v 0 l 0.755509,-2.5413 0.188101,-0.63232 0.127,0.64692 0.47879,2.43851 c 0.01341,0.0679 0.03249,0.0663 0.110419,0.0596 l 0.04459,-0.004 h 0.0012 z m 6.713711,1.54852 -0.428728,-0.0991 c -0.208174,-0.0482 -0.41589,-0.0963 -0.626287,-0.14514 l -0.0026,-6.7e-4 c -0.150883,-0.0373 -0.23488,-0.0926 -0.282081,-0.18051 -0.04671,-0.0868 -0.04131,-0.17371 -0.0205,-0.28819 l 0.0013,-0.008 0.493677,-2.1221 -2.014785,1.91202 c -0.221297,0.2098 -0.2401,0.20539 -0.510293,0.14221 l -0.0333,-0.008 7.1e-5,-3.9e-4 -1.032793,-0.2298 c -0.375778,-0.0691 -0.345087,-0.24489 -0.310091,-0.44541 0.0026,-0.0143 0.0051,-0.0287 0.0063,-0.037 l 0.0026,-0.0127 1.067999,-4.61543 c 0.0224,-0.1168 0.05189,-0.2105 0.126224,-0.27859 0.08378,-0.077 0.194381,-0.101 0.361174,-0.0565 v 0 l 1.055723,0.24401 c 0.175789,0.0408 0.270298,0.0683 0.332493,0.16281 0.06421,0.0972 0.04939,0.1935 0.0034,0.36689 l -0.489796,2.12901 0.840493,-0.80161 c 0.416913,-0.39759 0.833896,-0.7952 1.251902,-1.19419 0.181818,-0.17339 0.201218,-0.16852 0.407108,-0.1166 0.022,0.006 0.0476,0.0119 0.0679,0.0166 l -10e-5,2.2e-4 0.98788,0.22517 h 7.1e-4 c 0.14782,0.0339 0.2443,0.064 0.31242,0.14302 0.0773,0.0896 0.0875,0.1959 0.0455,0.36601 h 6e-5 l -1.05688,4.58618 c -0.0289,0.16722 -0.0869,0.26942 -0.19022,0.32741 -0.0983,0.0551 -0.21368,0.0537 -0.36647,0.0183 z m -0.356303,-0.4155 0.428693,0.0992 c 0.0738,0.0171 0.11938,0.0236 0.13529,0.0147 0.01,-0.005 0.0189,-0.0378 0.0298,-0.1027 l 0.002,-0.01 1.05787,-4.59038 6e-4,-0.002 c 0.0145,-0.0584 0.028,-0.0753 0.025,-0.0788 -0.006,-0.007 -0.0567,-0.0198 -0.1397,-0.0388 v -1.7e-4 l -0.98789,-0.22532 h -7e-4 c -0.0341,-0.008 -0.0554,-0.0132 -0.0741,-0.0179 -0.048,-0.0121 -0.0525,-0.0132 -0.10478,0.0366 -0.418005,0.399 -0.835024,0.79661 -1.251901,1.19423 -0.410105,0.39109 -0.82042,0.78228 -1.231724,1.17489 l -0.391195,0.37338 0.12132,-0.52719 0.611188,-2.6572 0.0013,-0.005 c 0.02198,-0.0825 0.04819,-0.0993 0.04089,-0.11038 -0.005,-0.008 -0.04209,-0.003 -0.134479,-0.0243 l -1.055617,-0.24401 -0.007,-0.002 c -0.04583,-0.0126 -0.06103,-0.02 -0.06212,-0.0191 -0.0085,0.008 -0.01739,0.0484 -0.02797,0.10471 l -0.0013,0.006 -1.066623,4.60912 c -0.0026,0.0168 -0.0047,0.0289 -0.0067,0.0406 -0.0056,0.0319 -0.01048,0.0598 0.04893,0.0707 l 0.0057,0.001 1.039812,0.23128 h 0.0019 l 0.0333,0.008 c 0.111583,0.0261 0.11938,0.0279 0.212972,-0.0609 l 2.40732,-2.28459 0.3925,-0.3725 -0.122519,0.52691 -0.616303,2.6489 h -1.77e-4 c -0.0076,0.0414 -0.01199,0.0675 -0.01111,0.0691 4.23e-4,7e-4 0.02131,0.006 0.0713,0.0186 v 0 c 0.210397,0.0488 0.418113,0.0969 0.626322,0.145"
       style="fill:#f57c3f;fill-opacity:1;fill-rule:nonzero;stroke:none;stroke-width:0.352778"
       id="path134" />
    <path
       d="m 82.034939,125.68309 c -0.402202,0.1064 -0.880005,0.38841 -1.1448,0.69931 -0.119097,0.1396 -0.22038,0.30911 -0.22038,0.30911 -0.336197,0.22849 -1.846827,1.24389 -0.921702,1.6378 -0.365619,0.37878 -0.29591,0.77231 0.0108,0.86798 0.306705,0.0957 0.541902,-0.0146 0.594395,-0.047 9.88e-4,-0.0119 0.127317,0.29019 0.539997,0.35429 0.273508,0.0426 0.485986,-0.21318 0.652321,-0.39447 0.524898,-0.57231 1.134992,-1.49232 1.163885,-0.95472 -0.03341,0.25911 0.21209,0.56162 0.357681,0.67521 0.172226,0.13438 0.634012,0.10107 0.791633,-0.0668 0.111866,-0.1191 0.269276,-0.3967 0.143793,-0.55221 -0.125519,-0.15557 -0.231599,-0.19148 -0.305718,-0.37758 -0.07408,-0.18623 -0.0823,-0.56282 -0.058,-0.73152 0.0339,-0.23519 0.02639,-0.25668 0.02272,-0.4664 -0.003,-0.16528 -0.01983,-0.21999 -0.09631,-0.37338 0.417301,-0.569 -0.195192,-0.96019 -0.501121,-1.0819 -0.393982,-0.15671 -1.039001,-0.004 -1.029193,0.50228"
       style="fill:#918f90;fill-opacity:1;fill-rule:evenodd;stroke:none;stroke-width:0.352778"
       id="path136" />
    <path
       d="m 82.236057,125.78621 c 0,0 -0.301413,0.0595 -0.474803,0.15628 -0.173391,0.0969 -0.677016,0.43522 -0.788706,0.56621 -0.111583,0.13099 -0.183515,0.24049 -0.183515,0.24049 -0.366783,0.31252 -1.014483,0.66322 -1.136791,1.1667 -0.0508,0.2092 0.07909,0.28762 0.237102,0.3549 -0.342794,0.35521 -0.277495,0.72422 0.01009,0.81393 0.287725,0.0898 0.512198,-0.0433 0.532729,-0.0795 0.0067,-0.0378 0.1016,0.33119 0.423969,0.35031 0.68072,0.0403 1.002629,-0.95402 1.432912,-1.32002 0.05429,-0.0461 0.156916,-0.15688 0.267512,-0.20648 0.161607,-0.0726 0.302295,0.0285 0.276401,0.2292 -0.03133,0.24299 0.122696,0.5511 0.259186,0.65768 0.161502,0.12601 0.504402,0.1198 0.652321,-0.0377 0.104881,-0.11172 0.221898,-0.36181 0.104176,-0.50772 -0.117687,-0.1459 -0.1917,-0.17437 -0.261197,-0.349 -0.0695,-0.17448 -0.072,-0.5431 -0.04928,-0.70118 0.03178,-0.22063 0.0248,-0.2407 0.02127,-0.43751 -0.0028,-0.15748 -0.07578,-0.2642 -0.148801,-0.4117 -0.449792,-0.32028 -0.629779,-0.40199 -1.174574,-0.48489"
       style="fill:#e2e2e2;fill-opacity:1;fill-rule:evenodd;stroke:none;stroke-width:0.352778"
       id="path138" />
    <path
       d="m 82.235951,125.78621 c 0,0 -0.130704,0.0258 -0.269416,0.0711 0.01531,0.41031 0.352002,0.75339 0.587304,0.84239 0.339196,0.12831 0.734801,0.0478 0.736001,0.0733 0.02,0.41769 0.02762,1.1206 0.28642,1.44131 0.110596,0.13709 6.7e-4,0.37207 -0.0979,0.4771 -0.04791,0.051 -0.117616,0.0851 -0.194522,0.10301 0.164007,0.029 0.358599,-0.008 0.460622,-0.11621 0.104881,-0.11172 0.221898,-0.36181 0.104176,-0.50761 -0.117687,-0.14601 -0.1917,-0.17448 -0.261197,-0.349 -0.0695,-0.17459 -0.072,-0.54321 -0.04928,-0.70129 0.03178,-0.22063 0.0248,-0.2407 0.02127,-0.43751 -0.0028,-0.15748 -0.07578,-0.2642 -0.148801,-0.4117 -0.449792,-0.32028 -0.629779,-0.40199 -1.17468,-0.48489"
       style="fill:#b7b9b5;fill-opacity:1;fill-rule:evenodd;stroke:none;stroke-width:0.352778"
       id="path140" />
    <path
       d="m 82.999151,125.31811 c 0.505601,0.20108 0.611999,0.49678 0.514103,0.79481 -0.098,0.29788 -0.479002,0.41247 -0.868821,0.28437 -0.389784,-0.1282 -0.626498,-0.47367 -0.528603,-0.7717 0.09793,-0.29799 0.377825,-0.5087 0.883321,-0.30748"
       style="fill:#c9c8c8;fill-opacity:1;fill-rule:evenodd;stroke:none;stroke-width:0.352778"
       id="path142" />
    <path
       d="m 83.002855,125.9251 c -0.0267,0.0946 -0.167922,0.3852 -0.307305,0.39779 -0.222885,0.02 -0.606707,-0.427 -0.530719,-0.68209 0.04322,-0.14471 0.08692,-0.17011 0.178012,-0.2461 0.09119,-0.0759 0.329918,-0.0902 0.329918,-0.0902 -0.100401,0.29771 0.105692,0.49202 0.330094,0.62061"
       style="fill:#e2e2e2;fill-opacity:1;fill-rule:evenodd;stroke:none;stroke-width:0.352778"
       id="path144" />
    <path
       d="m 83.451659,125.84558 -0.286809,0.10584 c -0.05831,0.17229 -0.108091,0.28208 -0.166193,0.3949 0,0 0.196003,-0.0361 0.297603,-0.13861 0.1016,-0.10252 0.14799,-0.17681 0.155399,-0.36213"
       style="fill:#b7b9b5;fill-opacity:1;fill-rule:evenodd;stroke:none;stroke-width:0.352778"
       id="path146" />
    <path
       d="m 80.439536,129.0094 c 0.02773,0.0477 0.135926,0.32949 0.416596,0.34611 0.68072,0.0403 1.002629,-0.95402 1.432912,-1.32002 0.05429,-0.0461 0.156916,-0.15688 0.267512,-0.20648 0.161607,-0.0725 0.302295,0.0285 0.276401,0.2292 -0.0048,0.0378 -0.0052,0.0772 -0.0019,0.11719 0.0828,-0.433 0.198296,-0.8357 -0.37779,-0.46898 0,0 -0.312032,0.22849 -0.592525,0.55788 -0.257598,0.30272 -1.072303,1.3711 -1.412593,0.7384 l 2.12e-4,-0.001 z"
       style="fill:#c9c8c8;fill-opacity:1;fill-rule:evenodd;stroke:none;stroke-width:0.352778"
       id="path148" />
    <path
       d="m 80.717949,129.3221 c 0.834707,0.3695 1.222092,-1.3498 1.976896,-1.5204 -0.661,-0.01 -0.940682,0.87641 -1.408395,1.2917 -0.162807,0.1446 -0.319899,0.2735 -0.568501,0.2287"
       style="fill:#b7b9b5;fill-opacity:1;fill-rule:evenodd;stroke:none;stroke-width:0.352778"
       id="path150" />
    <path
       d="m 81.732961,128.01841 c 0,0 -0.448522,-0.46831 -0.557424,-0.6605 -0.108973,-0.1923 -0.294076,-0.62872 -0.294076,-0.62872 l 0.02307,0.47702 c -0.381388,0.3289 -0.725982,0.7583 -1.260581,0.782 0,0 -0.01549,0.0571 0.02921,0.15339 0.04459,0.0962 0.199284,0.1337 0.199284,0.1337 l 1.046798,-0.92339 0.27432,0.37959 c -0.666115,0.61609 -0.933909,1.29131 -1.535007,0.97631 -0.02011,0.48108 0.510787,0.4742 0.776182,0.31238 l 0.1131,-0.22881 0.822501,-0.93137 z"
       style="fill:#c9c8c8;fill-opacity:1;fill-rule:evenodd;stroke:none;stroke-width:0.352778"
       id="path152" />
    <path
       d="m 80.905344,127.31949 -0.620889,0.51251 c -0.22232,0.15389 -0.347309,0.28268 -0.614715,0.29189 0.0031,0.008 0.0074,0.0176 0.0108,0.0251 0.02833,0.061 0.118427,0.1131 0.191417,0.13748 l 0.250578,-0.23178 0.798407,-0.70361 z m -0.986296,1.77913 c 0.132186,0.0717 0.363784,0.0105 0.512586,-0.0784 0.219604,-0.44418 0.622406,-0.77159 0.938706,-1.16018 l 0.0035,0.002 -0.05729,-0.0456 c -0.315877,0.3187 -0.9525,1.25222 -1.397494,1.28263"
       style="fill:#b7b9b5;fill-opacity:1;fill-rule:evenodd;stroke:none;stroke-width:0.352778"
       id="path154" />
    <path
       d="m 86.149844,124.49991 c 0.519289,-0.0119 0.609106,-0.25633 0.607201,-0.4512 -0.01549,-1.61932 -4.72888,-0.23541 -4.281099,1.57688 0.08689,0.34742 0.448698,0.4609 0.672006,0.30752 0.249485,-0.17131 0.337291,-0.53831 0.505707,-0.6924 0.661,-0.60452 1.518779,-0.7184 2.496185,-0.7408"
       style="fill:#9f531b;fill-opacity:1;fill-rule:evenodd;stroke:none;stroke-width:0.352778"
       id="path156" />
    <path
       d="m 86.099538,124.5063 c 0.362197,-0.008 0.495794,-0.0434 0.492019,-0.17928 -0.0296,-1.06081 -3.916397,0.0341 -3.75292,1.43958 0.06071,0.24239 0.199496,0.20902 0.355318,0.10198 0.174095,-0.11948 0.304094,-0.55509 0.86868,-0.89499 0.56462,-0.3398 1.355125,-0.45159 2.036903,-0.46729"
       style="fill:#f57c3f;fill-opacity:1;fill-rule:evenodd;stroke:none;stroke-width:0.352778"
       id="path158" />
    <path
       d="m 106.26654,121.50229 c -0.007,-0.002 0.0142,-0.0474 0.005,0.17321 -0.01,0.22059 -0.32332,0.68481 -0.9519,0.61849 -0.35669,-0.0377 -1.11439,-0.2679 -0.84402,-0.9876 -0.12537,-0.13839 -0.1591,-0.19089 -0.21078,-0.36339 -0.0656,-0.2189 -0.0696,-0.2291 -0.1033,-0.48582 -0.0241,-0.18407 -0.15282,-0.51406 -0.28522,-0.68759 -0.24578,-0.32177 -0.73317,-0.3452 -0.44439,-1.00069 0.10121,-0.22959 0.59069,-0.39321 0.81082,-0.3029 0.1862,0.0763 0.45417,0.39271 0.49537,0.67451 0.26642,0.78469 0.93441,-1.84612 1.47973,-2.00529 0.54518,-0.15911 0.77788,0.22189 0.77717,0.19699 -7.1e-4,-0.0248 0.26063,-0.23432 0.61052,-0.22412 0.34981,0.0102 0.53869,0.40252 0.2667,0.90731 0.1978,0.0257 0.5468,0.28631 0.55548,0.53629 0.0212,0.60152 -0.71049,1.09552 -1.07657,1.4569 0,0 -0.031,0.18821 -0.11483,0.36971 -0.0838,0.18161 -0.51569,0.70842 -0.67938,0.87112 -0.0914,0.091 -0.24162,0.21346 -0.28991,0.25287"
       style="fill:#918f90;fill-opacity:1;fill-rule:evenodd;stroke:none;stroke-width:0.352778"
       id="path160" />
    <path
       d="m 105.29495,122.1108 c -0.58949,-0.0623 -0.7881,-0.34121 -0.773,-0.68259 0.0151,-0.34142 0.381,-0.57373 0.82768,-0.5539 0.44662,0.0197 0.79661,0.3126 0.78151,0.65398 -0.015,0.34142 -0.24659,0.64481 -0.83619,0.58251"
       style="fill:#c9c8c8;fill-opacity:1;fill-rule:evenodd;stroke:none;stroke-width:0.352778"
       id="path162" />
    <path
       d="m 105.68146,121.7245 c 0.0409,0.0991 0.0578,0.1668 -0.053,0.2714 -0.22147,0.20902 -0.92339,6e-4 -0.99398,-0.27979 -0.0236,-0.0935 0.0568,-0.17092 0.19889,-0.26751 0.11462,0.32251 0.56921,0.317 0.84812,0.2759"
       style="fill:#e2e2e2;fill-opacity:1;fill-rule:evenodd;stroke:none;stroke-width:0.352778"
       id="path164" />
    <path
       d="m 104.61423,121.7413 0.26981,-0.19541 c 0.0105,-0.19791 0.0304,-0.32769 0.0582,-0.46309 0,0 -0.19502,0.0956 -0.2715,0.23301 -0.0764,0.1373 -0.10319,0.22888 -0.0565,0.42549"
       style="fill:#b7b9b5;fill-opacity:1;fill-rule:evenodd;stroke:none;stroke-width:0.352778"
       id="path166" />
    <path
       d="m 106.02185,121.62012 c 0,0 0.2866,-0.35592 0.43999,-0.50853 0.15352,-0.15268 0.58222,-0.65568 0.66082,-0.826 0.0786,-0.17028 0.12178,-0.30617 0.12178,-0.30617 0,0 0.74312,-0.77502 0.84942,-0.90153 0.3369,-0.4004 0.1506,-0.89408 -0.3531,-0.95948 0.25499,-0.47339 0.078,-0.84131 -0.25022,-0.8509 -0.32809,-0.01 -0.52458,0.19618 -0.53531,0.2401 0.004,0.0417 -0.20408,-0.3175 -0.5479,-0.24271 -0.72598,0.15801 -0.7711,1.29579 -1.11488,1.80629 -0.0434,0.0644 -0.11839,0.21082 -0.21989,0.29542 -0.14813,0.12358 -0.32551,0.0589 -0.3574,-0.15921 -0.0386,-0.2642 -0.29083,-0.54211 -0.46542,-0.61369 -0.20648,-0.0847 -0.5643,0.0227 -0.6732,0.23138 -0.0772,0.14799 -0.1264,0.44482 0.0401,0.56321 0.1664,0.1184 0.25241,0.12662 0.37659,0.28932 0.12432,0.1627 0.23541,0.54857 0.25809,0.72118 0.0315,0.2407 0.0448,0.25979 0.10633,0.4651 0.20348,0.67899 1.06898,0.82942 1.66419,0.75622"
       style="fill:#e2e2e2;fill-opacity:1;fill-rule:evenodd;stroke:none;stroke-width:0.352778"
       id="path168" />
    <path
       d="m 106.01956,121.64421 0.12347,-0.1784 c -0.51788,0.0399 -1.31579,-0.12492 -1.5197,-0.7385 -0.14389,-0.4324 -0.36798,-1.2047 -0.73377,-1.46502 -0.15643,-0.1113 -0.11021,-0.39021 -0.0377,-0.52931 0.0353,-0.0676 0.0983,-0.12379 0.17371,-0.16527 -0.18051,0.0178 -0.37391,0.11349 -0.44901,0.25738 -0.0772,0.14799 -0.1264,0.44482 0.0401,0.56321 0.1664,0.1184 0.22489,0.14041 0.34911,0.30311 0.2371,0.3103 0.2813,0.84399 0.39087,1.20968 0.1481,0.4941 0.73572,0.8056 1.66293,0.74312"
       style="fill:#b7b9b5;fill-opacity:1;fill-rule:evenodd;stroke:none;stroke-width:0.352778"
       id="path170" />
    <path
       d="m 106.94623,117.50539 c -0.0432,-0.0419 -0.23957,-0.30558 -0.5389,-0.24049 -0.72598,0.15801 -0.7711,1.29572 -1.11488,1.80629 -0.0434,0.0644 -0.11839,0.21082 -0.21989,0.29542 -0.1482,0.12358 -0.32551,0.059 -0.3574,-0.15921 -0.006,-0.0411 -0.0172,-0.0826 -0.0325,-0.12361 0.0406,0.47872 0.0379,0.9351 0.53442,0.381 0,0 0.2601,-0.33158 0.45738,-0.75961 0.18132,-0.39327 0.7215,-1.75379 1.2647,-1.19016 l 2.2e-4,10e-4 z"
       style="fill:#c9c8c8;fill-opacity:1;fill-rule:evenodd;stroke:none;stroke-width:0.352778"
       id="path172" />
    <path
       d="m 106.56206,117.25929 c -0.0523,-0.008 -0.10873,-0.007 -0.16902,0.006 -0.52729,0.11469 -0.68961,0.78239 -0.91838,1.41728 -0.11511,0.3193 -0.25383,0.5992 -0.53291,0.75012 0.69631,-0.18429 0.72291,-1.19342 1.09128,-1.76671 0.1282,-0.1995 0.25513,-0.381 0.52903,-0.40711"
       style="fill:#b7b9b5;fill-opacity:1;fill-rule:evenodd;stroke:none;stroke-width:0.352778"
       id="path174" />
    <path
       d="m 105.88085,118.9256 c 0,0 0.60829,0.3592 0.77911,0.52888 0.17088,0.16973 0.4935,0.57302 0.4935,0.57302 l -0.16461,-0.49361 c 0.30328,-0.4573 0.6894,-0.87047 1.24319,-1.05258 0,0 -0.0772,-0.1869 -0.1778,-0.2438 -0.43459,-0.24592 -1.01011,0.9816 -1.1237,1.1479 l -0.39938,-0.31761 c 0.51749,-0.84229 0.59778,-1.62651 1.32097,-1.47291 -0.099,-0.50758 -0.64389,-0.38069 -0.9041,-0.1022 l -0.0513,0.27329 -0.58889,1.21903 z"
       style="fill:#c9c8c8;fill-opacity:1;fill-rule:evenodd;stroke:none;stroke-width:0.352778"
       id="path176" />
    <path
       d="m 106.95463,119.41529 0.50063,-0.72041 c 0.1966,-0.23727 0.3024,-0.39038 0.59919,-0.45928 -0.0718,-0.0696 -0.21459,-0.1053 -0.31062,-0.11948 l -0.18429,0.29756 -0.63059,0.97304 z m 0.46673,-2.16538 c -0.1463,0.0119 -0.35021,0.0987 -0.47333,0.24278 -0.0996,0.53061 -0.40439,1.00732 -0.64018,1.49232 l -0.004,-6e-4 0.0609,0.0727 c 0,0 0.8829,-1.60603 0.90491,-1.66773 0.0219,-0.0616 0.0855,-0.11588 0.15191,-0.13948"
       style="fill:#b7b9b5;fill-opacity:1;fill-rule:evenodd;stroke:none;stroke-width:0.352778"
       id="path178" />
  </g>
</svg>
