<?xml version="1.0" encoding="UTF-8" standalone="no"?>
<!-- Created with Inkscape (http://www.inkscape.org/) -->

<svg
   width="4.5869899mm"
   height="4.5870299mm"
   viewBox="0 0 4.5869899 4.5870299"
   version="1.1"
   id="svg854"
   inkscape:version="1.2.2 (b0a8486541, 2022-12-01)"
   sodipodi:docname="phone.svg"
   xmlns:inkscape="http://www.inkscape.org/namespaces/inkscape"
   xmlns:sodipodi="http://sodipodi.sourceforge.net/DTD/sodipodi-0.dtd"
   xmlns="http://www.w3.org/2000/svg"
   xmlns:svg="http://www.w3.org/2000/svg">
  <sodipodi:namedview
     id="namedview856"
     pagecolor="#ffffff"
     bordercolor="#000000"
     borderopacity="0.25"
     inkscape:showpageshadow="2"
     inkscape:pageopacity="0.0"
     inkscape:pagecheckerboard="0"
     inkscape:deskcolor="#d1d1d1"
     inkscape:document-units="mm"
     showgrid="false"
     inkscape:zoom="31.526645"
     inkscape:cx="10.943124"
     inkscape:cy="6.153525"
     inkscape:window-width="1920"
     inkscape:window-height="1011"
     inkscape:window-x="0"
     inkscape:window-y="0"
     inkscape:window-maximized="1"
     inkscape:current-layer="layer1" />
  <defs
     id="defs851" />
  <g
     inkscape:label="Layer 1"
     inkscape:groupmode="layer"
     id="layer1"
     transform="translate(-113.5441,-128.7359)">
    <path
       d="m 115.83761,128.7359 c 1.26641,0 2.29348,1.02711 2.29348,2.29351 0,1.2664 -1.02707,2.29352 -2.29348,2.29352 -1.2664,0 -2.29351,-1.02712 -2.29351,-2.29352 0,-1.2664 1.02711,-2.29351 2.29351,-2.29351"
       style="fill:#f57c3f;fill-opacity:1;fill-rule:evenodd;stroke:none;stroke-width:0.352778"
       id="path250" />
    <path
       d="m 114.7924,130.4619 c -0.0832,0.14732 -0.13109,0.3005 -0.15028,0.45709 -0.0161,0.15671 0,0.31662 0.048,0.47654 0.0448,0.16308 0.11832,0.30367 0.21752,0.42527 0.0385,0.0479 0.0799,0.0894 0.1246,0.13113 -0.01,-0.016 -0.016,-0.032 -0.0191,-0.048 v -0.003 c -0.006,-0.0289 -0.006,-0.0641 0.006,-0.10241 0.009,-0.0353 0.0256,-0.0734 0.0479,-0.11518 0.064,-0.11822 0.13741,-0.19513 0.21442,-0.2333 0.0862,-0.0384 0.179,-0.032 0.27499,0.0191 l 0.0478,0.0257 0.0222,0.0127 c 0,0 0.0162,0.01 0.0162,0.01 l 0.048,0.0223 c 0.0288,0.01 0.0639,-0.006 0.10873,-0.048 0.0672,-0.0639 0.14397,-0.17268 0.23019,-0.32928 0.0896,-0.16292 0.14068,-0.28773 0.15981,-0.38051 0.0129,-0.0703 0.006,-0.1119 -0.0223,-0.12781 v -0.003 l -0.0864,-0.0448 -0.0383,-0.0225 h -0.003 c -0.0991,-0.0542 -0.15671,-0.13092 -0.17262,-0.22374 -0.0129,-0.0862 0.01,-0.18849 0.0735,-0.30688 0.0255,-0.0448 0.0479,-0.0799 0.0736,-0.10551 0.0287,-0.032 0.0575,-0.0544 0.0895,-0.0639 0.0287,-0.01 0.0671,-0.01 0.10552,0 0.0353,0.006 0.0735,0.0224 0.11507,0.0447 l 0.0447,0.0256 0.016,0.01 0.006,-0.006 0.0289,0.0255 0.0223,0.01 -0.003,0.003 c 0.0511,0.0417 0.0991,0.0864 0.1439,0.13762 0.0447,0.0511 0.0895,0.10869 0.12781,0.17258 l 0.0128,0.016 -0.003,0.0224 c -0.0128,0.0831 -0.0289,0.16619 -0.0511,0.25269 -0.0193,0.083 -0.0448,0.16599 -0.0705,0.24921 -0.0287,0.0831 -0.0607,0.16629 -0.0991,0.24937 -0.0351,0.0798 -0.0767,0.16302 -0.12149,0.24603 -0.0448,0.0834 -0.0926,0.16309 -0.14383,0.23679 -0.0512,0.0767 -0.10238,0.15031 -0.15678,0.22059 -0.0544,0.0671 -0.1119,0.1343 -0.1694,0.19501 -0.0609,0.0608 -0.12471,0.12161 -0.18859,0.179 l -0.0159,0.0129 h -0.0193 c -0.0703,0.003 -0.13741,-0.003 -0.20779,-0.0129 -0.0671,-0.009 -0.13441,-0.0255 -0.19833,-0.0479 h -0.003 l 0.006,0.003 c 0.1501,0.0831 0.3036,0.13088 0.4603,0.15018 0.15349,0.016 0.31348,0 0.47639,-0.0447 0.15992,-0.048 0.30371,-0.1216 0.42531,-0.2207 0.1215,-0.099 0.2238,-0.22059 0.30371,-0.37091 0.0831,-0.1536 0.1343,-0.30688 0.15039,-0.46048 0.0191,-0.1566 0.003,-0.31651 -0.0448,-0.47949 -0.048,-0.15981 -0.11839,-0.3036 -0.21748,-0.42521 -0.0991,-0.12149 -0.2237,-0.2238 -0.37723,-0.30698 -0.15028,-0.0798 -0.30378,-0.13102 -0.45727,-0.15022 -0.15653,-0.016 -0.31651,0 -0.47632,0.0479 -0.1632,0.048 -0.30388,0.11839 -0.42538,0.21749 -0.12143,0.0991 -0.2238,0.2238 -0.30692,0.37719 z m -0.20789,-0.11501 v 0 c 0.0992,-0.17579 0.2207,-0.32289 0.3646,-0.44118 0.14711,-0.11839 0.31658,-0.20472 0.5116,-0.25919 0.1918,-0.0574 0.38378,-0.0767 0.5691,-0.0574 0.18538,0.0224 0.36449,0.0799 0.54038,0.17579 0.17911,0.096 0.326,0.21738 0.44443,0.36449 0.11829,0.144 0.20458,0.31661 0.26219,0.50838 0.0543,0.19502 0.0736,0.38372 0.0543,0.56921 -0.0224,0.18521 -0.0799,0.3676 -0.17579,0.54342 -0.0991,0.179 -0.2207,0.32611 -0.36449,0.44129 -0.14711,0.11829 -0.31651,0.20461 -0.50842,0.26218 -0.19498,0.0574 -0.38369,0.0767 -0.56921,0.0574 -0.18539,-0.0224 -0.3676,-0.0798 -0.5467,-0.17572 -0.1759,-0.0992 -0.32279,-0.22059 -0.44118,-0.3646 -0.11512,-0.14711 -0.20151,-0.31651 -0.25912,-0.50832 -0.0575,-0.19498 -0.0766,-0.38699 -0.0543,-0.57238 0.0192,-0.18531 0.0767,-0.36442 0.17261,-0.54342"
       style="fill:#ffffff;fill-opacity:1;fill-rule:evenodd;stroke:none;stroke-width:0.352778"
       id="path256" />
  </g>
</svg>
