<?xml version="1.0" encoding="UTF-8" standalone="no"?>
<!-- Created with Inkscape (http://www.inkscape.org/) -->

<svg
   width="4.5869932mm"
   height="4.5869999mm"
   viewBox="0 0 4.5869932 4.5869999"
   version="1.1"
   id="svg681"
   inkscape:version="1.2.2 (b0a8486541, 2022-12-01)"
   sodipodi:docname="tg.svg"
   xmlns:inkscape="http://www.inkscape.org/namespaces/inkscape"
   xmlns:sodipodi="http://sodipodi.sourceforge.net/DTD/sodipodi-0.dtd"
   xmlns="http://www.w3.org/2000/svg"
   xmlns:svg="http://www.w3.org/2000/svg">
  <sodipodi:namedview
     id="namedview683"
     pagecolor="#ffffff"
     bordercolor="#000000"
     borderopacity="0.25"
     inkscape:showpageshadow="2"
     inkscape:pageopacity="0.0"
     inkscape:pagecheckerboard="0"
     inkscape:deskcolor="#d1d1d1"
     inkscape:document-units="mm"
     showgrid="false"
     inkscape:zoom="31.526645"
     inkscape:cx="9.1034107"
     inkscape:cy="10.943124"
     inkscape:window-width="1920"
     inkscape:window-height="1011"
     inkscape:window-x="0"
     inkscape:window-y="0"
     inkscape:window-maximized="1"
     inkscape:current-layer="layer1" />
  <defs
     id="defs678" />
  <g
     inkscape:label="Layer 1"
     inkscape:groupmode="layer"
     id="layer1"
     transform="translate(-91.895762,-108.60676)">
    <path
       d="m 94.189276,108.60676 c 1.266401,0 2.293479,1.02712 2.293479,2.29348 0,1.2664 -1.027078,2.29352 -2.293479,2.29352 -1.266402,0 -2.293514,-1.02712 -2.293514,-2.29352 0,-1.26636 1.027112,-2.29348 2.293514,-2.29348"
       style="fill:#f57c3f;fill-opacity:1;fill-rule:evenodd;stroke:none;stroke-width:0.352778"
       id="path234" />
    <path
       d="m 93.569375,111.48116 0.0032,0.003 0.0028,0.003 0.0032,0.003 0.006,0.003 0.0028,0.003 0.0028,0.003 0.0058,0.003 0.0032,0.003 0.0056,0.003 0.0032,0.003 0.0057,0.003 0.0028,0.003 0.0061,0.003 0.0028,0.003 0.0061,0.003 0.0028,0.003 0.0056,0.003 0.0032,0.003 0.0028,0.003 0.0059,0.003 0.0032,0.003 0.006,0.003 0.0025,0.003 0.0056,0.003 0.0032,0.002 0.0058,0.003 0.0032,0.003 0.0059,0.003 0.0025,0.003 0.006,0.003 0.0035,0.002 0.0055,0.003 0.0032,0.003 0.0053,0.003 0.0035,0.003 0.0057,0.003 0.0032,0.003 0.0028,0.003 0.0057,0.003 0.0032,0.003 0.0057,0.003 0.0028,0.003 0.0063,0.002 0.0025,0.003 0.0064,0.003 0.0025,0.003 0.006,0.003 0.0028,0.003 0.0057,0.003 0.0028,0.003 0.0065,0.003 0.0025,0.003 0.0064,0.003 0.0021,0.003 0.0066,0.003 0.0028,0.003 0.0058,0.003 0.0028,0.003 0.0028,0.003 0.0059,0.003 0.0032,0.003 -0.0032,0.003 -0.0028,0.003 -0.0061,0.003 -0.0028,0.003 -0.0028,0.003 -0.0056,0.003 -0.0032,0.003 -0.0056,0.003 -0.0035,0.003 -0.0028,0.003 -0.0055,0.003 -0.0035,0.003 -0.0054,0.003 -0.0028,0.003 -0.0028,0.003 -0.006,0.003 -0.0025,0.003 -0.0032,0.002 -0.0056,0.003 -0.0032,0.003 -0.0061,0.003 -0.0028,0.002 -0.0032,0.004 -0.0061,0.002 -0.0028,0.003 -0.006,0.003 -0.0028,0.003 -0.0028,0.003 -0.006,0.003 -0.0028,0.003 -0.0062,0.003 -0.0025,0.003 -0.0035,0.003 -0.006,0.002 -0.0025,0.003 -0.0032,0.003 -0.0059,0.003 -0.0028,0.003 -0.0061,0.003 -0.0025,0.002 -0.0032,0.003 -0.0055,0.003 -0.0028,0.003 -0.0058,0.003 v -0.009 l -0.0032,-0.009 -0.0028,-0.0119 -0.0032,-0.0117 -0.0028,-0.0114 -0.0028,-0.0127 -0.0028,-0.008 -0.0032,-0.0114 -0.0028,-0.0119 -0.0028,-0.0116 -0.0028,-0.012 -0.0032,-0.009 -0.0028,-0.0114 -0.0032,-0.0121 -0.0025,-0.0115 -0.0032,-0.0121 -0.0028,-0.008 -0.0028,-0.0124 -0.0032,-0.0116 -0.0032,-0.0114 -0.0025,-0.0117 -0.0028,-0.009 -0.0028,-0.0117 -0.0028,-0.0118 -0.0032,-0.0119 -0.0032,-0.0116 -0.0028,-0.009 -0.0032,-0.012 z m 1.815006,-1.65901 v 0.0529 l -0.0025,0.0145 -0.0032,0.0175 -0.0028,0.0151 -0.0028,0.0146 -0.0028,0.0146 -0.0028,0.0173 -0.0028,0.0153 -0.0032,0.0145 -0.0028,0.0146 -0.0028,0.018 -0.0032,0.0141 -0.0028,0.0149 -0.0028,0.0148 -0.0028,0.0173 -0.0028,0.0151 -0.0028,0.0145 -0.0035,0.0146 -0.0028,0.0177 -0.0032,0.0149 -0.0028,0.0147 -0.0028,0.014 -0.0032,0.0181 -0.0028,0.0146 -0.0028,0.0148 -0.0032,0.0144 -0.0028,0.0179 -0.0028,0.0145 -0.0035,0.0148 -0.0028,0.0145 -0.0028,0.0179 -0.0028,0.0144 -0.0028,0.0148 -0.0032,0.0146 -0.0028,0.0149 -0.0032,0.0179 -0.0025,0.0143 -0.0032,0.0152 -0.0025,0.014 -0.0032,0.018 -0.0028,0.0149 -0.0035,0.0147 -0.0028,0.0142 -0.0028,0.0176 -0.0028,0.0148 -0.0032,0.0146 -0.0028,0.0144 -0.0028,0.0179 -0.0028,0.0153 -0.0028,0.0137 -0.0032,0.015 -0.0028,0.0179 -0.0028,0.0146 -0.0028,0.0144 -0.0032,0.0146 -0.0032,0.0177 -0.0025,0.0149 -0.0028,0.0144 -0.0036,0.0153 -0.0025,0.0174 -0.0028,0.0144 -0.0028,0.0149 -0.0032,0.0146 -0.0028,0.0177 -0.0028,0.0147 -0.0032,0.0146 -0.0028,0.0147 -0.0028,0.0175 -0.0028,0.0151 -0.0032,0.014 -0.0028,0.0151 -0.0032,0.0146 -0.0025,0.0181 -0.0032,0.0143 -0.0035,0.0144 -0.0025,0.0152 -0.0028,0.0174 -0.0032,0.0147 -0.0025,0.0146 -0.0032,0.0146 -0.0028,0.018 -0.0028,0.0149 -0.0032,0.0143 -0.0032,0.0146 -0.0028,0.0176 -0.0028,0.0145 -0.0035,0.0148 -0.0028,0.0146 -0.0025,0.0175 -0.0032,0.0151 -0.0025,0.0148 -0.0032,0.0143 -0.0032,0.0177 -0.0028,0.0146 -0.0028,0.0151 -0.0028,0.0145 -0.0028,0.0175 -0.0028,0.0148 -0.0032,0.0147 -0.0028,0.0145 -0.0028,0.0174 -0.0028,0.0151 -0.0035,0.015 -0.0028,0.0141 -0.0028,0.0148 -0.0028,0.0176 -0.0028,0.0145 -0.0028,0.0152 -0.0032,0.0144 -0.0032,0.0174 -0.0028,0.0151 -0.0028,0.0145 -0.0028,0.0146 -0.0028,0.0178 -0.0028,0.0144 -0.0032,0.0146 -0.0025,0.0148 -0.0032,0.0176 -0.0028,0.0149 -0.0028,0.0146 -0.0028,0.0148 -0.0032,0.0175 -0.0028,0.0147 -0.0025,0.0146 -0.0032,0.0149 -0.0032,0.0176 -0.0021,0.0143 -0.0032,0.0152 -0.0032,0.0145 -0.0025,0.0173 -0.0028,0.0148 -0.0032,0.015 -0.0028,0.0144 -0.0032,0.0178 -0.0028,0.0146 -0.0028,0.0148 -0.0028,0.0144 -0.0032,0.018 -0.0025,0.0144 -0.0028,0.0149 -0.0028,0.0145 -0.0032,0.0148 -0.0035,0.0174 -0.0025,0.0148 -0.0028,0.0146 -0.0032,0.0147 -0.0028,0.0177 -0.0025,0.0149 -0.0032,0.0145 -0.0028,0.0146 -0.0028,0.0177 -0.0028,0.0147 -0.0032,0.0147 -0.0025,0.012 -0.0035,0.008 -0.0028,0.005 -0.0028,0.007 -0.0032,0.005 -0.0032,0.006 -0.0021,0.003 -0.0032,0.003 -0.0035,0.006 -0.0025,0.003 -0.0028,0.003 -0.0032,0.003 -0.0062,0.003 -0.0025,0.003 -0.0032,0.003 -0.0028,0.003 -0.006,0.003 -0.0058,0.003 -0.0059,0.003 -0.0087,0.003 -0.0089,0.003 -0.01471,0.003 h -0.02932 l -0.0145,-0.003 -0.01168,-0.003 -0.0062,-0.003 -0.0059,-0.003 -0.0058,-0.003 -0.006,-0.003 -0.0025,-0.003 -0.0061,-0.003 -0.0028,-0.003 -0.0059,-0.003 -0.0028,-0.003 -0.0059,-0.003 -0.0028,-0.003 -0.0063,-0.002 -0.0025,-0.003 -0.0032,-0.003 -0.0057,-0.003 -0.0032,-0.003 -0.0055,-0.003 -0.0032,-0.003 -0.006,-0.003 -0.0028,-0.003 -0.0057,-0.003 -0.0032,-0.002 -0.0055,-0.003 -0.0032,-0.003 -0.0057,-0.002 -0.0028,-0.003 -0.006,-0.003 -0.0028,-0.003 -0.006,-0.003 -0.0028,-0.003 -0.0061,-0.003 -0.0032,-0.003 -0.0028,-0.003 -0.0056,-0.003 -0.0032,-0.003 -0.0057,-0.003 -0.0028,-0.003 -0.006,-0.003 -0.0028,-0.003 -0.0058,-0.003 -0.0032,-0.003 -0.0058,-0.003 -0.0032,-0.003 -0.0057,-0.003 -0.0028,-0.003 -0.0056,-0.003 -0.0032,-0.003 -0.0055,-0.003 -0.0032,-0.002 -0.0056,-0.003 -0.0032,-0.003 -0.0028,-0.003 -0.0057,-0.003 -0.0032,-0.003 -0.0058,-0.002 -0.0032,-0.003 -0.0058,-0.004 -0.0032,-0.002 -0.0056,-0.003 -0.0028,-0.003 -0.0057,-0.003 -0.0032,-0.003 -0.0058,-0.003 -0.0036,-0.003 -0.0053,-0.003 -0.0032,-0.003 -0.0053,-0.003 -0.0035,-0.003 -0.0057,-0.003 -0.0032,-0.003 -0.0058,-0.003 -0.0032,-0.003 -0.0028,-0.003 -0.0056,-0.003 -0.0032,-0.003 -0.0057,-0.003 -0.0028,-0.003 -0.0059,-0.003 -0.0028,-0.003 -0.0057,-0.003 -0.0028,-0.003 -0.0061,-0.003 -0.0028,-0.003 -0.0061,-0.003 -0.0025,-0.003 -0.0063,-0.003 -0.0028,-0.003 -0.0061,-0.003 -0.0025,-0.003 -0.0061,-0.003 -0.0032,-0.003 -0.0025,-0.003 -0.0063,-0.003 -0.0028,-0.003 -0.0058,-0.003 -0.0028,-0.003 -0.0063,-0.003 -0.0028,-0.003 -0.0061,-0.003 -0.0025,-0.003 -0.0064,-0.003 -0.0025,-0.003 -0.0061,-0.003 -0.0025,-0.003 -0.0062,-0.003 -0.0032,-0.003 -0.0058,-0.003 -0.0032,-0.003 -0.0057,-0.003 -0.0028,-0.003 -0.0025,-0.003 -0.0064,-0.003 -0.0028,-0.003 -0.006,-0.003 -0.0025,-0.003 -0.0059,-0.003 -0.0032,-0.003 -0.0058,-0.003 -0.0028,-0.003 -0.0061,-0.003 -0.0028,-0.003 -0.006,-0.002 -0.0028,-0.003 -0.0059,-0.003 -0.0032,-0.003 -0.0057,-0.003 -0.0028,-0.003 -0.0056,-0.003 -0.0032,-0.003 -0.0058,-0.003 -0.0032,-0.003 -0.0028,-0.003 -0.0057,-0.002 -0.0032,-0.003 -0.0062,-0.003 -0.0025,-0.003 -0.0058,-0.003 -0.0032,-0.003 -0.006,-0.003 -0.0028,-0.002 -0.0062,-0.003 -0.0028,-0.003 -0.0057,-0.003 -0.0032,-0.003 -0.0057,-0.003 -0.0028,-0.003 -0.0062,-0.003 -0.0025,-0.003 -0.0063,-0.003 -0.0028,-0.003 -0.0032,-0.003 -0.0059,-0.003 -0.0028,-0.003 -0.0054,-0.003 -0.0035,-0.003 -0.0055,-0.003 -0.0028,-0.003 -0.0057,-0.002 -0.0035,-0.004 -0.006,-0.003 -0.0028,-0.003 -0.0057,-0.003 -0.0028,-0.003 -0.0059,-0.003 -0.0032,-0.003 -0.0056,-0.003 -0.0032,-0.003 -0.0056,-0.003 -0.0028,-0.003 -0.0032,-0.003 -0.0055,-0.003 h -0.0032 l -0.0028,0.003 -0.0032,0.003 -0.0057,0.003 -0.0032,0.003 -0.0054,0.003 -0.0036,0.003 -0.0028,0.003 -0.0056,0.003 -0.0028,0.003 -0.0028,0.003 -0.0059,0.003 -0.0028,0.003 -0.0062,0.004 -0.0028,0.002 -0.0028,0.003 -0.0062,0.003 -0.0021,0.003 -0.0063,0.003 -0.0032,0.003 -0.0028,0.003 -0.0057,0.003 -0.0028,0.003 -0.0054,0.003 -0.0032,0.003 -0.0028,0.003 -0.0061,0.003 -0.0032,0.003 -0.0021,0.003 -0.0062,0.003 -0.0028,0.003 -0.0062,0.003 -0.0028,0.002 -0.0028,0.003 -0.0059,0.003 -0.0028,0.003 -0.0054,0.003 -0.0032,0.003 -0.0028,0.003 -0.0061,0.002 -0.0028,0.003 -0.0061,0.003 -0.0028,0.003 -0.0032,0.003 -0.0059,0.003 -0.0028,0.003 -0.006,0.003 -0.0028,0.003 -0.0025,0.003 -0.0061,0.003 -0.0028,0.002 -0.0028,0.003 -0.006,0.003 -0.0032,0.003 -0.0057,0.003 -0.0028,0.003 -0.0028,0.003 -0.006,0.003 -0.0035,0.003 -0.0057,0.003 -0.0028,0.003 -0.0025,0.003 -0.0065,0.003 -0.0028,0.003 -0.0057,0.003 -0.0028,0.003 -0.0028,0.003 -0.0055,0.003 -0.0032,0.003 -0.0032,0.003 -0.0056,0.003 -0.0032,0.003 -0.0056,0.003 -0.0032,0.003 -0.0032,0.003 -0.0057,0.003 -0.0028,0.003 -0.0062,0.003 -0.0028,0.003 -0.0035,0.003 -0.0053,0.003 -0.0032,0.003 -0.0055,0.003 -0.0035,0.003 -0.0028,0.003 -0.0058,0.003 -0.0032,0.003 -0.0028,0.003 -0.0061,0.003 -0.0028,0.003 -0.0057,0.003 -0.0032,0.003 -0.0025,0.003 -0.006,0.003 -0.0032,0.003 -0.0059,0.003 -0.0028,0.003 -0.006,0.003 -0.0056,0.003 -0.0061,0.003 -0.0091,0.003 -0.01161,0.003 h -0.04999 l -0.0089,-0.003 -0.0085,-0.003 -0.006,-0.003 -0.0059,-0.003 -0.0058,-0.003 -0.0059,-0.003 -0.0032,-0.003 -0.0025,-0.003 -0.0032,-0.003 -0.0028,-0.003 -0.0035,-0.003 -0.0025,-0.003 -0.0032,-0.003 -0.0028,-0.003 -0.0028,-0.003 -0.0028,-0.003 -0.0035,-0.006 -0.0025,-0.006 -0.0035,-0.006 -0.0025,-0.006 -0.0028,-0.009 -0.0032,-0.009 -0.0028,-0.0118 -0.0028,-0.009 -0.0028,-0.0117 -0.0028,-0.0117 -0.0028,-0.0117 -0.0028,-0.0119 -0.0032,-0.009 -0.0028,-0.0114 -0.0028,-0.012 -0.0028,-0.0118 -0.0032,-0.0114 -0.0025,-0.009 -0.0028,-0.0117 -0.0028,-0.0115 -0.0032,-0.0119 -0.0032,-0.009 -0.0028,-0.0117 -0.0032,-0.012 -0.0028,-0.0118 -0.0028,-0.0114 -0.0035,-0.009 -0.0021,-0.0116 -0.0032,-0.0118 -0.0032,-0.0116 -0.0028,-0.0123 -0.0025,-0.008 -0.0036,-0.0115 -0.0025,-0.0121 -0.0035,-0.0118 -0.0028,-0.0118 -0.0028,-0.009 -0.0028,-0.0115 -0.0028,-0.0117 -0.0028,-0.012 -0.0028,-0.0117 -0.0032,-0.009 -0.0032,-0.0118 -0.0025,-0.0114 -0.0028,-0.012 -0.0032,-0.009 -0.0028,-0.0121 -0.0032,-0.0116 -0.0035,-0.0118 -0.0021,-0.0116 -0.0028,-0.009 -0.0028,-0.0116 -0.0032,-0.012 -0.0028,-0.0117 -0.0032,-0.0117 -0.0028,-0.009 -0.0028,-0.0117 -0.0032,-0.0117 -0.0028,-0.0117 -0.0028,-0.0117 -0.0032,-0.009 -0.0025,-0.0117 -0.0032,-0.0119 -0.0032,-0.0118 -0.0028,-0.0114 -0.0028,-0.009 -0.0032,-0.0118 -0.0025,-0.012 -0.0028,-0.0115 -0.0032,-0.0115 -0.0036,-0.009 v -0.0117 h -0.0054 l -0.0057,-0.003 -0.0088,-0.003 -0.0059,-0.003 -0.009,-0.003 -0.0088,-0.003 -0.006,-0.003 -0.0086,-0.003 -0.0087,-0.003 -0.0063,-0.003 -0.0088,-0.003 -0.0054,-0.003 -0.0091,-0.003 -0.0089,-0.003 -0.0058,-0.004 -0.0086,-0.003 -0.006,-0.003 -0.0087,-0.002 -0.0087,-0.003 -0.006,-0.003 -0.0091,-0.003 -0.0088,-0.003 -0.0056,-0.003 -0.0089,-0.003 -0.006,-0.003 -0.0087,-0.003 -0.0088,-0.003 -0.0057,-0.003 -0.009,-0.003 -0.0057,-0.002 -0.0093,-0.003 -0.0085,-0.003 -0.0059,-0.003 -0.0085,-0.003 -0.0089,-0.003 -0.006,-0.002 -0.0086,-0.003 -0.0062,-0.003 -0.0083,-0.002 -0.0088,-0.003 -0.0065,-0.003 -0.0088,-0.003 -0.0056,-0.003 -0.0087,-0.003 -0.0088,-0.002 -0.0059,-0.003 -0.0092,-0.003 -0.0057,-0.003 -0.0088,-0.003 -0.0089,-0.003 -0.006,-0.003 -0.0085,-0.003 -0.0087,-0.002 -0.0059,-0.003 -0.0092,-0.003 -0.0055,-0.003 -0.009,-0.002 -0.0086,-0.003 -0.0057,-0.003 -0.0094,-0.004 -0.0056,-0.003 -0.009,-0.003 -0.0086,-0.003 -0.0059,-0.003 -0.0087,-0.003 -0.0091,-0.003 -0.0059,-0.003 -0.0083,-0.003 -0.006,-0.003 -0.0091,-0.003 -0.0084,-0.003 -0.0061,-0.003 -0.0091,-0.003 -0.0056,-0.003 -0.0089,-0.003 -0.0088,-0.003 -0.0058,-0.003 -0.0091,-0.003 -0.0085,-0.003 -0.0061,-0.003 -0.0086,-0.003 -0.0059,-0.003 -0.0089,-0.003 -0.0088,-0.003 -0.0057,-0.003 -0.0093,-0.003 -0.0056,-0.003 -0.0089,-0.002 -0.0086,-0.004 -0.0058,-0.003 -0.0088,-0.002 -0.0062,-0.003 -0.0058,-0.003 -0.0056,-0.003 -0.0058,-0.003 -0.0035,-0.003 -0.0056,-0.003 -0.0032,-0.003 -0.0028,-0.003 -0.0028,-0.002 -0.0032,-0.003 -0.0028,-0.003 -0.0028,-0.003 -0.0032,-0.003 -0.0025,-0.006 -0.0028,-0.003 -0.0028,-0.006 -0.0028,-0.006 -0.0028,-0.006 -0.0032,-0.009 -0.0025,-0.008 v -0.0555 l 0.0025,-0.009 0.0032,-0.008 0.0028,-0.006 0.0028,-0.006 0.0028,-0.006 0.0028,-0.003 0.0025,-0.003 0.0032,-0.006 0.0028,-0.003 0.0028,-0.003 0.0032,-0.003 0.0028,-0.003 0.0028,-0.003 0.0032,-0.003 0.0056,-0.003 0.0035,-0.003 0.0058,-0.003 0.0056,-0.003 0.0058,-0.003 0.0062,-0.003 0.0088,-0.003 0.0058,-0.003 0.0086,-0.003 0.0063,-0.003 0.0082,-0.002 0.0062,-0.004 0.0088,-0.003 0.0059,-0.002 0.0088,-0.003 0.006,-0.003 0.0084,-0.003 0.0063,-0.003 0.009,-0.003 0.0084,-0.003 0.006,-0.003 0.0088,-0.003 0.0058,-0.003 0.0091,-0.003 0.0056,-0.003 0.0089,-0.002 0.0057,-0.003 0.0086,-0.003 0.0064,-0.003 0.0089,-0.003 0.0054,-0.003 0.0091,-0.003 0.0059,-0.003 0.0087,-0.003 0.0059,-0.003 0.0086,-0.002 0.0062,-0.003 0.0084,-0.003 0.0061,-0.003 0.009,-0.003 0.0057,-0.003 0.0086,-0.003 0.0061,-0.003 0.0089,-0.003 0.0056,-0.003 0.0087,-0.003 0.0064,-0.003 0.0087,-0.003 0.0058,-0.003 0.0088,-0.003 0.0058,-0.003 0.009,-0.003 0.0059,-0.003 0.0089,-0.003 0.0058,-0.003 0.0087,-0.003 0.009,-0.003 0.0054,-0.003 0.0086,-0.003 0.0067,-0.003 0.0083,-0.003 0.0062,-0.002 0.0086,-0.003 0.006,-0.003 0.0089,-0.003 0.0058,-0.002 0.0086,-0.004 0.006,-0.002 0.0088,-0.003 0.0059,-0.003 0.0091,-0.003 0.0054,-0.003 0.0091,-0.003 0.0057,-0.003 0.0089,-0.003 0.0056,-0.003 0.0087,-0.003 0.0065,-0.002 0.0086,-0.003 0.0058,-0.003 0.0086,-0.003 0.0061,-0.003 0.0087,-0.004 0.006,-0.002 0.0086,-0.003 0.0058,-0.003 0.0089,-0.003 0.0061,-0.003 0.0084,-0.003 0.0063,-0.003 0.0088,-0.003 0.0055,-0.003 0.0089,-0.003 0.0089,-0.003 0.0061,-0.003 0.0087,-0.003 0.0061,-0.003 0.0084,-0.003 0.0064,-0.003 0.0079,-0.003 0.0068,-0.003 0.0084,-0.002 0.0058,-0.003 0.009,-0.003 0.0059,-0.004 0.0087,-0.002 0.006,-0.003 0.0088,-0.002 0.0051,-0.003 0.0094,-0.003 0.006,-0.003 0.0089,-0.003 0.0056,-0.003 0.0089,-0.003 0.0063,-0.003 0.0083,-0.003 0.0061,-0.003 0.0087,-0.003 0.0057,-0.003 0.0089,-0.003 0.006,-0.003 0.0089,-0.003 0.0057,-0.003 0.0089,-0.002 0.0059,-0.003 0.0085,-0.003 0.0061,-0.003 0.0085,-0.003 0.0063,-0.003 0.0088,-0.003 0.0087,-0.002 0.0055,-0.003 0.0092,-0.003 0.0058,-0.002 0.009,-0.003 0.0057,-0.003 0.0086,-0.003 0.006,-0.003 0.009,-0.003 0.0057,-0.003 0.0089,-0.003 0.006,-0.002 0.0084,-0.003 0.0064,-0.003 0.0088,-0.003 0.0057,-0.003 0.0088,-0.003 0.0059,-0.003 0.0088,-0.003 0.006,-0.003 0.0086,-0.003 0.0061,-0.003 0.0087,-0.003 0.0057,-0.003 0.0089,-0.003 0.0059,-0.003 0.0086,-0.003 0.0059,-0.002 0.0089,-0.003 0.006,-0.003 0.0089,-0.003 0.0056,-0.003 0.0091,-0.003 0.0056,-0.002 0.0088,-0.003 0.0064,-0.003 0.0084,-0.003 0.0087,-0.003 0.0061,-0.003 0.0084,-0.003 0.0057,-0.003 0.0094,-0.003 0.0058,-0.003 0.0088,-0.003 0.006,-0.003 0.0087,-0.003 0.0056,-0.003 0.009,-0.003 0.0059,-0.003 0.0087,-0.003 0.0061,-0.003 0.009,-0.003 0.0061,-0.003 0.0083,-0.003 0.0059,-0.003 0.0089,-0.002 0.0058,-0.003 0.0085,-0.003 0.0063,-0.003 0.0091,-0.003 0.0054,-0.003 0.0087,-0.003 0.0058,-0.003 0.0086,-0.003 0.0062,-0.003 0.0091,-0.003 0.0056,-0.003 0.0088,-0.003 0.0054,-0.003 0.0097,-0.003 0.0054,-0.003 0.0089,-0.003 0.0059,-0.003 0.0087,-0.003 0.0088,-0.003 0.0061,-0.002 0.0088,-0.003 0.0059,-0.003 0.0087,-0.002 0.0056,-0.003 0.0088,-0.003 0.0064,-0.003 0.0089,-0.003 0.0054,-0.003 0.0089,-0.002 0.0059,-0.003 0.0086,-0.003 0.0062,-0.003 0.0086,-0.003 0.0061,-0.003 0.0088,-0.003 0.0057,-0.003 0.0091,-0.003 0.0058,-0.003 0.0087,-0.003 0.0058,-0.003 0.009,-0.003 0.0058,-0.003 0.0089,-0.003 0.0057,-0.003 0.0086,-0.003 0.0059,-0.003 0.0087,-0.003 0.0061,-0.003 0.0087,-0.003 0.006,-0.003 0.0089,-0.003 0.0056,-0.003 0.009,-0.002 0.0058,-0.003 0.0091,-0.003 0.0086,-0.002 0.0058,-0.003 0.0086,-0.003 0.0064,-0.003 0.0085,-0.003 0.006,-0.003 0.0085,-0.003 0.0061,-0.003 0.0087,-0.003 0.0058,-0.003 0.0093,-0.003 0.0055,-0.003 0.0088,-0.003 0.0061,-0.003 0.0088,-0.003 0.0057,-0.003 0.0087,-0.003 0.0061,-0.003 0.009,-0.003 0.0056,-0.003 0.009,-0.002 0.0059,-0.003 0.0091,-0.003 0.0053,-0.003 0.0084,-0.003 0.006,-0.003 0.0093,-0.003 0.0059,-0.003 0.0087,-0.003 0.0058,-0.003 0.0088,-0.003 0.0066,-0.003 0.0083,-0.003 0.0056,-0.003 0.0088,-0.003 0.0059,-0.003 0.0085,-0.003 0.0094,-0.003 0.0059,-0.002 0.0085,-0.003 0.006,-0.003 0.0087,-0.003 0.006,-0.003 0.0087,-0.003 0.0061,-0.003 0.0089,-0.003 0.006,-0.003 0.008,-0.003 0.0066,-0.002 0.0086,-0.003 0.0057,-0.003 0.009,-0.003 0.0057,-0.003 0.009,-0.003 0.006,-0.002 0.0087,-0.003 0.0057,-0.003 0.0087,-0.003 0.006,-0.003 0.0087,-0.003 0.006,-0.003 0.0091,-0.003 0.0053,-0.003 0.0091,-0.003 0.0061,-0.003 0.0088,-0.003 0.0057,-0.003 0.0088,-0.002 0.006,-0.004 0.0087,-0.003 0.0058,-0.003 0.0092,-0.003 0.0055,-0.003 0.0089,-0.003 0.0087,-0.003 0.0059,-0.003 0.0089,-0.003 0.0059,-0.003 0.0087,-0.003 0.0062,-0.003 0.0087,-0.003 0.0053,-0.003 0.0092,-0.003 0.0061,-0.003 0.0085,-0.003 0.0058,-0.003 0.0088,-0.003 0.0059,-0.003 0.0092,-0.003 0.0057,-0.003 0.0088,-0.003 0.0058,-0.003 0.0091,-0.003 0.0054,-0.003 0.0086,-0.003 0.0065,-0.003 0.0088,-0.003 0.0057,-0.003 0.0086,-0.003 0.0061,-0.003 0.0086,-0.003 0.0061,-0.003 0.0089,-0.003 0.0056,-0.003 0.009,-0.003 0.0058,-0.003 0.0087,-0.003 0.0059,-0.003 0.0091,-0.003 0.0059,-0.003 0.0088,-0.003 0.0087,-0.003 0.0059,-0.003 0.0084,-0.003 0.0061,-0.003 0.0091,-0.003 0.0056,-0.003 0.0089,-0.003 0.0057,-0.003 0.0089,-0.003 0.0061,-0.003 0.009,-0.003 0.0054,-0.003 0.0091,-0.003 0.0086,-0.003 0.01767,-0.003 h 0.02649 l 0.01461,0.003 0.01161,0.003 0.0062,0.003 0.006,0.003 0.0054,0.003 0.0058,0.003 0.0035,0.003 0.0056,0.003 0.0028,0.003 0.0028,0.003 0.0028,0.003 0.0032,0.003 0.0028,0.003 0.0028,0.003 0.0032,0.006 0.0028,0.003 0.0028,0.003 0.0028,0.006 0.0028,0.006 0.0028,0.006 0.0032,0.008 0.0025,0.0121 z m -1.815006,1.65901 -0.0032,-3.2e-4 0.0032,-0.002 z m 1.512393,-1.26852 -0.0028,0.0148 -0.0028,0.0149 -0.0028,0.0144 -0.0028,0.0178 -0.0032,0.0147 -0.0032,0.0145 -0.0028,0.0147 -0.0028,0.018 -0.0028,0.0143 -0.0028,0.0148 -0.0028,0.0147 -0.0032,0.0176 -0.0025,0.0148 -0.0032,0.0142 -0.0028,0.0149 -0.0028,0.0175 -0.0028,0.015 -0.0032,0.0147 -0.0028,0.0147 -0.0025,0.0174 -0.0032,0.0149 -0.0032,0.0147 -0.0021,0.0139 -0.0032,0.0179 -0.0032,0.0149 -0.0025,0.0147 -0.0028,0.0152 -0.0032,0.0171 -0.0028,0.0146 -0.0032,0.0151 -0.0028,0.0144 -0.0028,0.0174 -0.0028,0.0151 -0.0032,0.0142 -0.0025,0.015 -0.0028,0.018 -0.0028,0.0141 -0.0032,0.015 -0.0035,0.0147 -0.0025,0.0175 -0.0028,0.0149 -0.0032,0.0148 -0.0028,0.0146 -0.0025,0.0174 -0.0032,0.0147 -0.0028,0.0145 -0.0028,0.0148 -0.0028,0.0177 -0.0032,0.0146 -0.0025,0.0147 -0.0035,0.0148 -0.0028,0.0173 -0.0028,0.0152 -0.0032,0.0143 -0.0032,0.0147 -0.0021,0.0177 -0.0032,0.0146 -0.0035,0.0151 -0.0025,0.0144 -0.0028,0.0177 -0.0032,0.0146 -0.0032,0.0146 -0.0032,0.0145 -0.0025,0.0178 -0.0032,0.0146 -0.0028,0.0143 -0.0028,0.0151 -0.0032,0.018 -0.0028,0.0143 -0.0032,0.0148 -0.0032,0.0147 -0.0028,0.0179 -0.0032,0.0145 -0.0028,0.0147 -0.0028,0.0144 -0.0028,0.0179 -0.0028,0.0145 -0.0032,0.0149 -0.0025,0.0145 -0.0028,0.0148 -0.0032,0.0174 -0.0028,0.0148 -0.0028,0.0146 -0.0028,0.015 -0.0028,0.0177 -0.0032,0.0144 -0.0028,0.015 -0.0028,0.0145 -0.0028,0.0175 -0.0028,0.0146 -0.0032,0.0145 -0.0028,0.0148 -0.0028,0.0175 -0.0028,0.0148 -0.0028,0.0147 -0.0032,0.0146 -0.0028,0.0178 -0.0028,0.0148 -0.0028,0.0149 -0.0032,0.0142 -0.0025,0.0177 -0.0028,0.0149 -0.0035,0.0144 -0.0028,0.0144 -0.0025,0.0183 -0.0032,0.0145 -0.0025,0.0145 -0.0032,0.0149 -0.0028,0.0177 -0.0032,0.0144 -0.0025,0.0151 -0.0032,0.0145 -0.0028,0.0176 -0.0028,0.0144 -0.0032,0.0147 v 0.0156 l -0.0055,-0.004 -0.0032,-0.003 -0.0057,-0.003 -0.0028,-0.003 -0.0035,-0.003 -0.0056,-0.003 -0.0028,-0.003 -0.006,-0.003 -0.0028,-0.003 -0.0057,-0.003 -0.0028,-0.003 -0.0063,-0.003 -0.0025,-0.003 -0.0063,-0.003 -0.0028,-0.003 -0.006,-0.003 -0.0035,-0.003 -0.0052,-0.002 -0.0028,-0.003 -0.006,-0.003 -0.0032,-0.003 -0.0056,-0.003 -0.0032,-0.003 -0.0028,-0.003 -0.0059,-0.003 -0.0028,-0.003 -0.006,-0.003 -0.0032,-0.003 -0.0055,-0.002 -0.0025,-0.003 -0.0063,-0.003 -0.0028,-0.003 -0.0061,-0.003 -0.0028,-0.003 -0.0063,-0.003 -0.0032,-0.002 -0.0056,-0.003 -0.0028,-0.003 -0.0059,-0.003 -0.0028,-0.003 -0.006,-0.003 -0.0025,-0.003 -0.0028,-0.003 -0.0061,-0.003 -0.0021,-0.003 -0.0066,-0.003 -0.0028,-0.003 -0.006,-0.003 -0.0025,-0.003 -0.0064,-0.003 -0.0028,-0.003 -0.0057,-0.003 -0.0028,-0.003 -0.0059,-0.002 -0.0035,-0.004 -0.006,-0.003 -0.0025,-0.003 -0.0061,-0.003 -0.0032,-0.003 -0.0055,-0.003 -0.0028,-0.003 -0.0061,-0.003 -0.0028,-0.003 -0.0028,-0.003 -0.006,-0.003 -0.0032,-0.003 -0.0059,-0.003 -0.0028,-0.003 -0.0058,-0.003 -0.0032,-0.003 -0.0058,-0.003 -0.0028,-0.003 -0.0057,-0.003 -0.0028,-0.003 -0.006,-0.003 -0.0028,-0.002 -0.0059,-0.003 -0.0035,-0.003 -0.0056,-0.003 -0.0028,-0.003 -0.0059,-0.003 -0.0035,-0.002 -0.0028,-0.003 -0.0055,-0.003 -0.0032,-0.003 -0.0059,-0.003 -0.0032,-0.003 -0.0053,-0.003 -0.0032,-0.003 -0.006,-0.003 -0.0028,-0.003 -0.0057,-0.002 -0.0028,-0.004 -0.006,-0.002 -0.0028,-0.003 -0.0057,-0.003 -0.0035,-0.003 -0.0059,-0.002 -0.0028,-0.003 -0.0063,-0.003 -0.0028,-0.003 -0.0028,-0.003 -0.0055,-0.003 -0.0032,-0.003 -0.006,-0.003 -0.0028,-0.003 -0.0057,-0.003 -0.0032,-0.003 -0.006,-0.003 -0.0028,-0.003 -0.0059,-0.003 -0.0032,-0.003 -0.0056,-0.003 -0.0028,-0.003 -0.0058,-0.003 -0.0032,-0.003 -0.0058,-0.003 -0.0028,-0.003 -0.0057,-0.003 -0.0028,-0.003 -0.0028,-0.003 -0.0061,-0.003 -0.0028,-0.003 -0.0059,-0.003 -0.0032,-0.003 -0.0058,-0.003 -0.0028,-0.003 -0.0059,-0.003 -0.0028,-0.003 -0.0059,-0.003 -0.0025,-0.003 -0.0061,-0.003 -0.0028,-0.003 -0.006,-0.002 -0.0028,-0.003 -0.0061,-0.003 -0.0028,-0.003 -0.0056,-0.003 -0.0032,-0.003 -0.0028,-0.003 -0.0057,-0.003 -0.0028,-0.003 -0.0059,-0.003 -0.0028,-0.003 -0.006,-0.003 -0.0028,-0.002 -0.0061,-0.003 -0.0032,-0.003 -0.0053,-0.003 -0.0035,-0.003 -0.0056,-0.003 -0.0032,-0.002 -0.0056,-0.003 -0.0028,-0.003 -0.0057,-0.003 -0.0032,-0.003 -0.006,-0.003 -0.0028,-0.003 -0.006,-0.003 -0.0028,-0.003 -0.0025,-0.003 -0.0062,-0.003 -0.0028,-0.003 -0.0059,-0.003 -0.0028,-0.003 -0.006,-0.003 -0.0028,-0.003 -0.0061,-0.003 -0.0025,-0.003 -0.0065,-0.003 -0.0032,-0.003 -0.0054,-0.003 -0.0028,-0.003 -0.0059,-0.003 -0.0028,-0.003 -0.0062,-0.003 -0.0028,-0.003 -0.0058,-0.003 -0.0032,-0.003 -0.0021,-0.003 -0.0063,-0.003 -0.0032,-0.003 -0.0061,-0.003 -0.0025,-0.003 -0.006,-0.003 -0.0025,-0.003 -0.0061,-0.003 -0.0028,-0.003 -0.0063,-0.003 -0.0021,-0.003 -0.0062,-0.003 -0.0028,-0.003 -0.0062,-0.003 -0.0028,-0.003 -0.0052,-0.003 -0.0035,-0.003 -0.0059,-0.003 -0.0025,-0.003 -0.0032,-0.003 -0.0065,-0.003 -0.0025,-0.003 -0.0061,-0.003 -0.0028,-0.003 -0.006,-0.003 -0.0028,-0.003 -0.0059,-0.003 -0.0028,-0.003 -0.0062,-0.003 v -0.003 l 0.0028,-0.003 0.0032,-0.003 0.0028,-0.003 0.0028,-0.003 0.0032,-0.003 0.0028,-0.003 0.0032,-0.003 0.0028,-0.002 0.0028,-0.003 0.0032,-0.003 0.0028,-0.003 0.0025,-0.003 0.0036,-0.003 0.0028,-0.003 0.0032,-0.003 0.0025,-0.003 0.0028,-0.003 0.0028,-0.003 0.0035,-0.003 0.0025,-0.002 0.0028,-0.003 0.0028,-0.004 0.0062,-0.002 0.0028,-0.003 0.0028,-0.003 0.0032,-0.003 0.0021,-0.003 0.0032,-0.003 0.0032,-0.003 0.0028,-0.003 0.0028,-0.003 0.0032,-0.003 0.0025,-0.003 0.0032,-0.003 0.0028,-0.003 0.0025,-0.003 0.0032,-0.003 0.0028,-0.003 0.0032,-0.003 0.0032,-0.003 0.0032,-0.003 0.0021,-0.003 0.0032,-0.003 0.0028,-0.003 0.0028,-0.003 0.0028,-0.003 0.0032,-0.003 0.0028,-0.003 0.0052,-0.003 0.0035,-0.003 0.0028,-0.004 0.0028,-0.003 0.0025,-0.003 0.0032,-0.002 0.0028,-0.003 0.0036,-0.003 0.0025,-0.003 0.0028,-0.003 0.0032,-0.003 0.0028,-0.003 0.0028,-0.003 0.0032,-0.003 0.0028,-0.003 0.0032,-0.003 0.0028,-0.003 0.0028,-0.002 0.0032,-0.003 0.0028,-0.003 0.0025,-0.003 0.0028,-0.003 0.0032,-0.003 0.0028,-0.002 0.0028,-0.003 0.006,-0.003 0.0032,-0.002 0.0028,-0.003 0.0028,-0.003 0.0028,-0.003 0.0028,-0.003 0.0028,-0.003 0.0032,-0.002 0.0035,-0.003 0.0021,-0.003 0.0035,-0.003 0.0028,-0.003 0.0025,-0.003 0.0032,-0.003 0.0035,-0.003 0.0028,-0.002 0.0028,-0.003 0.0028,-0.003 0.0028,-0.003 0.0028,-0.002 0.0032,-0.003 0.0028,-0.003 0.0028,-0.004 0.0035,-0.003 0.0025,-0.003 0.0028,-0.003 0.0061,-0.003 0.0028,-0.003 0.0028,-0.003 0.0032,-0.003 0.0028,-0.003 0.0028,-0.003 0.0028,-0.003 0.0032,-0.003 0.0028,-0.003 0.0028,-0.003 0.0035,-0.003 0.0025,-0.003 0.0032,-0.003 0.0028,-0.003 0.0028,-0.003 0.0025,-0.003 0.0035,-0.003 0.0028,-0.003 0.0032,-0.003 0.0025,-0.003 0.0032,-0.003 0.0028,-0.003 0.0032,-0.003 0.0028,-0.003 0.0028,-0.002 0.006,-0.004 0.0028,-0.003 0.0028,-0.002 0.0028,-0.003 0.0028,-0.003 0.0032,-0.003 0.0028,-0.003 0.0032,-0.003 0.0028,-0.003 0.0032,-0.003 0.0028,-0.003 0.0028,-0.002 0.0028,-0.003 0.0032,-0.003 0.0028,-0.003 0.0028,-0.003 0.0028,-0.003 0.0032,-0.003 0.0028,-0.003 0.0032,-0.003 0.0025,-0.003 0.0032,-0.003 0.0028,-0.003 0.0028,-0.003 0.0032,-0.003 0.0058,-0.003 0.0028,-0.003 0.0028,-0.003 0.0028,-0.003 0.0032,-0.003 0.0032,-0.003 0.0028,-0.003 0.0032,-0.003 0.0028,-0.003 0.0035,-0.003 0.0025,-0.003 0.0032,-0.003 0.0028,-0.003 0.0025,-0.003 0.0035,-0.003 0.0028,-0.003 0.0025,-0.003 0.0032,-0.003 0.0028,-0.002 0.0028,-0.003 0.0032,-0.003 0.0032,-0.003 0.0028,-0.003 0.0025,-0.003 0.0032,-0.003 0.0028,-0.003 0.0063,-0.003 0.0025,-0.003 0.0032,-0.003 0.0028,-0.003 0.0035,-0.003 0.0025,-0.003 0.0032,-0.003 0.0028,-0.003 0.0028,-0.003 0.0028,-0.003 0.0035,-0.003 0.0025,-0.003 0.0035,-0.003 0.0028,-0.003 0.0028,-0.003 0.0032,-0.003 0.0028,-0.003 0.0028,-0.003 0.0028,-0.003 0.0028,-0.003 0.0028,-0.003 0.0028,-0.003 0.0032,-0.003 0.0028,-0.003 0.0028,-0.003 0.0062,-0.003 0.0025,-0.003 0.0032,-0.003 0.0028,-0.003 0.0032,-0.003 0.0028,-0.003 0.0028,-0.002 0.0032,-0.004 0.0028,-0.003 0.0028,-0.002 0.0035,-0.003 0.0021,-0.003 0.0032,-0.003 0.0032,-0.003 0.0028,-0.003 0.0025,-0.003 0.0036,-0.003 0.0025,-0.003 0.0035,-0.003 0.0032,-0.003 0.0028,-0.003 0.0028,-0.002 0.0028,-0.003 0.0028,-0.003 0.0028,-0.003 0.0032,-0.003 0.0058,-0.003 0.0032,-0.003 0.0028,-0.003 0.0028,-0.003 0.0032,-0.003 0.0035,-0.002 0.0021,-0.003 0.0028,-0.003 0.0032,-0.003 0.0028,-0.003 0.0025,-0.003 0.0032,-0.003 0.0028,-0.003 0.0028,-0.003 0.0032,-0.003 0.0028,-0.003 0.0028,-0.003 0.0028,-0.003 0.0025,-0.003 0.0032,-0.003 0.0032,-0.003 0.0028,-0.003 0.0028,-0.003 0.0032,-0.003 0.0028,-0.003 0.0055,-0.003 0.0036,-0.003 0.0025,-0.003 0.0028,-0.003 0.0025,-0.003 0.0032,-0.003 0.0032,-0.002 0.0028,-0.003 0.0028,-0.003 0.0028,-0.003 0.0032,-0.002 0.0028,-0.004 0.0032,-0.002 0.0028,-0.003 0.0028,-0.003 0.0032,-0.003 0.0028,-0.003 0.0032,-0.003 0.0028,-0.003 0.0028,-0.003 0.0025,-0.003 0.0035,-0.003 0.0032,-0.002 0.0028,-0.003 0.0028,-0.003 0.0063,-0.003 0.0025,-0.003 0.0028,-0.004 0.0032,-0.002 0.0028,-0.003 0.0032,-0.003 0.0025,-0.003 0.0028,-0.003 0.0032,-0.003 0.0028,-0.003 0.0028,-0.003 0.0032,-0.003 0.0025,-0.003 0.0035,-0.003 0.0028,-0.003 0.0028,-0.003 0.0028,-0.003 0.0032,-0.003 0.0028,-0.003 0.0028,-0.003 0.0032,-0.003 0.0028,-0.002 0.0028,-0.003 0.0032,-0.003 0.0025,-0.004 0.0032,-0.002 0.0059,-0.003 0.0025,-0.002 0.0032,-0.003 0.0025,-0.003 0.0028,-0.003 0.0035,-0.003 0.0028,-0.003 0.0025,-0.003 0.0032,-0.003 0.0028,-0.003 0.0028,-0.003 0.0028,-0.003 0.0032,-0.003 0.0028,-0.003 0.0028,-0.003 0.0028,-0.003 0.0028,-0.003 0.0032,-0.002 0.0028,-0.003 0.0028,-0.003 0.0028,-0.003 0.0028,-0.003 0.0032,-0.003 0.0028,-0.003 0.0028,-0.002 0.0059,-0.003 0.0032,-0.003 0.0028,-0.002 0.0025,-0.003 0.0032,-0.003 0.0028,-0.003 0.0028,-0.003 0.0028,-0.003 0.0028,-0.003 0.0032,-0.003 0.0028,-0.002 0.0032,-0.003 0.0032,-0.003 0.0028,-0.003 0.0032,-0.003 0.0028,-0.003 0.0028,-0.003 0.0032,-0.003 0.0025,-0.003 0.0032,-0.003 0.0032,-0.003 0.0032,-0.003 0.0028,-0.003 0.0025,-0.003 0.0035,-0.003 0.0032,-0.003 0.0053,-0.002 0.0032,-0.003 0.0028,-0.003 0.0028,-0.003 0.0035,-0.003 0.0025,-0.003 0.0032,-0.002 0.0028,-0.003 0.0028,-0.003 0.0028,-0.003 0.0032,-0.003 0.0025,-0.003 0.0028,-0.003 0.0032,-0.003 0.0028,-0.003 0.0025,-0.003 0.0035,-0.003 0.0032,-0.003 0.0028,-0.003 0.0028,-0.003 0.0025,-0.003 0.0032,-0.003 0.0028,-0.003 0.0028,-0.003 0.0028,-0.003 0.0058,-0.003 0.0032,-0.003 0.0028,-0.003 0.0025,-0.002 0.0032,-0.003 0.0032,-0.003 0.0021,-0.003 0.0032,-0.003 0.0032,-0.003 0.0025,-0.003 0.0028,-0.003 0.0032,-0.003 0.0028,-0.003 0.0028,-0.003 0.0028,-0.003 0.0032,-0.003 0.0025,-0.003 0.0032,-0.003 0.0028,-0.003 0.0028,-0.003 0.0028,-0.003 0.0028,-0.003 0.0028,-0.003 0.0032,-0.002 0.0032,-0.003 0.0058,-0.003 0.0028,-0.002 0.0028,-0.003 0.0028,-0.003 v 0.007 l -0.0028,0.0171 z m -0.325684,-0.0324 -0.0032,0.003 -0.0028,0.003 -0.0028,0.003 -0.0032,0.003 -0.0028,0.003 -0.0028,0.002 -0.0032,0.003 -0.0028,0.003 -0.0028,0.002 -0.0063,0.003 -0.0025,0.003 -0.0032,0.003 -0.0028,0.003 -0.0028,0.003 -0.0032,0.003 -0.0028,0.003 -0.0025,0.003 -0.0032,0.003 -0.0028,0.003 -0.0032,0.003 -0.0028,0.003 -0.0025,0.003 -0.0032,0.003 -0.0032,0.003 -0.0028,0.003 -0.0028,0.003 -0.0032,0.003 -0.0035,0.003 -0.0025,0.002 -0.0028,0.003 -0.0028,0.003 -0.0032,0.003 -0.0028,0.003 -0.0032,0.003 -0.0056,0.003 -0.0032,0.003 -0.0028,0.003 -0.0032,0.003 -0.0028,0.003 -0.0028,0.003 -0.0028,0.003 -0.0032,0.003 -0.0032,0.003 -0.0025,0.003 -0.0028,0.003 -0.0025,0.003 -0.0036,0.003 -0.0028,0.003 -0.0028,0.003 -0.0028,0.003 -0.0032,0.002 -0.0028,0.003 -0.0028,0.003 -0.0032,0.003 -0.0032,0.003 -0.0025,0.003 -0.0028,0.002 -0.0028,0.003 -0.0028,0.003 -0.0032,0.003 -0.0055,0.003 -0.0032,0.003 -0.0025,0.003 -0.0028,0.003 -0.0032,0.003 -0.0028,0.003 -0.0021,0.003 -0.0035,0.003 -0.0032,0.003 -0.0028,0.003 -0.0028,0.003 -0.0032,0.003 -0.0025,0.002 -0.0032,0.003 -0.0032,0.003 -0.0028,0.003 -0.0028,0.003 -0.0028,0.003 -0.0028,0.003 -0.0028,0.003 -0.0032,0.002 -0.0035,0.003 -0.0025,0.003 -0.0036,0.002 -0.0025,0.003 -0.0061,0.003 -0.0032,0.003 -0.0021,0.003 -0.0035,0.003 -0.0028,0.003 -0.0028,0.002 -0.0032,0.003 -0.0028,0.003 -0.0028,0.003 -0.0032,0.003 -0.0028,0.003 -0.0032,0.003 -0.0025,0.003 -0.0032,0.003 -0.0028,0.003 -0.0028,0.003 -0.0028,0.003 -0.0032,0.003 -0.0028,0.003 -0.0028,0.003 -0.0028,0.003 -0.0028,0.002 -0.0028,0.003 -0.0028,0.002 -0.0032,0.004 -0.0028,0.003 -0.0061,0.003 -0.0025,0.002 -0.0035,0.003 -0.0028,0.003 -0.0028,0.003 -0.0028,0.003 -0.0032,0.003 -0.0025,0.003 -0.0035,0.003 -0.0028,0.003 -0.0032,0.003 -0.0025,0.003 -0.0032,0.003 -0.0028,0.003 -0.0028,0.003 -0.0032,0.003 -0.0025,0.003 -0.0028,0.003 -0.0032,0.003 -0.0032,0.002 -0.0028,0.004 -0.0028,0.003 -0.0032,0.003 -0.0025,0.003 -0.0028,0.003 -0.006,0.002 -0.0028,0.003 -0.0032,0.003 -0.0025,0.003 -0.0035,0.003 -0.0028,0.003 -0.0032,0.003 -0.0028,0.003 -0.0032,0.003 -0.0032,0.003 -0.0028,0.002 -0.0028,0.004 -0.0028,0.002 -0.0025,0.003 -0.0032,0.003 -0.0032,0.003 -0.0028,0.002 -0.0028,0.003 -0.0032,0.003 -0.0025,0.003 -0.0032,0.003 -0.0028,0.003 -0.0032,0.003 -0.0028,0.003 -0.0028,0.003 -0.0061,0.003 -0.0028,0.003 -0.0028,0.003 -0.0028,0.003 -0.0032,0.003 -0.0028,0.003 -0.0032,0.003 -0.0028,0.003 -0.0032,0.003 -0.0028,0.003 -0.0028,0.003 -0.0028,0.003 -0.0028,0.003 -0.0028,0.003 -0.0032,0.003 -0.0028,0.003 -0.0028,0.003 -0.0032,0.002 -0.0028,0.003 -0.0032,0.003 -0.0025,0.003 -0.0032,0.003 -0.0028,0.003 -0.0035,0.003 -0.0025,0.003 -0.0028,0.003 -0.0059,0.003 -0.0025,0.002 -0.0035,0.003 -0.0028,0.003 -0.0028,0.003 -0.0032,0.003 -0.0028,0.003 -0.0028,0.003 -0.0028,0.003 -0.0032,0.003 -0.0028,0.003 -0.0028,0.003 -0.0028,0.003 -0.0032,0.002 -0.0028,0.003 -0.0025,0.004 -0.0035,0.002 -0.0028,0.003 -0.0028,0.003 -0.0032,0.003 -0.0028,0.003 -0.0028,0.003 -0.0028,0.003 -0.0028,0.003 -0.0028,0.003 -0.0065,0.003 -0.0025,0.003 -0.0028,0.003 -0.0035,0.003 -0.0021,0.003 -0.0035,0.003 -0.0032,0.003 -0.0028,0.003 -0.0028,0.003 -0.0028,0.003 -0.0028,0.003 -0.0028,0.003 -0.0032,0.003 -0.0028,0.003 -0.0032,0.003 -0.0028,0.003 -0.0028,0.003 -0.0032,0.003 -0.0028,0.003 -0.0025,0.003 -0.0028,0.003 -0.0032,0.003 -0.0028,0.003 -0.0028,0.003 -0.0032,0.003 -0.0028,0.003 -0.006,0.003 -0.0028,0.003 -0.0032,0.003 -0.0028,0.003 -0.0025,0.002 -0.0036,0.003 -0.0028,0.003 -0.0032,0.003 -0.0025,0.003 -0.0028,0.003 -0.0028,0.003 -0.0035,0.003 -0.0025,0.003 -0.0028,0.003 -0.0028,0.003 -0.0032,0.003 -0.0028,0.003 -0.0028,0.003 -0.0028,0.003 -0.0032,0.003 -0.0021,0.003 -0.0032,0.003 -0.0032,0.003 -0.0032,0.003 -0.0028,0.003 -0.0057,0.003 -0.0028,0.003 -0.0032,0.003 -0.0025,0.003 -0.0032,0.003 -0.0028,0.003 -0.0028,0.003 -0.0032,0.003 -0.0032,0.003 -0.0021,0.003 -0.0032,0.003 -0.0028,0.002 -0.0028,0.003 -0.0028,0.003 -0.0032,0.003 -0.0028,0.003 -0.0028,0.003 -0.0025,0.003 -0.0035,0.003 -0.0028,0.003 -0.0028,0.002 -0.0025,0.003 -0.0032,0.004 -0.0028,0.002 -0.0036,0.003 -0.0025,0.003 -0.0061,0.003 -0.0028,0.003 -0.0028,0.003 -0.0032,0.003 -0.0028,0.003 -0.0032,0.003 -0.0028,0.003 -0.0028,0.003 -0.0032,0.003 -0.0028,0.003 -0.0025,0.003 -0.0028,0.003 -0.0032,0.003 -0.0028,0.003 -0.0028,0.003 -0.0032,0.003 -0.0028,0.003 -0.0032,0.003 -0.0028,0.003 -0.0028,0.003 -0.0028,0.003 -0.0028,0.003 -0.0028,0.003 -0.0032,0.003 -0.0035,0.003 -0.0057,0.004 -0.0028,0.003 -0.0025,0.003 -0.0032,0.002 -0.0035,0.003 -0.0028,0.003 -0.0028,0.003 -0.0028,0.002 -0.0028,0.003 -0.0028,0.003 -0.0032,0.003 -0.0025,0.003 -0.0032,0.003 -0.0032,0.003 -0.0025,0.003 -0.0032,0.002 -0.0032,0.003 -0.0028,0.003 -0.0028,0.003 -0.0032,0.003 -0.0032,0.003 -0.0028,0.002 -0.0028,0.003 -0.0028,0.003 -0.0032,0.002 -0.0028,0.003 -0.0061,0.003 -0.0025,0.003 -0.0028,0.003 -0.0032,0.003 -0.0028,0.002 -0.0025,0.003 -0.0035,0.003 -0.0028,0.003 -0.0032,0.003 -0.0025,0.003 -0.0032,0.003 -0.0028,0.003 -0.0032,0.003 -0.0028,0.003 -0.0028,0.003 -0.0032,0.003 -0.0025,0.002 -0.0032,0.003 -0.0025,0.003 -0.0028,0.004 -0.0028,0.003 -0.0032,0.003 -0.0028,0.003 -0.0032,0.003 -0.0028,0.003 -0.006,0.003 -0.0028,0.003 -0.0028,0.003 -0.0032,0.003 -0.0028,0.003 -0.0028,0.003 -0.0028,0.003 -0.0032,0.003 -0.0028,0.003 -0.0032,0.003 -0.0025,0.003 -0.0032,0.003 -0.0028,0.003 -0.0028,0.003 -0.0032,0.003 -0.0032,0.003 -0.0025,0.003 -0.0028,0.003 -0.0028,0.003 -0.0028,0.003 -0.0032,0.003 -0.0032,0.003 -0.0028,0.002 -0.0032,0.004 -0.0025,0.003 -0.0032,0.002 -0.0028,0.003 -0.0032,0.006 -0.0028,0.003 -0.0025,0.006 -0.0035,0.006 -0.0028,0.006 -0.0025,0.009 -0.0021,0.015 -0.0011,-0.0118 -0.0028,-0.0119 -0.0028,-0.009 -0.0032,-0.0116 -0.0032,-0.0117 -0.0028,-0.0119 -0.0025,-0.0118 -0.0032,-0.009 -0.0028,-0.0116 -0.0028,-0.0117 -0.0032,-0.0119 -0.0025,-0.0116 -0.0032,-0.009 -0.0028,-0.0121 -0.0035,-0.0119 -0.0025,-0.0117 -0.0032,-0.0114 -0.0028,-0.009 -0.0028,-0.0115 -0.0028,-0.0115 -0.0035,-0.009 -0.0025,-0.009 -0.0035,-0.006 -0.0025,-0.006 -0.0028,-0.003 -0.0032,-0.006 -0.0028,-0.003 -0.0028,-0.003 -0.0028,-0.002 -0.0028,-0.003 -0.0028,-0.003 -0.0028,-0.004 -0.0032,-0.003 -0.0028,-0.003 -0.0028,-0.003 -0.0062,-0.003 -0.0025,-0.003 -0.0058,-0.003 -0.0062,-0.003 -0.0089,-0.003 -0.0061,-0.003 -0.0084,-0.003 -0.0053,-0.003 -0.0094,-0.003 -0.0089,-0.003 -0.0057,-0.003 -0.0092,-0.003 -0.0055,-0.003 -0.0089,-0.003 -0.0086,-0.003 -0.006,-0.003 -0.0088,-0.003 -0.0087,-0.003 -0.0059,-0.003 -0.009,-0.003 -0.0058,-0.003 -0.0084,-0.003 -0.0092,-0.003 -0.0055,-0.003 -0.0092,-0.002 -0.0056,-0.004 -0.0092,-0.003 -0.0089,-0.002 -0.006,-0.003 -0.008,-0.003 -0.0094,-0.003 -0.0058,-0.003 -0.0087,-0.003 -0.0056,-0.003 -0.0091,-0.003 -0.0088,-0.003 -0.0056,-0.002 -0.0093,-0.003 -0.0087,-0.003 -0.0059,-0.003 -0.0089,-0.003 -0.0059,-0.003 -0.0085,-0.003 -0.0086,-0.003 -0.0065,-0.003 -0.0087,-0.003 -0.0056,-0.003 -0.0089,-0.003 -0.0088,-0.003 -0.006,-0.003 -0.0087,-0.003 -0.0087,-0.003 -0.0061,-0.003 -0.0089,-0.003 -0.0057,-0.003 -0.0087,-0.003 -0.009,-0.003 -0.0058,-0.003 -0.0089,-0.003 -0.0088,-0.003 -0.0059,-0.003 -0.0091,-0.003 -0.0053,-0.003 -0.0087,-0.003 -0.009,-0.003 -0.0057,-0.003 0.0057,-0.003 0.0056,-0.003 0.0088,-0.002 0.0065,-0.003 0.0088,-0.003 0.0052,-0.003 0.0093,-0.003 0.0056,-0.003 0.009,-0.003 0.0058,-0.003 0.0089,-0.003 0.0057,-0.003 0.0089,-0.003 0.0057,-0.003 0.009,-0.003 0.0058,-0.003 0.0087,-0.003 0.006,-0.003 0.0088,-0.003 0.0057,-0.003 0.0088,-0.003 0.0061,-0.003 0.0091,-0.003 0.0086,-0.003 0.0058,-0.003 0.0086,-0.003 0.0061,-0.003 0.0087,-0.003 0.006,-0.003 0.0086,-0.003 0.0058,-0.003 0.0089,-0.003 0.0061,-0.003 0.0084,-0.003 0.0063,-0.003 0.0088,-0.003 0.0055,-0.003 0.0089,-0.003 0.0057,-0.003 0.0093,-0.003 0.0056,-0.003 0.0092,-0.002 0.0056,-0.004 0.0092,-0.003 0.0055,-0.002 0.0092,-0.003 0.0053,-0.003 0.0089,-0.003 0.0064,-0.003 0.0085,-0.003 0.0059,-0.003 0.0088,-0.003 0.0059,-0.003 0.008,-0.003 0.0066,-0.003 0.0088,-0.003 0.0058,-0.002 0.0087,-0.003 0.0059,-0.003 0.0093,-0.003 0.0083,-0.003 0.0061,-0.003 0.0087,-0.003 0.0057,-0.003 0.0089,-0.003 0.006,-0.003 0.0089,-0.002 0.0057,-0.003 0.0089,-0.003 0.0059,-0.003 0.0085,-0.003 0.0061,-0.003 0.0085,-0.003 0.0063,-0.003 0.0088,-0.003 0.006,-0.003 0.0082,-0.003 0.0063,-0.003 0.0087,-0.003 0.0059,-0.003 0.0088,-0.003 0.0057,-0.003 0.0089,-0.003 0.0061,-0.003 0.0086,-0.003 0.0058,-0.003 0.0091,-0.003 0.0058,-0.003 0.009,-0.003 0.0056,-0.003 0.0089,-0.003 0.006,-0.003 0.0087,-0.002 0.0061,-0.003 0.0087,-0.003 0.0059,-0.003 0.0088,-0.002 0.0055,-0.004 0.0089,-0.002 0.0089,-0.003 0.0059,-0.003 0.0086,-0.003 0.0059,-0.003 0.0089,-0.003 0.006,-0.003 0.0089,-0.003 0.0056,-0.003 0.0091,-0.003 0.0056,-0.002 0.0088,-0.003 0.0064,-0.003 0.0084,-0.003 0.006,-0.003 0.0088,-0.004 0.0055,-0.002 0.0086,-0.003 0.0066,-0.003 0.0086,-0.003 0.0057,-0.003 0.0091,-0.003 0.0056,-0.003 0.0087,-0.003 0.0062,-0.003 0.0087,-0.003 0.0059,-0.003 0.0089,-0.003 0.0054,-0.003 0.0097,-0.003 0.0054,-0.003 0.0088,-0.003 0.0056,-0.003 0.0091,-0.003 0.0062,-0.002 0.0086,-0.003 0.0058,-0.003 0.0087,-0.004 0.0087,-0.002 0.0058,-0.003 0.0086,-0.002 0.0062,-0.003 0.0091,-0.003 0.0056,-0.003 0.0088,-0.003 0.0054,-0.003 0.0097,-0.003 0.0054,-0.003 0.0089,-0.003 0.0059,-0.003 0.0087,-0.003 0.0062,-0.003 0.0087,-0.003 0.0056,-0.003 0.0091,-0.003 0.0057,-0.003 0.0086,-0.002 0.0066,-0.003 0.0086,-0.003 0.0055,-0.003 0.0088,-0.003 0.006,-0.003 0.0088,-0.003 0.0063,-0.002 0.0085,-0.003 0.0056,-0.003 0.0091,-0.002 0.0056,-0.003 0.0089,-0.003 0.006,-0.003 0.0089,-0.003 0.0059,-0.003 0.0086,-0.003 0.0059,-0.003 0.0089,-0.002 0.0089,-0.003 0.0057,-0.003 0.0086,-0.003 0.0059,-0.003 0.0087,-0.003 0.0061,-0.003 0.0087,-0.003 0.006,-0.003 0.0089,-0.003 0.0056,-0.003 0.009,-0.003 0.0058,-0.003 0.0091,-0.003 0.0058,-0.003 0.0086,-0.003 0.0061,-0.002 0.0089,-0.003 0.0057,-0.003 0.0088,-0.003 0.0059,-0.003 0.0087,-0.003 0.0063,-0.002 0.0082,-0.003 0.006,-0.003 0.0088,-0.003 0.0063,-0.003 0.0086,-0.003 0.006,-0.003 0.0085,-0.003 0.0059,-0.003 0.0089,-0.003 0.0057,-0.003 0.0089,-0.003 0.006,-0.003 0.0089,-0.003 0.0057,-0.003 0.0087,-0.003 0.0061,-0.003 0.0083,-0.003 0.0093,-0.003 0.0059,-0.003 0.0087,-0.003 0.0058,-0.003 0.0088,-0.002 0.0066,-0.003 0.0083,-0.003 0.0056,-0.003 0.0088,-0.003 0.0059,-0.003 0.0085,-0.003 0.0064,-0.003 0.0089,-0.003 0.0058,-0.003 0.0087,-0.003 0.0055,-0.003 0.0092,-0.003 0.0056,-0.003 0.0092,-0.003 0.0056,-0.003 0.0093,-0.003 0.0057,-0.003 0.0089,-0.003 0.0055,-0.003 0.0088,-0.002 0.0063,-0.003 0.0084,-0.003 0.0061,-0.002 0.0089,-0.003 0.0058,-0.003 0.0086,-0.003 0.006,-0.003 0.0087,-0.003 0.0061,-0.002 h 0.0025 l -0.0025,0.002 z"
       style="fill:#ffffff;fill-opacity:1;fill-rule:evenodd;stroke:none;stroke-width:0.352778"
       id="path240" />
  </g>
</svg>
