<?xml version="1.0" encoding="UTF-8" standalone="no"?>
<!-- Created with Inkscape (http://www.inkscape.org/) -->

<svg
   version="1.1"
   id="svg2"
   xml:space="preserve"
   width="2019.0569"
   height="1292.0492"
   viewBox="0 0 2019.0569 1292.0492"
   sodipodi:docname="vecteezy_business-handshake-vector-icon_.svg"
   inkscape:version="1.2.2 (b0a8486541, 2022-12-01)"
   xmlns:inkscape="http://www.inkscape.org/namespaces/inkscape"
   xmlns:sodipodi="http://sodipodi.sourceforge.net/DTD/sodipodi-0.dtd"
   xmlns="http://www.w3.org/2000/svg"
   xmlns:svg="http://www.w3.org/2000/svg"><defs
     id="defs6" /><sodipodi:namedview
     id="namedview4"
     pagecolor="#ffffff"
     bordercolor="#666666"
     borderopacity="1.0"
     inkscape:pageshadow="2"
     inkscape:pageopacity="0.0"
     inkscape:pagecheckerboard="0"
     inkscape:showpageshadow="2"
     inkscape:deskcolor="#d1d1d1"
     showgrid="false"
     inkscape:zoom="0.39496964"
     inkscape:cx="1268.4519"
     inkscape:cy="643.0874"
     inkscape:window-width="1920"
     inkscape:window-height="1011"
     inkscape:window-x="0"
     inkscape:window-y="0"
     inkscape:window-maximized="1"
     inkscape:current-layer="g8" /><g
     id="g8"
     inkscape:groupmode="layer"
     inkscape:label="ink_ext_XXXXXX"
     transform="matrix(1.3333333,0,0,-1.3333333,-390.47134,2046.0227)"><path
       d="m 1844.2725,-1800.0271 h 2100 V 299.97288 h -2100 z"
       style="fill:#ffffff;fill-opacity:1;fill-rule:nonzero;stroke:none;stroke-width:0.1"
       id="path12" /><path
       d="m 884.195,571.574 c -19.929,9.082 -35.09,23.11 -44.062,40.77 l -7.903,15.547 -20.8,-0.852 c -35.696,-1.457 -65.004,16.356 -81.121,49.293 -9.071,18.535 -9.184,18.621 -24.93,18.695 -41.344,0.2 -79.688,35.727 -84.758,78.528 -1.812,15.293 -2.851,16.859 -12.617,18.965 -28.195,6.082 -54.512,29.14 -65.203,57.128 -8.641,22.629 -6.125,55.243 5.633,73.008 l 8.847,13.371 -24.66,30.563 c -35.766,44.33 -33.016,43.37 -47.949,16.672 -10.52,-18.813 -15.254,-23.809 -27.844,-29.379 -10.187,-4.504 -18.531,-5.973 -25.398,-4.465 -10.957,2.406 -112.629,62.602 -124.793,73.882 -4.02,3.73 -9.164,13.41 -11.434,21.51 -3.605,12.87 -3.285,16.61 2.524,29.63 3.66,8.2 55.597,101.73 115.425,207.84 59.828,106.11 113.914,202.48 120.196,214.16 6.281,11.67 15.343,24.31 20.136,28.08 11.266,8.86 29.079,12.11 41.903,7.64 17.011,-5.93 112.793,-66.02 121.246,-76.06 12.84,-15.26 13.98,-31.01 3.84,-53.16 -4.793,-10.47 -8.719,-19.48 -8.719,-20.01 0,-2.54 54.355,-32.03 64.879,-35.2 6.574,-1.99 28.801,-6.18 49.394,-9.32 l 37.446,-5.72 5.144,8.09 c 25.129,39.5 81.442,55.06 227.293,62.79 53.46,2.83 101.62,-2.34 176.98,-19.03 33.49,-7.41 68.22,-13.48 77.18,-13.48 13.33,0 35.7,4.81 40.61,8.73 0.61,0.49 -2.85,8.31 -7.69,17.39 -11.14,20.95 -11.53,40.55 -1.1,55.84 5.1,7.49 26.59,22.73 64.02,45.4 64.07,38.81 75.91,42.42 95.52,29.09 13.19,-8.95 14.82,-11.63 105.84,-173.52 34.32,-61.04 83.7,-148.68 109.73,-194.76 26.04,-46.07 48.29,-88.58 49.47,-94.45 2.83,-14.17 -3.43,-32.08 -14.9,-42.61 -12.64,-11.61 -109.57,-69.744 -120.58,-72.315 -19.64,-4.585 -42.09,8.555 -54.54,31.934 -12.79,24.021 -10.85,24.211 -39.75,-3.812 -14.65,-14.207 -33.12,-30.09 -41.04,-35.293 -14.2,-9.329 -14.33,-9.602 -9.39,-19.157 2.75,-5.332 4.98,-18.605 4.94,-29.496 -0.18,-45.629 -31.62,-80.75 -76.44,-85.375 l -17.59,-1.816 -5.98,-20.278 c -7.9,-26.812 -28.43,-47.968 -53.88,-55.527 -9.91,-2.941 -21.51,-5.348 -25.8,-5.348 -6.28,0 -8.52,-2.8 -11.61,-14.511 -5.72,-21.696 -19.16,-42.664 -33.34,-52.004 -7.78,-5.129 -22.42,-9.891 -38.22,-12.43 -25.04,-4.023 -26.02,-4.558 -43.71,-23.918 -45.05,-49.304 -102.62,-55.328 -208.23,-21.789 l -26.172,8.309 -15.519,-16.797 c -8.539,-9.235 -21.207,-19.168 -28.156,-22.07 -16.922,-7.075 -45.555,-6.571 -62.368,1.093 z m 57.442,55.942 c 31.062,38.199 50.121,68.336 50.121,79.246 0,16.23 -12.965,33.379 -29.633,39.183 -12.523,4.367 -14.965,4.293 -22.516,-0.652 -9.086,-5.957 -54.613,-65.008 -61.113,-79.266 -9.73,-21.363 13.063,-53.027 38.172,-53.027 11.367,0 14.785,1.988 24.969,14.516 z m 211.703,2.804 c 7.18,1.992 19.28,9.25 26.89,16.125 l 13.84,12.504 -75.41,36.492 c -66.6,32.231 -75.68,37.59 -77.77,45.934 -3.04,12.109 4.31,25.484 16.17,29.422 7.6,2.527 21.23,-3.024 90.49,-36.86 76.35,-37.304 82.86,-39.851 102.49,-40.05 26.09,-0.266 36.98,6.14 42.65,25.105 3.44,11.438 3.31,14.594 -0.71,18.32 -2.66,2.481 -43.27,26.461 -90.22,53.293 -46.95,26.832 -88.05,51.098 -91.34,53.926 -9.43,8.114 -7.74,26.106 3.27,34.762 5.54,4.359 12.06,6.562 16.29,5.5 3.88,-0.973 49.76,-26.414 101.97,-56.535 83,-47.887 96.79,-54.766 109.83,-54.766 8.2,0 18.85,1.5 23.66,3.328 12.19,4.633 22.79,22.996 21.65,37.473 -0.92,11.582 -2.62,12.785 -103.71,73.418 -56.53,33.898 -105.32,63.746 -108.42,66.324 -8.67,7.215 -7.47,29.496 1.95,36.098 4.18,2.922 10.28,5.316 13.57,5.316 3.28,0 58.49,-31.504 122.68,-70.004 105.18,-63.093 118.2,-70 131.9,-70 12.73,0 17.08,1.883 26.81,11.61 9.21,9.211 11.61,14.347 11.61,24.851 0,22.266 -9.33,31.918 -92.2,95.367 -109.41,83.777 -190.01,136.267 -302.97,197.297 l -48.58,26.25 -23.98,-7.28 c -13.19,-4.01 -23.992,-8.55 -23.992,-10.09 0,-6.58 -53.707,-59.13 -74.688,-73.07 -31.105,-20.69 -67.965,-32.74 -100.117,-32.74 -43.887,0 -62.879,17.41 -62.047,56.88 0.567,26.93 8.832,44.94 46.336,100.99 l 29.086,43.47 -12.336,2.12 c -60.207,10.33 -71.269,14.16 -110.558,38.21 -10.829,6.63 -20.286,11.44 -21.02,10.69 -3.137,-3.22 -162.469,-287.16 -162.469,-289.53 0,-1.44 4.004,-6.34 8.895,-10.89 4.894,-4.55 18.988,-20.97 31.32,-36.49 l 22.422,-28.219 7.145,6.711 c 20.296,19.068 57.875,22.768 86.472,8.516 16.278,-8.114 34.977,-25.227 39.5,-36.149 1.489,-3.594 2.707,-3.332 5.586,1.196 17.899,28.175 38.481,40.304 68.395,40.304 25.07,0 39.074,-5.433 57.949,-22.484 17.508,-15.82 27.187,-34.094 29.816,-56.289 1.649,-13.903 3.188,-16.84 8.828,-16.84 12.192,0 37.153,-14.934 50.715,-30.344 14.149,-16.074 23.453,-40.863 23.453,-62.472 0,-9.465 1.442,-13.04 5.258,-13.04 8.758,0 30.831,-12.71 42.721,-24.601 28.41,-28.406 35.46,-75.137 15.83,-104.813 l -9.34,-14.109 7.77,-2.937 c 8.59,-3.254 60.93,-16.282 74.35,-18.512 16.91,-2.809 39.52,-2.238 52.31,1.312 z M 872.352,741.055 c 42.738,58.437 44.863,62.113 43.183,74.648 -3.187,23.813 -29.836,42.754 -50.121,35.629 -8.285,-2.914 -90.394,-110.699 -96.711,-126.957 -6.543,-16.844 10.09,-43.871 30.535,-49.605 18.25,-5.122 26.098,1.992 73.114,66.285 z m -149.864,5.972 c 2.864,2.348 24.168,30.391 47.34,62.321 23.172,31.925 47.242,64.089 53.492,71.468 13.465,15.899 14.891,31.286 4.469,48.153 -9.316,15.074 -30.965,23.976 -43.512,17.89 -5.132,-2.492 -31.953,-35.574 -62.929,-77.629 -57.95,-78.671 -60.789,-84.875 -48.442,-105.773 10.641,-18.012 36.992,-26.746 49.582,-16.43 z m -81.742,95.614 c 11.563,9.101 43.692,58.457 43.68,67.093 -0.016,11.18 -10.723,29.004 -21.762,36.239 -5.117,3.351 -13.578,5.105 -21.504,4.453 -11.953,-0.985 -14.883,-3.489 -34.406,-29.403 -18.051,-23.957 -21.344,-30.472 -21.344,-42.234 0,-11.598 2.199,-16.102 13.258,-27.16 10.242,-10.242 15.918,-13.258 24.957,-13.258 6.438,0 14.141,1.922 17.121,4.27 z m 865.734,138.293 c 7.59,5.168 27.27,22.206 43.75,37.876 29.94,28.45 29.96,28.48 24.64,37.56 -2.93,4.99 -39.47,69.77 -81.2,143.96 -41.73,74.18 -76.12,135.18 -76.42,135.54 -0.3,0.37 -11.93,-2.32 -25.84,-5.97 -31.99,-8.4 -55.32,-8.29 -94.03,0.44 -119.49,26.95 -142.38,29.41 -222.99,23.95 -65.16,-4.41 -124.769,-13.34 -144.382,-21.63 -9.981,-4.21 -20.797,-17.39 -58.516,-71.31 -56.996,-81.47 -66.324,-96.73 -69.441,-113.59 l -2.461,-13.29 24.406,1.74 c 43.192,3.09 86.879,31.55 125.512,81.75 15.101,19.63 15.496,19.87 53.492,31.98 l 38.27,12.21 37.57,-18.87 c 117.6,-59.09 250.39,-145.2 368.78,-239.12 22.54,-17.883 41.9,-32.535 43.02,-32.562 1.13,-0.028 8.26,4.172 15.84,9.336 z M 451.684,1021.91 c 7.371,12.68 28.019,49.17 45.879,81.1 17.859,31.93 65.675,117.08 106.257,189.24 40.582,72.15 73.789,132.1 73.789,133.22 0,1.12 -21.339,15.28 -47.418,31.46 l -47.414,29.43 -83.015,-147.28 c -127.528,-226.26 -156.797,-278.8 -156.766,-281.44 0.024,-2.43 88.297,-58.054 92.871,-58.527 1.324,-0.136 8.442,10.117 15.817,22.797 z m 1260.746,5.13 c 26.01,15.49 46.99,29.03 46.61,30.09 -3.7,10.43 -240.44,426.62 -242.67,426.62 -2.33,0 -64.99,-37.52 -90.41,-54.14 -4.49,-2.94 5.6,-21.47 201.69,-370.14 18.75,-33.33 34.85,-60.607 35.79,-60.607 0.94,0 22.99,12.677 48.99,28.177 z"
       style="fill:#000000;fill-opacity:1;fill-rule:nonzero;stroke:none;stroke-width:0.1"
       id="path14" /></g></svg>
