<?xml version="1.0" encoding="UTF-8" standalone="no"?>
<!-- Created with Inkscape (http://www.inkscape.org/) -->

<svg
   width="4.5869899mm"
   height="4.5869999mm"
   viewBox="0 0 4.5869899 4.5869999"
   version="1.1"
   id="svg561"
   inkscape:version="1.2.2 (b0a8486541, 2022-12-01)"
   sodipodi:docname="vk.svg"
   xmlns:inkscape="http://www.inkscape.org/namespaces/inkscape"
   xmlns:sodipodi="http://sodipodi.sourceforge.net/DTD/sodipodi-0.dtd"
   xmlns="http://www.w3.org/2000/svg"
   xmlns:svg="http://www.w3.org/2000/svg">
  <sodipodi:namedview
     id="namedview563"
     pagecolor="#ffffff"
     bordercolor="#000000"
     borderopacity="0.25"
     inkscape:showpageshadow="2"
     inkscape:pageopacity="0.0"
     inkscape:pagecheckerboard="0"
     inkscape:deskcolor="#d1d1d1"
     inkscape:document-units="mm"
     showgrid="false"
     inkscape:zoom="44.58541"
     inkscape:cx="11.23686"
     inkscape:cy="12.089157"
     inkscape:window-width="1920"
     inkscape:window-height="1011"
     inkscape:window-x="0"
     inkscape:window-y="0"
     inkscape:window-maximized="1"
     inkscape:current-layer="layer1" />
  <defs
     id="defs558" />
  <g
     inkscape:label="Layer 1"
     inkscape:groupmode="layer"
     id="layer1"
     transform="translate(-109.36635,-207.73335)">
    <path
       d="m 111.65986,207.73335 c 1.26641,0 2.29348,1.02708 2.29348,2.29348 0,1.26641 -1.02707,2.29352 -2.29348,2.29352 -1.2664,0 -2.29351,-1.02711 -2.29351,-2.29352 0,-1.2664 1.02711,-2.29348 2.29351,-2.29348"
       style="fill:#f57c3f;fill-opacity:1;fill-rule:evenodd;stroke:none;stroke-width:0.352778"
       id="path226" />
    <path
       d="m 111.22944,209.37275 -0.0366,0.009 -0.0275,0.009 -0.009,0.009 -0.0182,0.009 -0.009,0.009 -0.009,0.009 -0.009,0.009 -0.009,0.009 -0.009,0.0182 v 0.0184 l 0.0274,0.009 0.0275,0.009 0.0275,0.009 0.009,0.009 0.0184,0.009 0.009,0.009 0.009,0.009 0.009,0.0184 0.009,0.0183 0.009,0.0366 0.009,0.055 v 0.30212 l -0.009,0.055 -0.009,0.0366 -0.009,0.0274 -0.009,0.009 -0.009,0.009 h -0.055 l -0.009,-0.009 -0.009,-0.009 -0.0184,-0.009 -0.009,-0.009 -0.009,-0.009 -0.009,-0.0184 -0.009,-0.009 -0.009,-0.009 -0.009,-0.009 -0.009,-0.0183 -0.009,-0.009 -0.009,-0.009 -0.009,-0.0184 -0.009,-0.0183 -0.009,-0.009 -0.009,-0.009 -0.009,-0.0183 -0.009,-0.0183 -0.009,-0.009 -0.009,-0.0184 -0.009,-0.0182 -0.009,-0.009 -0.009,-0.0184 -0.009,-0.0182 -0.009,-0.0184 -0.009,-0.009 -0.009,-0.0182 -0.009,-0.0184 -0.009,-0.0182 -0.009,-0.0184 -0.009,-0.0182 -0.009,-0.0184 -0.009,-0.0183 -0.009,-0.0183 -0.009,-0.0183 -0.009,-0.0275 -0.009,-0.0183 -0.009,-0.0184 -0.009,-0.0274 -0.009,-0.0184 -0.009,-0.0182 -0.009,-0.009 -0.009,-0.009 -0.009,-0.009 -0.009,-0.009 -0.0274,-0.009 -0.0276,-0.009 h -0.2655 l -0.18299,0.009 -0.0276,0.009 -0.009,0.009 -0.009,0.0182 v 0.055 l 0.009,0.0274 0.009,0.0184 0.009,0.0182 0.009,0.0184 0.009,0.0183 0.009,0.0183 0.009,0.0275 0.009,0.0183 0.009,0.0183 0.009,0.0184 0.009,0.0182 0.009,0.0184 0.009,0.0182 0.009,0.0184 0.009,0.0182 0.009,0.0184 0.009,0.0182 0.009,0.0184 0.009,0.0183 0.009,0.009 0.009,0.0275 0.009,0.0183 0.009,0.009 0.009,0.0183 0.009,0.0184 0.009,0.0182 0.009,0.0184 0.009,0.0182 0.009,0.009 0.009,0.0184 0.009,0.0182 0.009,0.0184 0.009,0.009 0.009,0.0182 0.009,0.0184 0.009,0.009 0.009,0.0184 0.009,0.009 0.009,0.0182 0.009,0.0184 0.009,0.009 0.009,0.0183 0.009,0.0184 0.009,0.009 0.009,0.009 0.009,0.0183 0.009,0.0183 0.009,0.009 0.009,0.0182 0.009,0.009 0.009,0.009 0.009,0.0182 0.009,0.009 0.009,0.009 0.009,0.0184 0.009,0.009 0.009,0.0184 0.009,0.009 0.009,0.009 0.009,0.0184 0.009,0.009 0.009,0.009 0.009,0.009 0.009,0.009 0.009,0.009 0.009,0.0182 0.009,0.009 0.009,0.009 0.009,0.009 0.009,0.009 0.009,0.009 0.009,0.009 0.009,0.009 0.009,0.009 0.009,0.009 0.009,0.009 0.009,0.009 0.009,0.009 0.009,0.009 0.009,0.009 0.009,0.009 0.0182,0.009 0.009,0.009 0.009,0.009 0.009,0.009 0.0182,0.009 0.009,0.009 0.009,0.009 0.0182,0.009 0.009,0.009 0.0184,0.009 0.009,0.009 0.0184,0.009 0.0183,0.009 0.0183,0.009 0.0184,0.009 0.0182,0.009 0.0184,0.009 0.0183,0.009 0.0274,0.009 0.0276,0.009 0.0182,0.009 0.0366,0.009 0.0366,0.009 0.0366,0.009 0.0458,0.009 h 0.31129 l 0.0184,-0.009 0.0182,-0.009 0.009,-0.009 0.009,-0.009 0.009,-0.0184 0.009,-0.0824 0.009,-0.0732 0.009,-0.0366 0.009,-0.0366 0.009,-0.009 0.009,-0.0183 0.009,-0.009 v -0.0183 h 0.0183 l 0.009,-0.009 h 0.0458 l 0.0184,0.009 0.0182,0.009 0.009,0.009 0.009,0.009 0.009,0.009 0.0184,0.009 0.009,0.0184 0.009,0.009 0.009,0.009 0.009,0.009 0.009,0.009 0.009,0.009 0.009,0.009 0.009,0.009 0.009,0.009 0.009,0.009 0.009,0.0182 0.009,0.009 0.009,0.009 0.009,0.009 0.009,0.009 0.009,0.009 0.009,0.009 0.009,0.009 0.009,0.009 0.009,0.009 0.009,0.009 0.009,0.009 0.009,0.009 0.0183,0.009 0.009,0.009 0.009,0.009 0.0182,0.009 0.0184,0.009 0.0182,0.009 0.0276,0.009 0.0366,0.009 h 0.15558 l 0.31133,-0.009 0.0275,-0.009 0.0182,-0.009 0.0184,-0.009 0.009,-0.009 0.009,-0.0184 0.009,-0.009 v -0.0642 l -0.009,-0.0182 -0.009,-0.0184 -0.009,-0.0182 -0.009,-0.0184 -0.009,-0.009 -0.009,-0.0182 -0.009,-0.009 -0.009,-0.009 -0.009,-0.0183 -0.009,-0.009 -0.009,-0.009 -0.009,-0.009 -0.009,-0.0183 -0.009,-0.009 -0.009,-0.009 -0.009,-0.009 -0.009,-0.009 -0.009,-0.009 -0.009,-0.009 -0.009,-0.009 -0.009,-0.009 -0.009,-0.009 -0.009,-0.009 -0.009,-0.0182 -0.0184,-0.009 -0.009,-0.009 -0.009,-0.009 -0.009,-0.009 -0.009,-0.009 -0.009,-0.009 -0.009,-0.009 -0.009,-0.009 -0.009,-0.009 -0.009,-0.009 -0.009,-0.009 -0.009,-0.009 -0.009,-0.009 -0.009,-0.009 h -0.0182 v -0.0184 l -0.009,-0.009 -0.009,-0.009 -0.009,-0.009 -0.009,-0.009 -0.009,-0.009 -0.009,-0.0183 -0.009,-0.0183 v -0.055 l 0.009,-0.0274 0.009,-0.009 0.009,-0.0184 0.009,-0.0182 0.009,-0.009 0.009,-0.0182 0.009,-0.009 0.009,-0.009 0.009,-0.0184 0.009,-0.009 v -0.0184 h 0.0184 l 0.009,-0.0182 0.009,-0.009 0.009,-0.0184 0.009,-0.009 0.009,-0.009 0.009,-0.0184 0.009,-0.009 0.009,-0.009 0.009,-0.009 0.009,-0.0183 0.009,-0.009 0.009,-0.009 0.009,-0.0183 0.009,-0.009 0.009,-0.009 0.009,-0.0184 0.009,-0.009 0.009,-0.009 0.009,-0.0184 0.009,-0.0182 0.009,-0.009 0.009,-0.009 0.009,-0.0182 0.009,-0.009 0.009,-0.0184 0.009,-0.009 0.009,-0.0184 0.009,-0.0183 0.009,-0.009 0.009,-0.0184 0.009,-0.0183 0.009,-0.0183 0.009,-0.0183 0.009,-0.0275 0.009,-0.0183 0.009,-0.0274 v -0.0642 l -0.009,-0.009 -0.009,-0.009 -0.009,-0.009 -0.0184,-0.009 -0.0549,-0.009 h -0.0458 l -0.4669,0.009 -0.0182,0.009 -0.009,0.009 -0.009,0.009 -0.009,0.009 -0.009,0.0184 -0.009,0.0274 -0.009,0.0184 -0.009,0.0182 -0.009,0.0275 -0.009,0.0183 -0.009,0.0183 -0.009,0.0184 -0.009,0.0274 -0.009,0.0184 -0.009,0.0182 -0.009,0.0184 -0.009,0.0182 -0.009,0.0184 -0.009,0.009 -0.009,0.0274 -0.009,0.009 -0.009,0.0182 -0.009,0.009 -0.009,0.0184 -0.009,0.0182 -0.009,0.009 -0.009,0.0183 -0.009,0.009 -0.009,0.0184 -0.009,0.009 -0.009,0.0183 -0.009,0.009 -0.009,0.0183 -0.009,0.0184 -0.009,0.009 -0.009,0.009 -0.009,0.009 -0.009,0.009 -0.009,0.0182 -0.009,0.009 -0.009,0.009 -0.009,0.009 -0.009,0.009 -0.009,0.009 -0.0184,0.009 -0.009,0.009 h -0.0366 l -0.0183,-0.009 -0.009,-0.0184 -0.009,-0.0274 -0.009,-0.0274 v -0.33881 -0.2014 l -0.009,-0.0458 -0.009,-0.0184 -0.009,-0.009 -0.009,-0.009 -0.009,-0.009 -0.009,-0.009 -0.0274,-0.009 -0.0368,-0.009 -0.0456,-0.009 h -0.35711 z"
       style="fill:#ffffff;fill-opacity:1;fill-rule:evenodd;stroke:none;stroke-width:0.352778"
       id="path232" />
  </g>
</svg>
